M48
; DRILL file KiCad 10.0.4 date 2026-08-21T15:58:26
; FORMAT={-:-/ absolute / metric / decimal}
; #@! TF.CreationDate,2026-08-21T15:58:26-07:00
; #@! TF.GenerationSoftware,Kicad,Pcbnew,10.0.4
; #@! TF.FileFunction,Plated,1,2,PTH
FMAT,2
METRIC
; #@! TA.AperFunction,Plated,PTH,ComponentDrill
T1C0.200
; #@! TA.AperFunction,Plated,PTH,ViaDrill
T2C0.300
; #@! TA.AperFunction,Plated,PTH,ComponentDrill
T3C0.750
; #@! TA.AperFunction,Plated,PTH,ComponentDrill
T4C0.762
; #@! TA.AperFunction,Plated,PTH,ComponentDrill
T5C0.800
; #@! TA.AperFunction,Plated,PTH,ComponentDrill
T6C1.000
; #@! TA.AperFunction,Plated,PTH,ComponentDrill
T7C1.100
; #@! TA.AperFunction,Plated,PTH,ComponentDrill
T8C1.500
%
G90
G05
T1
X139.85Y-99.1
X139.85Y-100.3
X139.85Y-101.5
X141.25Y-99.1
X141.25Y-100.3
X141.25Y-101.5
T2
X112.4Y-107.0
X113.4Y-105.4
X114.7Y-106.9
X116.6Y-78.7
X118.0Y-96.7
X119.2Y-108.0
X119.5Y-96.9
X119.6Y-95.1
X120.2Y-106.1
X120.6Y-82.0
X121.0Y-107.2
X121.2Y-73.1
X122.2Y-96.9
X123.1Y-73.9
X124.1Y-72.0
X124.3Y-69.9
X126.6Y-94.3
X127.1Y-69.9
X128.0Y-87.4
X128.6Y-92.3
X130.5Y-98.0
X130.8Y-82.8
X130.9Y-94.9
X131.0Y-100.2
X131.2Y-90.6
X131.4Y-70.1
X131.8Y-86.8
X131.8Y-92.0
X132.4Y-84.7
X134.3Y-80.5
X134.8Y-87.4
X135.4Y-77.5
X135.6Y-82.4
X136.1Y-89.6
X136.4Y-81.4
X136.6Y-100.3
X137.0Y-92.8
X137.1Y-63.0
X137.4Y-83.5
X137.9Y-74.1
X137.9Y-82.2
X138.3Y-64.2
X138.3Y-93.3
X138.7Y-69.5
X138.7Y-86.9
X139.2Y-81.3
X139.2Y-91.8
X139.9Y-69.5
X140.2Y-84.5
X140.7Y-86.8
X142.0Y-93.7
X142.0Y-94.9
X142.228Y-86.205
X142.25Y-81.0
X142.3Y-88.4
X142.525Y-78.725
X142.574Y-86.926
X143.901Y-86.151
X144.0Y-80.25
X144.25Y-83.0
X146.5Y-86.25
X147.5Y-87.4
X149.8Y-87.4
X153.2Y-40.0
T3
X154.25Y-106.0
X156.25Y-106.0
T4
X145.84Y-75.86
X145.84Y-93.64
X148.38Y-75.86
X148.38Y-93.64
X150.92Y-75.86
X150.92Y-93.64
X153.46Y-75.86
X153.46Y-93.64
X156.0Y-75.86
X156.0Y-93.64
X158.54Y-75.86
X158.54Y-93.64
X161.08Y-75.86
X161.08Y-93.64
X163.62Y-75.86
X163.62Y-93.64
T5
X115.75Y-86.0
X118.25Y-86.0
X119.682Y-78.25
X122.182Y-78.25
X124.0Y-86.0
X126.5Y-86.0
X138.0Y-108.797
X140.0Y-108.797
X142.0Y-108.797
T6
X111.25Y-41.71
X111.25Y-44.25
X111.25Y-46.79
X111.25Y-49.33
X150.75Y-61.5
X150.75Y-64.0
X150.75Y-66.5
X165.25Y-61.5
X165.25Y-66.5
T7
X110.5Y-63.5
X110.5Y-68.0
X117.0Y-63.5
X117.0Y-68.0
X123.0Y-63.5
X123.0Y-68.0
X129.5Y-63.5
X129.5Y-68.0
X135.5Y-63.5
X135.5Y-68.0
X142.0Y-63.5
X142.0Y-68.0
T8
X135.9Y-108.797
X144.1Y-108.797
T8
G00X157.6Y-58.4
M15
G01X158.9Y-58.4
M16
G05
G00X157.6Y-69.6
M15
G01X158.9Y-69.6
M16
G05
M30
