%TF.GenerationSoftware,KiCad,Pcbnew,10.0.4*%
%TF.CreationDate,2026-08-21T15:58:06-07:00*%
%TF.ProjectId,musicplayer-frfr,6d757369-6370-46c6-9179-65722d667266,rev?*%
%TF.SameCoordinates,Original*%
%TF.FileFunction,Legend,Top*%
%TF.FilePolarity,Positive*%
%FSLAX46Y46*%
G04 Gerber Fmt 4.6, Leading zero omitted, Abs format (unit mm)*
G04 Created by KiCad (PCBNEW 10.0.4) date 2026-08-21 15:58:06*
%MOMM*%
%LPD*%
G01*
G04 APERTURE LIST*
%ADD10C,0.150000*%
%ADD11C,0.101600*%
%ADD12C,0.120000*%
%ADD13C,0.100000*%
%ADD14C,0.127000*%
%ADD15C,0.504000*%
G04 APERTURE END LIST*
D10*
X140656667Y-106214700D02*
X140799524Y-106262319D01*
X140799524Y-106262319D02*
X141037619Y-106262319D01*
X141037619Y-106262319D02*
X141132857Y-106214700D01*
X141132857Y-106214700D02*
X141180476Y-106167080D01*
X141180476Y-106167080D02*
X141228095Y-106071842D01*
X141228095Y-106071842D02*
X141228095Y-105976604D01*
X141228095Y-105976604D02*
X141180476Y-105881366D01*
X141180476Y-105881366D02*
X141132857Y-105833747D01*
X141132857Y-105833747D02*
X141037619Y-105786128D01*
X141037619Y-105786128D02*
X140847143Y-105738509D01*
X140847143Y-105738509D02*
X140751905Y-105690890D01*
X140751905Y-105690890D02*
X140704286Y-105643271D01*
X140704286Y-105643271D02*
X140656667Y-105548033D01*
X140656667Y-105548033D02*
X140656667Y-105452795D01*
X140656667Y-105452795D02*
X140704286Y-105357557D01*
X140704286Y-105357557D02*
X140751905Y-105309938D01*
X140751905Y-105309938D02*
X140847143Y-105262319D01*
X140847143Y-105262319D02*
X141085238Y-105262319D01*
X141085238Y-105262319D02*
X141228095Y-105309938D01*
X141561429Y-105262319D02*
X141799524Y-106262319D01*
X141799524Y-106262319D02*
X141990000Y-105548033D01*
X141990000Y-105548033D02*
X142180476Y-106262319D01*
X142180476Y-106262319D02*
X142418572Y-105262319D01*
X143275714Y-105262319D02*
X142799524Y-105262319D01*
X142799524Y-105262319D02*
X142751905Y-105738509D01*
X142751905Y-105738509D02*
X142799524Y-105690890D01*
X142799524Y-105690890D02*
X142894762Y-105643271D01*
X142894762Y-105643271D02*
X143132857Y-105643271D01*
X143132857Y-105643271D02*
X143228095Y-105690890D01*
X143228095Y-105690890D02*
X143275714Y-105738509D01*
X143275714Y-105738509D02*
X143323333Y-105833747D01*
X143323333Y-105833747D02*
X143323333Y-106071842D01*
X143323333Y-106071842D02*
X143275714Y-106167080D01*
X143275714Y-106167080D02*
X143228095Y-106214700D01*
X143228095Y-106214700D02*
X143132857Y-106262319D01*
X143132857Y-106262319D02*
X142894762Y-106262319D01*
X142894762Y-106262319D02*
X142799524Y-106214700D01*
X142799524Y-106214700D02*
X142751905Y-106167080D01*
X138245833Y-80554819D02*
X137912500Y-80078628D01*
X137674405Y-80554819D02*
X137674405Y-79554819D01*
X137674405Y-79554819D02*
X138055357Y-79554819D01*
X138055357Y-79554819D02*
X138150595Y-79602438D01*
X138150595Y-79602438D02*
X138198214Y-79650057D01*
X138198214Y-79650057D02*
X138245833Y-79745295D01*
X138245833Y-79745295D02*
X138245833Y-79888152D01*
X138245833Y-79888152D02*
X138198214Y-79983390D01*
X138198214Y-79983390D02*
X138150595Y-80031009D01*
X138150595Y-80031009D02*
X138055357Y-80078628D01*
X138055357Y-80078628D02*
X137674405Y-80078628D01*
X139150595Y-79554819D02*
X138674405Y-79554819D01*
X138674405Y-79554819D02*
X138626786Y-80031009D01*
X138626786Y-80031009D02*
X138674405Y-79983390D01*
X138674405Y-79983390D02*
X138769643Y-79935771D01*
X138769643Y-79935771D02*
X139007738Y-79935771D01*
X139007738Y-79935771D02*
X139102976Y-79983390D01*
X139102976Y-79983390D02*
X139150595Y-80031009D01*
X139150595Y-80031009D02*
X139198214Y-80126247D01*
X139198214Y-80126247D02*
X139198214Y-80364342D01*
X139198214Y-80364342D02*
X139150595Y-80459580D01*
X139150595Y-80459580D02*
X139102976Y-80507200D01*
X139102976Y-80507200D02*
X139007738Y-80554819D01*
X139007738Y-80554819D02*
X138769643Y-80554819D01*
X138769643Y-80554819D02*
X138674405Y-80507200D01*
X138674405Y-80507200D02*
X138626786Y-80459580D01*
X132583333Y-95804819D02*
X132250000Y-95328628D01*
X132011905Y-95804819D02*
X132011905Y-94804819D01*
X132011905Y-94804819D02*
X132392857Y-94804819D01*
X132392857Y-94804819D02*
X132488095Y-94852438D01*
X132488095Y-94852438D02*
X132535714Y-94900057D01*
X132535714Y-94900057D02*
X132583333Y-94995295D01*
X132583333Y-94995295D02*
X132583333Y-95138152D01*
X132583333Y-95138152D02*
X132535714Y-95233390D01*
X132535714Y-95233390D02*
X132488095Y-95281009D01*
X132488095Y-95281009D02*
X132392857Y-95328628D01*
X132392857Y-95328628D02*
X132011905Y-95328628D01*
X133535714Y-95804819D02*
X132964286Y-95804819D01*
X133250000Y-95804819D02*
X133250000Y-94804819D01*
X133250000Y-94804819D02*
X133154762Y-94947676D01*
X133154762Y-94947676D02*
X133059524Y-95042914D01*
X133059524Y-95042914D02*
X132964286Y-95090533D01*
X145488095Y-98254819D02*
X145488095Y-99064342D01*
X145488095Y-99064342D02*
X145535714Y-99159580D01*
X145535714Y-99159580D02*
X145583333Y-99207200D01*
X145583333Y-99207200D02*
X145678571Y-99254819D01*
X145678571Y-99254819D02*
X145869047Y-99254819D01*
X145869047Y-99254819D02*
X145964285Y-99207200D01*
X145964285Y-99207200D02*
X146011904Y-99159580D01*
X146011904Y-99159580D02*
X146059523Y-99064342D01*
X146059523Y-99064342D02*
X146059523Y-98254819D01*
X146488095Y-98350057D02*
X146535714Y-98302438D01*
X146535714Y-98302438D02*
X146630952Y-98254819D01*
X146630952Y-98254819D02*
X146869047Y-98254819D01*
X146869047Y-98254819D02*
X146964285Y-98302438D01*
X146964285Y-98302438D02*
X147011904Y-98350057D01*
X147011904Y-98350057D02*
X147059523Y-98445295D01*
X147059523Y-98445295D02*
X147059523Y-98540533D01*
X147059523Y-98540533D02*
X147011904Y-98683390D01*
X147011904Y-98683390D02*
X146440476Y-99254819D01*
X146440476Y-99254819D02*
X147059523Y-99254819D01*
D11*
X125483809Y-111126520D02*
X125483809Y-110612473D01*
X125483809Y-110612473D02*
X125453571Y-110551997D01*
X125453571Y-110551997D02*
X125423333Y-110521759D01*
X125423333Y-110521759D02*
X125362857Y-110491520D01*
X125362857Y-110491520D02*
X125241904Y-110491520D01*
X125241904Y-110491520D02*
X125181428Y-110521759D01*
X125181428Y-110521759D02*
X125151190Y-110551997D01*
X125151190Y-110551997D02*
X125120952Y-110612473D01*
X125120952Y-110612473D02*
X125120952Y-111126520D01*
X124485952Y-110491520D02*
X124848809Y-110491520D01*
X124667381Y-110491520D02*
X124667381Y-111126520D01*
X124667381Y-111126520D02*
X124727857Y-111035806D01*
X124727857Y-111035806D02*
X124788333Y-110975330D01*
X124788333Y-110975330D02*
X124848809Y-110945092D01*
D10*
X112416667Y-70407200D02*
X112559524Y-70454819D01*
X112559524Y-70454819D02*
X112797619Y-70454819D01*
X112797619Y-70454819D02*
X112892857Y-70407200D01*
X112892857Y-70407200D02*
X112940476Y-70359580D01*
X112940476Y-70359580D02*
X112988095Y-70264342D01*
X112988095Y-70264342D02*
X112988095Y-70169104D01*
X112988095Y-70169104D02*
X112940476Y-70073866D01*
X112940476Y-70073866D02*
X112892857Y-70026247D01*
X112892857Y-70026247D02*
X112797619Y-69978628D01*
X112797619Y-69978628D02*
X112607143Y-69931009D01*
X112607143Y-69931009D02*
X112511905Y-69883390D01*
X112511905Y-69883390D02*
X112464286Y-69835771D01*
X112464286Y-69835771D02*
X112416667Y-69740533D01*
X112416667Y-69740533D02*
X112416667Y-69645295D01*
X112416667Y-69645295D02*
X112464286Y-69550057D01*
X112464286Y-69550057D02*
X112511905Y-69502438D01*
X112511905Y-69502438D02*
X112607143Y-69454819D01*
X112607143Y-69454819D02*
X112845238Y-69454819D01*
X112845238Y-69454819D02*
X112988095Y-69502438D01*
X113321429Y-69454819D02*
X113559524Y-70454819D01*
X113559524Y-70454819D02*
X113750000Y-69740533D01*
X113750000Y-69740533D02*
X113940476Y-70454819D01*
X113940476Y-70454819D02*
X114178572Y-69454819D01*
X115083333Y-70454819D02*
X114511905Y-70454819D01*
X114797619Y-70454819D02*
X114797619Y-69454819D01*
X114797619Y-69454819D02*
X114702381Y-69597676D01*
X114702381Y-69597676D02*
X114607143Y-69692914D01*
X114607143Y-69692914D02*
X114511905Y-69740533D01*
X138083333Y-90429580D02*
X138035714Y-90477200D01*
X138035714Y-90477200D02*
X137892857Y-90524819D01*
X137892857Y-90524819D02*
X137797619Y-90524819D01*
X137797619Y-90524819D02*
X137654762Y-90477200D01*
X137654762Y-90477200D02*
X137559524Y-90381961D01*
X137559524Y-90381961D02*
X137511905Y-90286723D01*
X137511905Y-90286723D02*
X137464286Y-90096247D01*
X137464286Y-90096247D02*
X137464286Y-89953390D01*
X137464286Y-89953390D02*
X137511905Y-89762914D01*
X137511905Y-89762914D02*
X137559524Y-89667676D01*
X137559524Y-89667676D02*
X137654762Y-89572438D01*
X137654762Y-89572438D02*
X137797619Y-89524819D01*
X137797619Y-89524819D02*
X137892857Y-89524819D01*
X137892857Y-89524819D02*
X138035714Y-89572438D01*
X138035714Y-89572438D02*
X138083333Y-89620057D01*
X138940476Y-89858152D02*
X138940476Y-90524819D01*
X138702381Y-89477200D02*
X138464286Y-90191485D01*
X138464286Y-90191485D02*
X139083333Y-90191485D01*
X137416667Y-70407200D02*
X137559524Y-70454819D01*
X137559524Y-70454819D02*
X137797619Y-70454819D01*
X137797619Y-70454819D02*
X137892857Y-70407200D01*
X137892857Y-70407200D02*
X137940476Y-70359580D01*
X137940476Y-70359580D02*
X137988095Y-70264342D01*
X137988095Y-70264342D02*
X137988095Y-70169104D01*
X137988095Y-70169104D02*
X137940476Y-70073866D01*
X137940476Y-70073866D02*
X137892857Y-70026247D01*
X137892857Y-70026247D02*
X137797619Y-69978628D01*
X137797619Y-69978628D02*
X137607143Y-69931009D01*
X137607143Y-69931009D02*
X137511905Y-69883390D01*
X137511905Y-69883390D02*
X137464286Y-69835771D01*
X137464286Y-69835771D02*
X137416667Y-69740533D01*
X137416667Y-69740533D02*
X137416667Y-69645295D01*
X137416667Y-69645295D02*
X137464286Y-69550057D01*
X137464286Y-69550057D02*
X137511905Y-69502438D01*
X137511905Y-69502438D02*
X137607143Y-69454819D01*
X137607143Y-69454819D02*
X137845238Y-69454819D01*
X137845238Y-69454819D02*
X137988095Y-69502438D01*
X138321429Y-69454819D02*
X138559524Y-70454819D01*
X138559524Y-70454819D02*
X138750000Y-69740533D01*
X138750000Y-69740533D02*
X138940476Y-70454819D01*
X138940476Y-70454819D02*
X139178572Y-69454819D01*
X139464286Y-69454819D02*
X140083333Y-69454819D01*
X140083333Y-69454819D02*
X139750000Y-69835771D01*
X139750000Y-69835771D02*
X139892857Y-69835771D01*
X139892857Y-69835771D02*
X139988095Y-69883390D01*
X139988095Y-69883390D02*
X140035714Y-69931009D01*
X140035714Y-69931009D02*
X140083333Y-70026247D01*
X140083333Y-70026247D02*
X140083333Y-70264342D01*
X140083333Y-70264342D02*
X140035714Y-70359580D01*
X140035714Y-70359580D02*
X139988095Y-70407200D01*
X139988095Y-70407200D02*
X139892857Y-70454819D01*
X139892857Y-70454819D02*
X139607143Y-70454819D01*
X139607143Y-70454819D02*
X139511905Y-70407200D01*
X139511905Y-70407200D02*
X139464286Y-70359580D01*
X124916667Y-70407200D02*
X125059524Y-70454819D01*
X125059524Y-70454819D02*
X125297619Y-70454819D01*
X125297619Y-70454819D02*
X125392857Y-70407200D01*
X125392857Y-70407200D02*
X125440476Y-70359580D01*
X125440476Y-70359580D02*
X125488095Y-70264342D01*
X125488095Y-70264342D02*
X125488095Y-70169104D01*
X125488095Y-70169104D02*
X125440476Y-70073866D01*
X125440476Y-70073866D02*
X125392857Y-70026247D01*
X125392857Y-70026247D02*
X125297619Y-69978628D01*
X125297619Y-69978628D02*
X125107143Y-69931009D01*
X125107143Y-69931009D02*
X125011905Y-69883390D01*
X125011905Y-69883390D02*
X124964286Y-69835771D01*
X124964286Y-69835771D02*
X124916667Y-69740533D01*
X124916667Y-69740533D02*
X124916667Y-69645295D01*
X124916667Y-69645295D02*
X124964286Y-69550057D01*
X124964286Y-69550057D02*
X125011905Y-69502438D01*
X125011905Y-69502438D02*
X125107143Y-69454819D01*
X125107143Y-69454819D02*
X125345238Y-69454819D01*
X125345238Y-69454819D02*
X125488095Y-69502438D01*
X125821429Y-69454819D02*
X126059524Y-70454819D01*
X126059524Y-70454819D02*
X126250000Y-69740533D01*
X126250000Y-69740533D02*
X126440476Y-70454819D01*
X126440476Y-70454819D02*
X126678572Y-69454819D01*
X127011905Y-69550057D02*
X127059524Y-69502438D01*
X127059524Y-69502438D02*
X127154762Y-69454819D01*
X127154762Y-69454819D02*
X127392857Y-69454819D01*
X127392857Y-69454819D02*
X127488095Y-69502438D01*
X127488095Y-69502438D02*
X127535714Y-69550057D01*
X127535714Y-69550057D02*
X127583333Y-69645295D01*
X127583333Y-69645295D02*
X127583333Y-69740533D01*
X127583333Y-69740533D02*
X127535714Y-69883390D01*
X127535714Y-69883390D02*
X126964286Y-70454819D01*
X126964286Y-70454819D02*
X127583333Y-70454819D01*
X154916666Y-102904819D02*
X154916666Y-103619104D01*
X154916666Y-103619104D02*
X154869047Y-103761961D01*
X154869047Y-103761961D02*
X154773809Y-103857200D01*
X154773809Y-103857200D02*
X154630952Y-103904819D01*
X154630952Y-103904819D02*
X154535714Y-103904819D01*
X155916666Y-103904819D02*
X155345238Y-103904819D01*
X155630952Y-103904819D02*
X155630952Y-102904819D01*
X155630952Y-102904819D02*
X155535714Y-103047676D01*
X155535714Y-103047676D02*
X155440476Y-103142914D01*
X155440476Y-103142914D02*
X155345238Y-103190533D01*
X125083329Y-90759580D02*
X125035710Y-90807200D01*
X125035710Y-90807200D02*
X124892853Y-90854819D01*
X124892853Y-90854819D02*
X124797615Y-90854819D01*
X124797615Y-90854819D02*
X124654758Y-90807200D01*
X124654758Y-90807200D02*
X124559520Y-90711961D01*
X124559520Y-90711961D02*
X124511901Y-90616723D01*
X124511901Y-90616723D02*
X124464282Y-90426247D01*
X124464282Y-90426247D02*
X124464282Y-90283390D01*
X124464282Y-90283390D02*
X124511901Y-90092914D01*
X124511901Y-90092914D02*
X124559520Y-89997676D01*
X124559520Y-89997676D02*
X124654758Y-89902438D01*
X124654758Y-89902438D02*
X124797615Y-89854819D01*
X124797615Y-89854819D02*
X124892853Y-89854819D01*
X124892853Y-89854819D02*
X125035710Y-89902438D01*
X125035710Y-89902438D02*
X125083329Y-89950057D01*
X125416663Y-89854819D02*
X126035710Y-89854819D01*
X126035710Y-89854819D02*
X125702377Y-90235771D01*
X125702377Y-90235771D02*
X125845234Y-90235771D01*
X125845234Y-90235771D02*
X125940472Y-90283390D01*
X125940472Y-90283390D02*
X125988091Y-90331009D01*
X125988091Y-90331009D02*
X126035710Y-90426247D01*
X126035710Y-90426247D02*
X126035710Y-90664342D01*
X126035710Y-90664342D02*
X125988091Y-90759580D01*
X125988091Y-90759580D02*
X125940472Y-90807200D01*
X125940472Y-90807200D02*
X125845234Y-90854819D01*
X125845234Y-90854819D02*
X125559520Y-90854819D01*
X125559520Y-90854819D02*
X125464282Y-90807200D01*
X125464282Y-90807200D02*
X125416663Y-90759580D01*
X137833333Y-85304819D02*
X137500000Y-84828628D01*
X137261905Y-85304819D02*
X137261905Y-84304819D01*
X137261905Y-84304819D02*
X137642857Y-84304819D01*
X137642857Y-84304819D02*
X137738095Y-84352438D01*
X137738095Y-84352438D02*
X137785714Y-84400057D01*
X137785714Y-84400057D02*
X137833333Y-84495295D01*
X137833333Y-84495295D02*
X137833333Y-84638152D01*
X137833333Y-84638152D02*
X137785714Y-84733390D01*
X137785714Y-84733390D02*
X137738095Y-84781009D01*
X137738095Y-84781009D02*
X137642857Y-84828628D01*
X137642857Y-84828628D02*
X137261905Y-84828628D01*
X138690476Y-84304819D02*
X138500000Y-84304819D01*
X138500000Y-84304819D02*
X138404762Y-84352438D01*
X138404762Y-84352438D02*
X138357143Y-84400057D01*
X138357143Y-84400057D02*
X138261905Y-84542914D01*
X138261905Y-84542914D02*
X138214286Y-84733390D01*
X138214286Y-84733390D02*
X138214286Y-85114342D01*
X138214286Y-85114342D02*
X138261905Y-85209580D01*
X138261905Y-85209580D02*
X138309524Y-85257200D01*
X138309524Y-85257200D02*
X138404762Y-85304819D01*
X138404762Y-85304819D02*
X138595238Y-85304819D01*
X138595238Y-85304819D02*
X138690476Y-85257200D01*
X138690476Y-85257200D02*
X138738095Y-85209580D01*
X138738095Y-85209580D02*
X138785714Y-85114342D01*
X138785714Y-85114342D02*
X138785714Y-84876247D01*
X138785714Y-84876247D02*
X138738095Y-84781009D01*
X138738095Y-84781009D02*
X138690476Y-84733390D01*
X138690476Y-84733390D02*
X138595238Y-84685771D01*
X138595238Y-84685771D02*
X138404762Y-84685771D01*
X138404762Y-84685771D02*
X138309524Y-84733390D01*
X138309524Y-84733390D02*
X138261905Y-84781009D01*
X138261905Y-84781009D02*
X138214286Y-84876247D01*
X156616666Y-37704819D02*
X156616666Y-38419104D01*
X156616666Y-38419104D02*
X156569047Y-38561961D01*
X156569047Y-38561961D02*
X156473809Y-38657200D01*
X156473809Y-38657200D02*
X156330952Y-38704819D01*
X156330952Y-38704819D02*
X156235714Y-38704819D01*
X157045238Y-37800057D02*
X157092857Y-37752438D01*
X157092857Y-37752438D02*
X157188095Y-37704819D01*
X157188095Y-37704819D02*
X157426190Y-37704819D01*
X157426190Y-37704819D02*
X157521428Y-37752438D01*
X157521428Y-37752438D02*
X157569047Y-37800057D01*
X157569047Y-37800057D02*
X157616666Y-37895295D01*
X157616666Y-37895295D02*
X157616666Y-37990533D01*
X157616666Y-37990533D02*
X157569047Y-38133390D01*
X157569047Y-38133390D02*
X156997619Y-38704819D01*
X156997619Y-38704819D02*
X157616666Y-38704819D01*
X165761905Y-102744819D02*
X165761905Y-101744819D01*
X165761905Y-101744819D02*
X166000000Y-101744819D01*
X166000000Y-101744819D02*
X166142857Y-101792438D01*
X166142857Y-101792438D02*
X166238095Y-101887676D01*
X166238095Y-101887676D02*
X166285714Y-101982914D01*
X166285714Y-101982914D02*
X166333333Y-102173390D01*
X166333333Y-102173390D02*
X166333333Y-102316247D01*
X166333333Y-102316247D02*
X166285714Y-102506723D01*
X166285714Y-102506723D02*
X166238095Y-102601961D01*
X166238095Y-102601961D02*
X166142857Y-102697200D01*
X166142857Y-102697200D02*
X166000000Y-102744819D01*
X166000000Y-102744819D02*
X165761905Y-102744819D01*
X166714286Y-101840057D02*
X166761905Y-101792438D01*
X166761905Y-101792438D02*
X166857143Y-101744819D01*
X166857143Y-101744819D02*
X167095238Y-101744819D01*
X167095238Y-101744819D02*
X167190476Y-101792438D01*
X167190476Y-101792438D02*
X167238095Y-101840057D01*
X167238095Y-101840057D02*
X167285714Y-101935295D01*
X167285714Y-101935295D02*
X167285714Y-102030533D01*
X167285714Y-102030533D02*
X167238095Y-102173390D01*
X167238095Y-102173390D02*
X166666667Y-102744819D01*
X166666667Y-102744819D02*
X167285714Y-102744819D01*
X132583333Y-80554819D02*
X132250000Y-80078628D01*
X132011905Y-80554819D02*
X132011905Y-79554819D01*
X132011905Y-79554819D02*
X132392857Y-79554819D01*
X132392857Y-79554819D02*
X132488095Y-79602438D01*
X132488095Y-79602438D02*
X132535714Y-79650057D01*
X132535714Y-79650057D02*
X132583333Y-79745295D01*
X132583333Y-79745295D02*
X132583333Y-79888152D01*
X132583333Y-79888152D02*
X132535714Y-79983390D01*
X132535714Y-79983390D02*
X132488095Y-80031009D01*
X132488095Y-80031009D02*
X132392857Y-80078628D01*
X132392857Y-80078628D02*
X132011905Y-80078628D01*
X133440476Y-79888152D02*
X133440476Y-80554819D01*
X133202381Y-79507200D02*
X132964286Y-80221485D01*
X132964286Y-80221485D02*
X133583333Y-80221485D01*
X116833329Y-90759580D02*
X116785710Y-90807200D01*
X116785710Y-90807200D02*
X116642853Y-90854819D01*
X116642853Y-90854819D02*
X116547615Y-90854819D01*
X116547615Y-90854819D02*
X116404758Y-90807200D01*
X116404758Y-90807200D02*
X116309520Y-90711961D01*
X116309520Y-90711961D02*
X116261901Y-90616723D01*
X116261901Y-90616723D02*
X116214282Y-90426247D01*
X116214282Y-90426247D02*
X116214282Y-90283390D01*
X116214282Y-90283390D02*
X116261901Y-90092914D01*
X116261901Y-90092914D02*
X116309520Y-89997676D01*
X116309520Y-89997676D02*
X116404758Y-89902438D01*
X116404758Y-89902438D02*
X116547615Y-89854819D01*
X116547615Y-89854819D02*
X116642853Y-89854819D01*
X116642853Y-89854819D02*
X116785710Y-89902438D01*
X116785710Y-89902438D02*
X116833329Y-89950057D01*
X117785710Y-90854819D02*
X117214282Y-90854819D01*
X117499996Y-90854819D02*
X117499996Y-89854819D01*
X117499996Y-89854819D02*
X117404758Y-89997676D01*
X117404758Y-89997676D02*
X117309520Y-90092914D01*
X117309520Y-90092914D02*
X117214282Y-90140533D01*
X132583333Y-90804819D02*
X132250000Y-90328628D01*
X132011905Y-90804819D02*
X132011905Y-89804819D01*
X132011905Y-89804819D02*
X132392857Y-89804819D01*
X132392857Y-89804819D02*
X132488095Y-89852438D01*
X132488095Y-89852438D02*
X132535714Y-89900057D01*
X132535714Y-89900057D02*
X132583333Y-89995295D01*
X132583333Y-89995295D02*
X132583333Y-90138152D01*
X132583333Y-90138152D02*
X132535714Y-90233390D01*
X132535714Y-90233390D02*
X132488095Y-90281009D01*
X132488095Y-90281009D02*
X132392857Y-90328628D01*
X132392857Y-90328628D02*
X132011905Y-90328628D01*
X132964286Y-89900057D02*
X133011905Y-89852438D01*
X133011905Y-89852438D02*
X133107143Y-89804819D01*
X133107143Y-89804819D02*
X133345238Y-89804819D01*
X133345238Y-89804819D02*
X133440476Y-89852438D01*
X133440476Y-89852438D02*
X133488095Y-89900057D01*
X133488095Y-89900057D02*
X133535714Y-89995295D01*
X133535714Y-89995295D02*
X133535714Y-90090533D01*
X133535714Y-90090533D02*
X133488095Y-90233390D01*
X133488095Y-90233390D02*
X132916667Y-90804819D01*
X132916667Y-90804819D02*
X133535714Y-90804819D01*
X148294819Y-86781904D02*
X149104342Y-86781904D01*
X149104342Y-86781904D02*
X149199580Y-86734285D01*
X149199580Y-86734285D02*
X149247200Y-86686666D01*
X149247200Y-86686666D02*
X149294819Y-86591428D01*
X149294819Y-86591428D02*
X149294819Y-86400952D01*
X149294819Y-86400952D02*
X149247200Y-86305714D01*
X149247200Y-86305714D02*
X149199580Y-86258095D01*
X149199580Y-86258095D02*
X149104342Y-86210476D01*
X149104342Y-86210476D02*
X148294819Y-86210476D01*
X148294819Y-85829523D02*
X148294819Y-85210476D01*
X148294819Y-85210476D02*
X148675771Y-85543809D01*
X148675771Y-85543809D02*
X148675771Y-85400952D01*
X148675771Y-85400952D02*
X148723390Y-85305714D01*
X148723390Y-85305714D02*
X148771009Y-85258095D01*
X148771009Y-85258095D02*
X148866247Y-85210476D01*
X148866247Y-85210476D02*
X149104342Y-85210476D01*
X149104342Y-85210476D02*
X149199580Y-85258095D01*
X149199580Y-85258095D02*
X149247200Y-85305714D01*
X149247200Y-85305714D02*
X149294819Y-85400952D01*
X149294819Y-85400952D02*
X149294819Y-85686666D01*
X149294819Y-85686666D02*
X149247200Y-85781904D01*
X149247200Y-85781904D02*
X149199580Y-85829523D01*
X110916666Y-38784819D02*
X110916666Y-39499104D01*
X110916666Y-39499104D02*
X110869047Y-39641961D01*
X110869047Y-39641961D02*
X110773809Y-39737200D01*
X110773809Y-39737200D02*
X110630952Y-39784819D01*
X110630952Y-39784819D02*
X110535714Y-39784819D01*
X111297619Y-38784819D02*
X111916666Y-38784819D01*
X111916666Y-38784819D02*
X111583333Y-39165771D01*
X111583333Y-39165771D02*
X111726190Y-39165771D01*
X111726190Y-39165771D02*
X111821428Y-39213390D01*
X111821428Y-39213390D02*
X111869047Y-39261009D01*
X111869047Y-39261009D02*
X111916666Y-39356247D01*
X111916666Y-39356247D02*
X111916666Y-39594342D01*
X111916666Y-39594342D02*
X111869047Y-39689580D01*
X111869047Y-39689580D02*
X111821428Y-39737200D01*
X111821428Y-39737200D02*
X111726190Y-39784819D01*
X111726190Y-39784819D02*
X111440476Y-39784819D01*
X111440476Y-39784819D02*
X111345238Y-39737200D01*
X111345238Y-39737200D02*
X111297619Y-39689580D01*
X120765709Y-83009580D02*
X120718090Y-83057200D01*
X120718090Y-83057200D02*
X120575233Y-83104819D01*
X120575233Y-83104819D02*
X120479995Y-83104819D01*
X120479995Y-83104819D02*
X120337138Y-83057200D01*
X120337138Y-83057200D02*
X120241900Y-82961961D01*
X120241900Y-82961961D02*
X120194281Y-82866723D01*
X120194281Y-82866723D02*
X120146662Y-82676247D01*
X120146662Y-82676247D02*
X120146662Y-82533390D01*
X120146662Y-82533390D02*
X120194281Y-82342914D01*
X120194281Y-82342914D02*
X120241900Y-82247676D01*
X120241900Y-82247676D02*
X120337138Y-82152438D01*
X120337138Y-82152438D02*
X120479995Y-82104819D01*
X120479995Y-82104819D02*
X120575233Y-82104819D01*
X120575233Y-82104819D02*
X120718090Y-82152438D01*
X120718090Y-82152438D02*
X120765709Y-82200057D01*
X121146662Y-82200057D02*
X121194281Y-82152438D01*
X121194281Y-82152438D02*
X121289519Y-82104819D01*
X121289519Y-82104819D02*
X121527614Y-82104819D01*
X121527614Y-82104819D02*
X121622852Y-82152438D01*
X121622852Y-82152438D02*
X121670471Y-82200057D01*
X121670471Y-82200057D02*
X121718090Y-82295295D01*
X121718090Y-82295295D02*
X121718090Y-82390533D01*
X121718090Y-82390533D02*
X121670471Y-82533390D01*
X121670471Y-82533390D02*
X121099043Y-83104819D01*
X121099043Y-83104819D02*
X121718090Y-83104819D01*
X132583333Y-85554819D02*
X132250000Y-85078628D01*
X132011905Y-85554819D02*
X132011905Y-84554819D01*
X132011905Y-84554819D02*
X132392857Y-84554819D01*
X132392857Y-84554819D02*
X132488095Y-84602438D01*
X132488095Y-84602438D02*
X132535714Y-84650057D01*
X132535714Y-84650057D02*
X132583333Y-84745295D01*
X132583333Y-84745295D02*
X132583333Y-84888152D01*
X132583333Y-84888152D02*
X132535714Y-84983390D01*
X132535714Y-84983390D02*
X132488095Y-85031009D01*
X132488095Y-85031009D02*
X132392857Y-85078628D01*
X132392857Y-85078628D02*
X132011905Y-85078628D01*
X132916667Y-84554819D02*
X133535714Y-84554819D01*
X133535714Y-84554819D02*
X133202381Y-84935771D01*
X133202381Y-84935771D02*
X133345238Y-84935771D01*
X133345238Y-84935771D02*
X133440476Y-84983390D01*
X133440476Y-84983390D02*
X133488095Y-85031009D01*
X133488095Y-85031009D02*
X133535714Y-85126247D01*
X133535714Y-85126247D02*
X133535714Y-85364342D01*
X133535714Y-85364342D02*
X133488095Y-85459580D01*
X133488095Y-85459580D02*
X133440476Y-85507200D01*
X133440476Y-85507200D02*
X133345238Y-85554819D01*
X133345238Y-85554819D02*
X133059524Y-85554819D01*
X133059524Y-85554819D02*
X132964286Y-85507200D01*
X132964286Y-85507200D02*
X132916667Y-85459580D01*
X163074405Y-99554819D02*
X163074405Y-98554819D01*
X163074405Y-98554819D02*
X163312500Y-98554819D01*
X163312500Y-98554819D02*
X163455357Y-98602438D01*
X163455357Y-98602438D02*
X163550595Y-98697676D01*
X163550595Y-98697676D02*
X163598214Y-98792914D01*
X163598214Y-98792914D02*
X163645833Y-98983390D01*
X163645833Y-98983390D02*
X163645833Y-99126247D01*
X163645833Y-99126247D02*
X163598214Y-99316723D01*
X163598214Y-99316723D02*
X163550595Y-99411961D01*
X163550595Y-99411961D02*
X163455357Y-99507200D01*
X163455357Y-99507200D02*
X163312500Y-99554819D01*
X163312500Y-99554819D02*
X163074405Y-99554819D01*
X164598214Y-99554819D02*
X164026786Y-99554819D01*
X164312500Y-99554819D02*
X164312500Y-98554819D01*
X164312500Y-98554819D02*
X164217262Y-98697676D01*
X164217262Y-98697676D02*
X164122024Y-98792914D01*
X164122024Y-98792914D02*
X164026786Y-98840533D01*
X152216667Y-57207200D02*
X152359524Y-57254819D01*
X152359524Y-57254819D02*
X152597619Y-57254819D01*
X152597619Y-57254819D02*
X152692857Y-57207200D01*
X152692857Y-57207200D02*
X152740476Y-57159580D01*
X152740476Y-57159580D02*
X152788095Y-57064342D01*
X152788095Y-57064342D02*
X152788095Y-56969104D01*
X152788095Y-56969104D02*
X152740476Y-56873866D01*
X152740476Y-56873866D02*
X152692857Y-56826247D01*
X152692857Y-56826247D02*
X152597619Y-56778628D01*
X152597619Y-56778628D02*
X152407143Y-56731009D01*
X152407143Y-56731009D02*
X152311905Y-56683390D01*
X152311905Y-56683390D02*
X152264286Y-56635771D01*
X152264286Y-56635771D02*
X152216667Y-56540533D01*
X152216667Y-56540533D02*
X152216667Y-56445295D01*
X152216667Y-56445295D02*
X152264286Y-56350057D01*
X152264286Y-56350057D02*
X152311905Y-56302438D01*
X152311905Y-56302438D02*
X152407143Y-56254819D01*
X152407143Y-56254819D02*
X152645238Y-56254819D01*
X152645238Y-56254819D02*
X152788095Y-56302438D01*
X153121429Y-56254819D02*
X153359524Y-57254819D01*
X153359524Y-57254819D02*
X153550000Y-56540533D01*
X153550000Y-56540533D02*
X153740476Y-57254819D01*
X153740476Y-57254819D02*
X153978572Y-56254819D01*
X154788095Y-56588152D02*
X154788095Y-57254819D01*
X154550000Y-56207200D02*
X154311905Y-56921485D01*
X154311905Y-56921485D02*
X154930952Y-56921485D01*
%TO.C,SW5*%
D12*
X135590000Y-106537500D02*
X144410000Y-106537500D01*
X135590000Y-106847500D02*
X135590000Y-106537500D01*
X135590000Y-111057500D02*
X135590000Y-110747500D01*
X137500000Y-105837500D02*
X138000000Y-106337500D01*
X138000000Y-106337500D02*
X138500000Y-105837500D01*
X138500000Y-105837500D02*
X137500000Y-105837500D01*
X144410000Y-106537500D02*
X144410000Y-106847500D01*
X144410000Y-111057500D02*
X135590000Y-111057500D01*
X144410000Y-111057500D02*
X144410000Y-110747500D01*
%TO.C,R5*%
X138185436Y-81015000D02*
X138639564Y-81015000D01*
X138185436Y-82485000D02*
X138639564Y-82485000D01*
%TO.C,R1*%
X132522936Y-96265000D02*
X132977064Y-96265000D01*
X132522936Y-97735000D02*
X132977064Y-97735000D01*
%TO.C,U2*%
X138490000Y-97740000D02*
X142610000Y-97740000D01*
X138490000Y-97835000D02*
X138490000Y-97740000D01*
X138490000Y-102860000D02*
X138490000Y-102765000D01*
X142610000Y-97740000D02*
X142610000Y-97835000D01*
X142610000Y-102765000D02*
X142610000Y-102860000D01*
X142610000Y-102860000D02*
X138490000Y-102860000D01*
X137950000Y-97830000D02*
X137710000Y-97500000D01*
X138190000Y-97500000D01*
X137950000Y-97830000D01*
G36*
X137950000Y-97830000D02*
G01*
X137710000Y-97500000D01*
X138190000Y-97500000D01*
X137950000Y-97830000D01*
G37*
%TO.C,U1*%
D13*
X111610000Y-93371000D02*
X111610000Y-110516000D01*
X113515000Y-112421000D02*
X127485000Y-112421000D01*
D14*
X116002012Y-113974012D02*
X116001000Y-112430000D01*
X124497284Y-114474012D02*
X116502012Y-114474012D01*
X124998000Y-112433000D02*
X124997284Y-113974284D01*
D13*
X127485000Y-91466000D02*
X113515000Y-91466000D01*
X129390000Y-93371000D02*
X129390000Y-110516000D01*
X111610000Y-93371000D02*
G75*
G02*
X113515000Y-91466000I1905001J-1D01*
G01*
X113515000Y-112421000D02*
G75*
G02*
X111610000Y-110516000I0J1905000D01*
G01*
D14*
X116502012Y-114474012D02*
G75*
G02*
X116001988Y-113974012I-12J500012D01*
G01*
X124997284Y-113974284D02*
G75*
G02*
X124497284Y-114473984I-500084J384D01*
G01*
D13*
X127485000Y-91466000D02*
G75*
G02*
X129390000Y-93371000I-1J-1905001D01*
G01*
X129390000Y-110520000D02*
G75*
G02*
X127485000Y-112425000I-1905000J0D01*
G01*
D15*
X128651012Y-111294012D02*
G75*
G02*
X128147012Y-111294012I-252000J0D01*
G01*
X128147012Y-111294012D02*
G75*
G02*
X128651012Y-111294012I252000J0D01*
G01*
X129868012Y-112017012D02*
G75*
G02*
X129364012Y-112017012I-252000J0D01*
G01*
X129364012Y-112017012D02*
G75*
G02*
X129868012Y-112017012I252000J0D01*
G01*
%TO.C,SW1*%
D12*
X110250000Y-65000000D02*
X110250000Y-66500000D01*
X111500000Y-69000000D02*
X116000000Y-69000000D01*
X116000000Y-62500000D02*
X111500000Y-62500000D01*
X117250000Y-66500000D02*
X117250000Y-65000000D01*
%TO.C,C4*%
X137988748Y-91015000D02*
X138511252Y-91015000D01*
X137988748Y-92485000D02*
X138511252Y-92485000D01*
%TO.C,SW3*%
X135250000Y-65000000D02*
X135250000Y-66500000D01*
X136500000Y-69000000D02*
X141000000Y-69000000D01*
X141000000Y-62500000D02*
X136500000Y-62500000D01*
X142250000Y-66500000D02*
X142250000Y-65000000D01*
%TO.C,SW2*%
X122750000Y-65000000D02*
X122750000Y-66500000D01*
X124000000Y-69000000D02*
X128500000Y-69000000D01*
X128500000Y-62500000D02*
X124000000Y-62500000D01*
X129750000Y-66500000D02*
X129750000Y-65000000D01*
%TO.C,J1*%
X152190000Y-104540000D02*
X152190000Y-112360000D01*
X152190000Y-106140000D02*
X153110000Y-106140000D01*
X152190000Y-112360000D02*
X158310000Y-112360000D01*
X153110000Y-104540000D02*
X152190000Y-104540000D01*
X153110000Y-106140000D02*
X153110000Y-104540000D01*
X153390000Y-106140000D02*
X153110000Y-106140000D01*
X153390000Y-106140000D02*
X153390000Y-104925000D01*
X153450000Y-110100000D02*
X153450000Y-112360000D01*
X153950000Y-110100000D02*
X153950000Y-112360000D01*
X154750000Y-108000000D02*
X155750000Y-108000000D01*
X154750000Y-112360000D02*
X154750000Y-108000000D01*
X155750000Y-108000000D02*
X155750000Y-112360000D01*
X157390000Y-104540000D02*
X157390000Y-106140000D01*
X157390000Y-106140000D02*
X157110000Y-106140000D01*
X158310000Y-104540000D02*
X157390000Y-104540000D01*
X158310000Y-106140000D02*
X157390000Y-106140000D01*
X158310000Y-112360000D02*
X158310000Y-104540000D01*
X152950000Y-108500000D02*
X153950000Y-108500000D01*
X153950000Y-110100000D01*
X152950000Y-110100000D01*
X152950000Y-108500000D01*
X156550000Y-108500000D02*
X157550000Y-108500000D01*
X157550000Y-110100000D01*
X156550000Y-110100000D01*
X156550000Y-108500000D01*
%TO.C,C3*%
X122009996Y-86402000D02*
X122009996Y-85598000D01*
X122049996Y-86633000D02*
X122049996Y-85367000D01*
X122089996Y-86801000D02*
X122089996Y-85199000D01*
X122129996Y-86939000D02*
X122129996Y-85061000D01*
X122169996Y-87058000D02*
X122169996Y-84942000D01*
X122209996Y-87165000D02*
X122209996Y-84835000D01*
X122249996Y-87261000D02*
X122249996Y-84739000D01*
X122289996Y-87350000D02*
X122289996Y-84650000D01*
X122329996Y-87432000D02*
X122329996Y-84568000D01*
X122369996Y-87509000D02*
X122369996Y-84491000D01*
X122409996Y-87581000D02*
X122409996Y-84419000D01*
X122449996Y-87649000D02*
X122449996Y-84351000D01*
X122489996Y-87714000D02*
X122489996Y-84286000D01*
X122529996Y-87775000D02*
X122529996Y-84225000D01*
X122569996Y-87834000D02*
X122569996Y-84166000D01*
X122609996Y-87890000D02*
X122609996Y-84110000D01*
X122649996Y-87943000D02*
X122649996Y-84057000D01*
X122689996Y-87995000D02*
X122689996Y-84005000D01*
X122729996Y-88044000D02*
X122729996Y-83956000D01*
X122769996Y-88091000D02*
X122769996Y-83909000D01*
X122809996Y-88137000D02*
X122809996Y-83863000D01*
X122849996Y-88181000D02*
X122849996Y-83819000D01*
X122889996Y-88223000D02*
X122889996Y-83777000D01*
X122929996Y-88264000D02*
X122929996Y-83736000D01*
X122969996Y-84960000D02*
X122969996Y-83696000D01*
X122969996Y-88304000D02*
X122969996Y-87040000D01*
X123009996Y-84960000D02*
X123009996Y-83658000D01*
X123009996Y-88342000D02*
X123009996Y-87040000D01*
X123049996Y-84960000D02*
X123049996Y-83621000D01*
X123049996Y-88379000D02*
X123049996Y-87040000D01*
X123089996Y-84960000D02*
X123089996Y-83585000D01*
X123089996Y-88415000D02*
X123089996Y-87040000D01*
X123129996Y-84960000D02*
X123129996Y-83550000D01*
X123129996Y-88450000D02*
X123129996Y-87040000D01*
X123169996Y-84960000D02*
X123169996Y-83517000D01*
X123169996Y-88483000D02*
X123169996Y-87040000D01*
X123209996Y-84960000D02*
X123209996Y-83484000D01*
X123209996Y-88516000D02*
X123209996Y-87040000D01*
X123249996Y-84960000D02*
X123249996Y-83453000D01*
X123249996Y-88547000D02*
X123249996Y-87040000D01*
X123289996Y-84960000D02*
X123289996Y-83423000D01*
X123289996Y-88577000D02*
X123289996Y-87040000D01*
X123329996Y-84960000D02*
X123329996Y-83393000D01*
X123329996Y-88607000D02*
X123329996Y-87040000D01*
X123369996Y-84960000D02*
X123369996Y-83364000D01*
X123369996Y-88636000D02*
X123369996Y-87040000D01*
X123409996Y-84960000D02*
X123409996Y-83337000D01*
X123409996Y-88663000D02*
X123409996Y-87040000D01*
X123449996Y-84960000D02*
X123449996Y-83310000D01*
X123449996Y-88690000D02*
X123449996Y-87040000D01*
X123489996Y-84960000D02*
X123489996Y-83284000D01*
X123489996Y-88716000D02*
X123489996Y-87040000D01*
X123529996Y-84960000D02*
X123529996Y-83259000D01*
X123529996Y-88741000D02*
X123529996Y-87040000D01*
X123569996Y-84960000D02*
X123569996Y-83235000D01*
X123569996Y-88765000D02*
X123569996Y-87040000D01*
X123609996Y-84960000D02*
X123609996Y-83211000D01*
X123609996Y-88789000D02*
X123609996Y-87040000D01*
X123649996Y-84960000D02*
X123649996Y-83188000D01*
X123649996Y-88812000D02*
X123649996Y-87040000D01*
X123689996Y-84960000D02*
X123689996Y-83166000D01*
X123689996Y-88834000D02*
X123689996Y-87040000D01*
X123729996Y-84960000D02*
X123729996Y-83145000D01*
X123729996Y-88855000D02*
X123729996Y-87040000D01*
X123769996Y-84960000D02*
X123769996Y-83124000D01*
X123769996Y-88876000D02*
X123769996Y-87040000D01*
X123809996Y-84960000D02*
X123809996Y-83104000D01*
X123809996Y-88896000D02*
X123809996Y-87040000D01*
X123849996Y-84960000D02*
X123849996Y-83085000D01*
X123849996Y-88915000D02*
X123849996Y-87040000D01*
X123889996Y-84960000D02*
X123889996Y-83066000D01*
X123889996Y-88934000D02*
X123889996Y-87040000D01*
X123929996Y-84960000D02*
X123929996Y-83048000D01*
X123929996Y-88952000D02*
X123929996Y-87040000D01*
X123969996Y-84960000D02*
X123969996Y-83031000D01*
X123969996Y-88969000D02*
X123969996Y-87040000D01*
X124009996Y-84960000D02*
X124009996Y-83014000D01*
X124009996Y-88986000D02*
X124009996Y-87040000D01*
X124049996Y-84960000D02*
X124049996Y-82998000D01*
X124049996Y-89002000D02*
X124049996Y-87040000D01*
X124089996Y-84960000D02*
X124089996Y-82983000D01*
X124089996Y-89017000D02*
X124089996Y-87040000D01*
X124129996Y-84960000D02*
X124129996Y-82968000D01*
X124129996Y-89032000D02*
X124129996Y-87040000D01*
X124169996Y-84960000D02*
X124169996Y-82953000D01*
X124169996Y-89047000D02*
X124169996Y-87040000D01*
X124209996Y-84960000D02*
X124209996Y-82940000D01*
X124209996Y-89060000D02*
X124209996Y-87040000D01*
X124249996Y-84960000D02*
X124249996Y-82927000D01*
X124249996Y-89073000D02*
X124249996Y-87040000D01*
X124289996Y-84960000D02*
X124289996Y-82914000D01*
X124289996Y-89086000D02*
X124289996Y-87040000D01*
X124329996Y-84960000D02*
X124329996Y-82902000D01*
X124329996Y-89098000D02*
X124329996Y-87040000D01*
X124369996Y-84960000D02*
X124369996Y-82891000D01*
X124369996Y-89109000D02*
X124369996Y-87040000D01*
X124409996Y-84960000D02*
X124409996Y-82880000D01*
X124409996Y-89120000D02*
X124409996Y-87040000D01*
X124449996Y-84960000D02*
X124449996Y-82869000D01*
X124449996Y-89131000D02*
X124449996Y-87040000D01*
X124489996Y-84960000D02*
X124489996Y-82860000D01*
X124489996Y-89140000D02*
X124489996Y-87040000D01*
X124529996Y-84960000D02*
X124529996Y-82850000D01*
X124529996Y-89150000D02*
X124529996Y-87040000D01*
X124569996Y-84960000D02*
X124569996Y-82841000D01*
X124569996Y-89159000D02*
X124569996Y-87040000D01*
X124609996Y-84960000D02*
X124609996Y-82833000D01*
X124609996Y-89167000D02*
X124609996Y-87040000D01*
X124649996Y-84960000D02*
X124649996Y-82826000D01*
X124649996Y-89174000D02*
X124649996Y-87040000D01*
X124689996Y-84960000D02*
X124689996Y-82818000D01*
X124689996Y-89182000D02*
X124689996Y-87040000D01*
X124729996Y-84960000D02*
X124729996Y-82812000D01*
X124729996Y-89188000D02*
X124729996Y-87040000D01*
X124769996Y-84960000D02*
X124769996Y-82805000D01*
X124769996Y-89195000D02*
X124769996Y-87040000D01*
X124809996Y-84960000D02*
X124809996Y-82800000D01*
X124809996Y-89200000D02*
X124809996Y-87040000D01*
X124849996Y-84960000D02*
X124849996Y-82795000D01*
X124849996Y-89205000D02*
X124849996Y-87040000D01*
X124889996Y-84960000D02*
X124889996Y-82790000D01*
X124889996Y-89210000D02*
X124889996Y-87040000D01*
X124929996Y-84960000D02*
X124929996Y-82786000D01*
X124929996Y-89214000D02*
X124929996Y-87040000D01*
X124969996Y-84960000D02*
X124969996Y-82782000D01*
X124969996Y-89218000D02*
X124969996Y-87040000D01*
X125009996Y-84960000D02*
X125009996Y-82779000D01*
X125009996Y-89221000D02*
X125009996Y-87040000D01*
X125049996Y-89224000D02*
X125049996Y-82776000D01*
X125089996Y-89226000D02*
X125089996Y-82774000D01*
X125129996Y-89228000D02*
X125129996Y-82772000D01*
X125169996Y-89229000D02*
X125169996Y-82771000D01*
X125209996Y-89230000D02*
X125209996Y-82770000D01*
X125249996Y-89230000D02*
X125249996Y-82770000D01*
X128435237Y-88154000D02*
X128435237Y-87524000D01*
X128750237Y-87839000D02*
X128120237Y-87839000D01*
X128519996Y-86000000D02*
G75*
G02*
X121979996Y-86000000I-3270000J0D01*
G01*
X121979996Y-86000000D02*
G75*
G02*
X128519996Y-86000000I3270000J0D01*
G01*
%TO.C,R6*%
X137772936Y-85765000D02*
X138227064Y-85765000D01*
X137772936Y-87235000D02*
X138227064Y-87235000D01*
%TO.C,J2*%
X153850000Y-37500000D02*
X154350000Y-37500000D01*
X153850000Y-38700000D02*
X151850000Y-38700000D01*
X153850000Y-38700000D02*
X153850000Y-37500000D01*
X153850000Y-41300000D02*
X151850000Y-41300000D01*
X153850000Y-47800000D02*
X153850000Y-41300000D01*
X153850000Y-52200000D02*
X153850000Y-51000000D01*
X154350000Y-35000000D02*
X159550000Y-35000000D01*
X154350000Y-37500000D02*
X154350000Y-35000000D01*
X159550000Y-35000000D02*
X159550000Y-37500000D01*
X159550000Y-37500000D02*
X160050000Y-37500000D01*
X160050000Y-37500000D02*
X160050000Y-40700000D01*
X160050000Y-43300000D02*
X160050000Y-52200000D01*
X160050000Y-52200000D02*
X153850000Y-52200000D01*
%TO.C,D2*%
X162127500Y-102830000D02*
X162127500Y-104750000D01*
X162127500Y-104750000D02*
X164812500Y-104750000D01*
X164812500Y-102830000D02*
X162127500Y-102830000D01*
%TO.C,R4*%
X132522936Y-81015000D02*
X132977064Y-81015000D01*
X132522936Y-82485000D02*
X132977064Y-82485000D01*
%TO.C,C1*%
X113759996Y-86402000D02*
X113759996Y-85598000D01*
X113799996Y-86633000D02*
X113799996Y-85367000D01*
X113839996Y-86801000D02*
X113839996Y-85199000D01*
X113879996Y-86939000D02*
X113879996Y-85061000D01*
X113919996Y-87058000D02*
X113919996Y-84942000D01*
X113959996Y-87165000D02*
X113959996Y-84835000D01*
X113999996Y-87261000D02*
X113999996Y-84739000D01*
X114039996Y-87350000D02*
X114039996Y-84650000D01*
X114079996Y-87432000D02*
X114079996Y-84568000D01*
X114119996Y-87509000D02*
X114119996Y-84491000D01*
X114159996Y-87581000D02*
X114159996Y-84419000D01*
X114199996Y-87649000D02*
X114199996Y-84351000D01*
X114239996Y-87714000D02*
X114239996Y-84286000D01*
X114279996Y-87775000D02*
X114279996Y-84225000D01*
X114319996Y-87834000D02*
X114319996Y-84166000D01*
X114359996Y-87890000D02*
X114359996Y-84110000D01*
X114399996Y-87943000D02*
X114399996Y-84057000D01*
X114439996Y-87995000D02*
X114439996Y-84005000D01*
X114479996Y-88044000D02*
X114479996Y-83956000D01*
X114519996Y-88091000D02*
X114519996Y-83909000D01*
X114559996Y-88137000D02*
X114559996Y-83863000D01*
X114599996Y-88181000D02*
X114599996Y-83819000D01*
X114639996Y-88223000D02*
X114639996Y-83777000D01*
X114679996Y-88264000D02*
X114679996Y-83736000D01*
X114719996Y-84960000D02*
X114719996Y-83696000D01*
X114719996Y-88304000D02*
X114719996Y-87040000D01*
X114759996Y-84960000D02*
X114759996Y-83658000D01*
X114759996Y-88342000D02*
X114759996Y-87040000D01*
X114799996Y-84960000D02*
X114799996Y-83621000D01*
X114799996Y-88379000D02*
X114799996Y-87040000D01*
X114839996Y-84960000D02*
X114839996Y-83585000D01*
X114839996Y-88415000D02*
X114839996Y-87040000D01*
X114879996Y-84960000D02*
X114879996Y-83550000D01*
X114879996Y-88450000D02*
X114879996Y-87040000D01*
X114919996Y-84960000D02*
X114919996Y-83517000D01*
X114919996Y-88483000D02*
X114919996Y-87040000D01*
X114959996Y-84960000D02*
X114959996Y-83484000D01*
X114959996Y-88516000D02*
X114959996Y-87040000D01*
X114999996Y-84960000D02*
X114999996Y-83453000D01*
X114999996Y-88547000D02*
X114999996Y-87040000D01*
X115039996Y-84960000D02*
X115039996Y-83423000D01*
X115039996Y-88577000D02*
X115039996Y-87040000D01*
X115079996Y-84960000D02*
X115079996Y-83393000D01*
X115079996Y-88607000D02*
X115079996Y-87040000D01*
X115119996Y-84960000D02*
X115119996Y-83364000D01*
X115119996Y-88636000D02*
X115119996Y-87040000D01*
X115159996Y-84960000D02*
X115159996Y-83337000D01*
X115159996Y-88663000D02*
X115159996Y-87040000D01*
X115199996Y-84960000D02*
X115199996Y-83310000D01*
X115199996Y-88690000D02*
X115199996Y-87040000D01*
X115239996Y-84960000D02*
X115239996Y-83284000D01*
X115239996Y-88716000D02*
X115239996Y-87040000D01*
X115279996Y-84960000D02*
X115279996Y-83259000D01*
X115279996Y-88741000D02*
X115279996Y-87040000D01*
X115319996Y-84960000D02*
X115319996Y-83235000D01*
X115319996Y-88765000D02*
X115319996Y-87040000D01*
X115359996Y-84960000D02*
X115359996Y-83211000D01*
X115359996Y-88789000D02*
X115359996Y-87040000D01*
X115399996Y-84960000D02*
X115399996Y-83188000D01*
X115399996Y-88812000D02*
X115399996Y-87040000D01*
X115439996Y-84960000D02*
X115439996Y-83166000D01*
X115439996Y-88834000D02*
X115439996Y-87040000D01*
X115479996Y-84960000D02*
X115479996Y-83145000D01*
X115479996Y-88855000D02*
X115479996Y-87040000D01*
X115519996Y-84960000D02*
X115519996Y-83124000D01*
X115519996Y-88876000D02*
X115519996Y-87040000D01*
X115559996Y-84960000D02*
X115559996Y-83104000D01*
X115559996Y-88896000D02*
X115559996Y-87040000D01*
X115599996Y-84960000D02*
X115599996Y-83085000D01*
X115599996Y-88915000D02*
X115599996Y-87040000D01*
X115639996Y-84960000D02*
X115639996Y-83066000D01*
X115639996Y-88934000D02*
X115639996Y-87040000D01*
X115679996Y-84960000D02*
X115679996Y-83048000D01*
X115679996Y-88952000D02*
X115679996Y-87040000D01*
X115719996Y-84960000D02*
X115719996Y-83031000D01*
X115719996Y-88969000D02*
X115719996Y-87040000D01*
X115759996Y-84960000D02*
X115759996Y-83014000D01*
X115759996Y-88986000D02*
X115759996Y-87040000D01*
X115799996Y-84960000D02*
X115799996Y-82998000D01*
X115799996Y-89002000D02*
X115799996Y-87040000D01*
X115839996Y-84960000D02*
X115839996Y-82983000D01*
X115839996Y-89017000D02*
X115839996Y-87040000D01*
X115879996Y-84960000D02*
X115879996Y-82968000D01*
X115879996Y-89032000D02*
X115879996Y-87040000D01*
X115919996Y-84960000D02*
X115919996Y-82953000D01*
X115919996Y-89047000D02*
X115919996Y-87040000D01*
X115959996Y-84960000D02*
X115959996Y-82940000D01*
X115959996Y-89060000D02*
X115959996Y-87040000D01*
X115999996Y-84960000D02*
X115999996Y-82927000D01*
X115999996Y-89073000D02*
X115999996Y-87040000D01*
X116039996Y-84960000D02*
X116039996Y-82914000D01*
X116039996Y-89086000D02*
X116039996Y-87040000D01*
X116079996Y-84960000D02*
X116079996Y-82902000D01*
X116079996Y-89098000D02*
X116079996Y-87040000D01*
X116119996Y-84960000D02*
X116119996Y-82891000D01*
X116119996Y-89109000D02*
X116119996Y-87040000D01*
X116159996Y-84960000D02*
X116159996Y-82880000D01*
X116159996Y-89120000D02*
X116159996Y-87040000D01*
X116199996Y-84960000D02*
X116199996Y-82869000D01*
X116199996Y-89131000D02*
X116199996Y-87040000D01*
X116239996Y-84960000D02*
X116239996Y-82860000D01*
X116239996Y-89140000D02*
X116239996Y-87040000D01*
X116279996Y-84960000D02*
X116279996Y-82850000D01*
X116279996Y-89150000D02*
X116279996Y-87040000D01*
X116319996Y-84960000D02*
X116319996Y-82841000D01*
X116319996Y-89159000D02*
X116319996Y-87040000D01*
X116359996Y-84960000D02*
X116359996Y-82833000D01*
X116359996Y-89167000D02*
X116359996Y-87040000D01*
X116399996Y-84960000D02*
X116399996Y-82826000D01*
X116399996Y-89174000D02*
X116399996Y-87040000D01*
X116439996Y-84960000D02*
X116439996Y-82818000D01*
X116439996Y-89182000D02*
X116439996Y-87040000D01*
X116479996Y-84960000D02*
X116479996Y-82812000D01*
X116479996Y-89188000D02*
X116479996Y-87040000D01*
X116519996Y-84960000D02*
X116519996Y-82805000D01*
X116519996Y-89195000D02*
X116519996Y-87040000D01*
X116559996Y-84960000D02*
X116559996Y-82800000D01*
X116559996Y-89200000D02*
X116559996Y-87040000D01*
X116599996Y-84960000D02*
X116599996Y-82795000D01*
X116599996Y-89205000D02*
X116599996Y-87040000D01*
X116639996Y-84960000D02*
X116639996Y-82790000D01*
X116639996Y-89210000D02*
X116639996Y-87040000D01*
X116679996Y-84960000D02*
X116679996Y-82786000D01*
X116679996Y-89214000D02*
X116679996Y-87040000D01*
X116719996Y-84960000D02*
X116719996Y-82782000D01*
X116719996Y-89218000D02*
X116719996Y-87040000D01*
X116759996Y-84960000D02*
X116759996Y-82779000D01*
X116759996Y-89221000D02*
X116759996Y-87040000D01*
X116799996Y-89224000D02*
X116799996Y-82776000D01*
X116839996Y-89226000D02*
X116839996Y-82774000D01*
X116879996Y-89228000D02*
X116879996Y-82772000D01*
X116919996Y-89229000D02*
X116919996Y-82771000D01*
X116959996Y-89230000D02*
X116959996Y-82770000D01*
X116999996Y-89230000D02*
X116999996Y-82770000D01*
X120185237Y-88154000D02*
X120185237Y-87524000D01*
X120500237Y-87839000D02*
X119870237Y-87839000D01*
X120269996Y-86000000D02*
G75*
G02*
X113729996Y-86000000I-3270000J0D01*
G01*
X113729996Y-86000000D02*
G75*
G02*
X120269996Y-86000000I3270000J0D01*
G01*
%TO.C,R2*%
X132522936Y-91265000D02*
X132977064Y-91265000D01*
X132522936Y-92735000D02*
X132977064Y-92735000D01*
%TO.C,J3*%
X109870000Y-40330000D02*
X111250000Y-40330000D01*
X109870000Y-41710000D02*
X109870000Y-40330000D01*
X109870000Y-42980000D02*
X109870000Y-50710000D01*
X109870000Y-42980000D02*
X112630000Y-42980000D01*
X109870000Y-50710000D02*
X112630000Y-50710000D01*
X112630000Y-42980000D02*
X112630000Y-50710000D01*
%TO.C,C2*%
X117692376Y-78652000D02*
X117692376Y-77848000D01*
X117732376Y-78883000D02*
X117732376Y-77617000D01*
X117772376Y-79051000D02*
X117772376Y-77449000D01*
X117812376Y-79189000D02*
X117812376Y-77311000D01*
X117852376Y-79308000D02*
X117852376Y-77192000D01*
X117892376Y-79415000D02*
X117892376Y-77085000D01*
X117932376Y-79511000D02*
X117932376Y-76989000D01*
X117972376Y-79600000D02*
X117972376Y-76900000D01*
X118012376Y-79682000D02*
X118012376Y-76818000D01*
X118052376Y-79759000D02*
X118052376Y-76741000D01*
X118092376Y-79831000D02*
X118092376Y-76669000D01*
X118132376Y-79899000D02*
X118132376Y-76601000D01*
X118172376Y-79964000D02*
X118172376Y-76536000D01*
X118212376Y-80025000D02*
X118212376Y-76475000D01*
X118252376Y-80084000D02*
X118252376Y-76416000D01*
X118292376Y-80140000D02*
X118292376Y-76360000D01*
X118332376Y-80193000D02*
X118332376Y-76307000D01*
X118372376Y-80245000D02*
X118372376Y-76255000D01*
X118412376Y-80294000D02*
X118412376Y-76206000D01*
X118452376Y-80341000D02*
X118452376Y-76159000D01*
X118492376Y-80387000D02*
X118492376Y-76113000D01*
X118532376Y-80431000D02*
X118532376Y-76069000D01*
X118572376Y-80473000D02*
X118572376Y-76027000D01*
X118612376Y-80514000D02*
X118612376Y-75986000D01*
X118652376Y-77210000D02*
X118652376Y-75946000D01*
X118652376Y-80554000D02*
X118652376Y-79290000D01*
X118692376Y-77210000D02*
X118692376Y-75908000D01*
X118692376Y-80592000D02*
X118692376Y-79290000D01*
X118732376Y-77210000D02*
X118732376Y-75871000D01*
X118732376Y-80629000D02*
X118732376Y-79290000D01*
X118772376Y-77210000D02*
X118772376Y-75835000D01*
X118772376Y-80665000D02*
X118772376Y-79290000D01*
X118812376Y-77210000D02*
X118812376Y-75800000D01*
X118812376Y-80700000D02*
X118812376Y-79290000D01*
X118852376Y-77210000D02*
X118852376Y-75767000D01*
X118852376Y-80733000D02*
X118852376Y-79290000D01*
X118892376Y-77210000D02*
X118892376Y-75734000D01*
X118892376Y-80766000D02*
X118892376Y-79290000D01*
X118932376Y-77210000D02*
X118932376Y-75703000D01*
X118932376Y-80797000D02*
X118932376Y-79290000D01*
X118972376Y-77210000D02*
X118972376Y-75673000D01*
X118972376Y-80827000D02*
X118972376Y-79290000D01*
X119012376Y-77210000D02*
X119012376Y-75643000D01*
X119012376Y-80857000D02*
X119012376Y-79290000D01*
X119052376Y-77210000D02*
X119052376Y-75614000D01*
X119052376Y-80886000D02*
X119052376Y-79290000D01*
X119092376Y-77210000D02*
X119092376Y-75587000D01*
X119092376Y-80913000D02*
X119092376Y-79290000D01*
X119132376Y-77210000D02*
X119132376Y-75560000D01*
X119132376Y-80940000D02*
X119132376Y-79290000D01*
X119172376Y-77210000D02*
X119172376Y-75534000D01*
X119172376Y-80966000D02*
X119172376Y-79290000D01*
X119212376Y-77210000D02*
X119212376Y-75509000D01*
X119212376Y-80991000D02*
X119212376Y-79290000D01*
X119252376Y-77210000D02*
X119252376Y-75485000D01*
X119252376Y-81015000D02*
X119252376Y-79290000D01*
X119292376Y-77210000D02*
X119292376Y-75461000D01*
X119292376Y-81039000D02*
X119292376Y-79290000D01*
X119332376Y-77210000D02*
X119332376Y-75438000D01*
X119332376Y-81062000D02*
X119332376Y-79290000D01*
X119372376Y-77210000D02*
X119372376Y-75416000D01*
X119372376Y-81084000D02*
X119372376Y-79290000D01*
X119412376Y-77210000D02*
X119412376Y-75395000D01*
X119412376Y-81105000D02*
X119412376Y-79290000D01*
X119452376Y-77210000D02*
X119452376Y-75374000D01*
X119452376Y-81126000D02*
X119452376Y-79290000D01*
X119492376Y-77210000D02*
X119492376Y-75354000D01*
X119492376Y-81146000D02*
X119492376Y-79290000D01*
X119532376Y-77210000D02*
X119532376Y-75335000D01*
X119532376Y-81165000D02*
X119532376Y-79290000D01*
X119572376Y-77210000D02*
X119572376Y-75316000D01*
X119572376Y-81184000D02*
X119572376Y-79290000D01*
X119612376Y-77210000D02*
X119612376Y-75298000D01*
X119612376Y-81202000D02*
X119612376Y-79290000D01*
X119652376Y-77210000D02*
X119652376Y-75281000D01*
X119652376Y-81219000D02*
X119652376Y-79290000D01*
X119692376Y-77210000D02*
X119692376Y-75264000D01*
X119692376Y-81236000D02*
X119692376Y-79290000D01*
X119732376Y-77210000D02*
X119732376Y-75248000D01*
X119732376Y-81252000D02*
X119732376Y-79290000D01*
X119772376Y-77210000D02*
X119772376Y-75233000D01*
X119772376Y-81267000D02*
X119772376Y-79290000D01*
X119812376Y-77210000D02*
X119812376Y-75218000D01*
X119812376Y-81282000D02*
X119812376Y-79290000D01*
X119852376Y-77210000D02*
X119852376Y-75203000D01*
X119852376Y-81297000D02*
X119852376Y-79290000D01*
X119892376Y-77210000D02*
X119892376Y-75190000D01*
X119892376Y-81310000D02*
X119892376Y-79290000D01*
X119932376Y-77210000D02*
X119932376Y-75177000D01*
X119932376Y-81323000D02*
X119932376Y-79290000D01*
X119972376Y-77210000D02*
X119972376Y-75164000D01*
X119972376Y-81336000D02*
X119972376Y-79290000D01*
X120012376Y-77210000D02*
X120012376Y-75152000D01*
X120012376Y-81348000D02*
X120012376Y-79290000D01*
X120052376Y-77210000D02*
X120052376Y-75141000D01*
X120052376Y-81359000D02*
X120052376Y-79290000D01*
X120092376Y-77210000D02*
X120092376Y-75130000D01*
X120092376Y-81370000D02*
X120092376Y-79290000D01*
X120132376Y-77210000D02*
X120132376Y-75119000D01*
X120132376Y-81381000D02*
X120132376Y-79290000D01*
X120172376Y-77210000D02*
X120172376Y-75110000D01*
X120172376Y-81390000D02*
X120172376Y-79290000D01*
X120212376Y-77210000D02*
X120212376Y-75100000D01*
X120212376Y-81400000D02*
X120212376Y-79290000D01*
X120252376Y-77210000D02*
X120252376Y-75091000D01*
X120252376Y-81409000D02*
X120252376Y-79290000D01*
X120292376Y-77210000D02*
X120292376Y-75083000D01*
X120292376Y-81417000D02*
X120292376Y-79290000D01*
X120332376Y-77210000D02*
X120332376Y-75076000D01*
X120332376Y-81424000D02*
X120332376Y-79290000D01*
X120372376Y-77210000D02*
X120372376Y-75068000D01*
X120372376Y-81432000D02*
X120372376Y-79290000D01*
X120412376Y-77210000D02*
X120412376Y-75062000D01*
X120412376Y-81438000D02*
X120412376Y-79290000D01*
X120452376Y-77210000D02*
X120452376Y-75055000D01*
X120452376Y-81445000D02*
X120452376Y-79290000D01*
X120492376Y-77210000D02*
X120492376Y-75050000D01*
X120492376Y-81450000D02*
X120492376Y-79290000D01*
X120532376Y-77210000D02*
X120532376Y-75045000D01*
X120532376Y-81455000D02*
X120532376Y-79290000D01*
X120572376Y-77210000D02*
X120572376Y-75040000D01*
X120572376Y-81460000D02*
X120572376Y-79290000D01*
X120612376Y-77210000D02*
X120612376Y-75036000D01*
X120612376Y-81464000D02*
X120612376Y-79290000D01*
X120652376Y-77210000D02*
X120652376Y-75032000D01*
X120652376Y-81468000D02*
X120652376Y-79290000D01*
X120692376Y-77210000D02*
X120692376Y-75029000D01*
X120692376Y-81471000D02*
X120692376Y-79290000D01*
X120732376Y-81474000D02*
X120732376Y-75026000D01*
X120772376Y-81476000D02*
X120772376Y-75024000D01*
X120812376Y-81478000D02*
X120812376Y-75022000D01*
X120852376Y-81479000D02*
X120852376Y-75021000D01*
X120892376Y-81480000D02*
X120892376Y-75020000D01*
X120932376Y-81480000D02*
X120932376Y-75020000D01*
X124117617Y-80404000D02*
X124117617Y-79774000D01*
X124432617Y-80089000D02*
X123802617Y-80089000D01*
X124202376Y-78250000D02*
G75*
G02*
X117662376Y-78250000I-3270000J0D01*
G01*
X117662376Y-78250000D02*
G75*
G02*
X124202376Y-78250000I3270000J0D01*
G01*
%TO.C,R3*%
X132522936Y-86015000D02*
X132977064Y-86015000D01*
X132522936Y-87485000D02*
X132977064Y-87485000D01*
%TO.C,D1*%
X162127500Y-99790000D02*
X162127500Y-101710000D01*
X162127500Y-101710000D02*
X164812500Y-101710000D01*
X164812500Y-99790000D02*
X162127500Y-99790000D01*
%TO.C,SW4*%
X150450000Y-59900000D02*
X151050000Y-59900000D01*
X150750000Y-60200000D02*
X150450000Y-59900000D01*
X151050000Y-59900000D02*
X150750000Y-60200000D01*
X152150000Y-58100000D02*
X152150000Y-69900000D01*
X156250000Y-58100000D02*
X152150000Y-58100000D01*
X156250000Y-69900000D02*
X152150000Y-69900000D01*
X157750000Y-64000000D02*
X158750000Y-64000000D01*
X158250000Y-63500000D02*
X158250000Y-64500000D01*
X160250000Y-58100000D02*
X164350000Y-58100000D01*
X164350000Y-58100000D02*
X164350000Y-60500000D01*
X164350000Y-62700000D02*
X164350000Y-65300000D01*
X164350000Y-67500000D02*
X164350000Y-69900000D01*
X164350000Y-69900000D02*
X160250000Y-69900000D01*
X161250000Y-64000000D02*
G75*
G02*
X155250000Y-64000000I-3000000J0D01*
G01*
X155250000Y-64000000D02*
G75*
G02*
X161250000Y-64000000I3000000J0D01*
G01*
%TD*%
M02*
