%TF.GenerationSoftware,KiCad,Pcbnew,10.0.4*%
%TF.CreationDate,2026-08-21T15:58:06-07:00*%
%TF.ProjectId,musicplayer-frfr,6d757369-6370-46c6-9179-65722d667266,rev?*%
%TF.SameCoordinates,Original*%
%TF.FileFunction,Soldermask,Top*%
%TF.FilePolarity,Negative*%
%FSLAX46Y46*%
G04 Gerber Fmt 4.6, Leading zero omitted, Abs format (unit mm)*
G04 Created by KiCad (PCBNEW 10.0.4) date 2026-08-21 15:58:06*
%MOMM*%
%LPD*%
G01*
G04 APERTURE LIST*
G04 Aperture macros list*
%AMRoundRect*
0 Rectangle with rounded corners*
0 $1 Rounding radius*
0 $2 $3 $4 $5 $6 $7 $8 $9 X,Y pos of 4 corners*
0 Add a 4 corners polygon primitive as box body*
4,1,4,$2,$3,$4,$5,$6,$7,$8,$9,$2,$3,0*
0 Add four circle primitives for the rounded corners*
1,1,$1+$1,$2,$3*
1,1,$1+$1,$4,$5*
1,1,$1+$1,$6,$7*
1,1,$1+$1,$8,$9*
0 Add four rect primitives between the rounded corners*
20,1,$1+$1,$2,$3,$4,$5,0*
20,1,$1+$1,$4,$5,$6,$7,0*
20,1,$1+$1,$6,$7,$8,$9,0*
20,1,$1+$1,$8,$9,$2,$3,0*%
G04 Aperture macros list end*
%ADD10O,2.200000X3.500000*%
%ADD11R,1.500000X2.500000*%
%ADD12O,1.500000X2.500000*%
%ADD13RoundRect,0.250000X-0.262500X-0.450000X0.262500X-0.450000X0.262500X0.450000X-0.262500X0.450000X0*%
%ADD14RoundRect,0.150000X-0.825000X-0.150000X0.825000X-0.150000X0.825000X0.150000X-0.825000X0.150000X0*%
%ADD15R,2.410000X3.300000*%
%ADD16RoundRect,0.200000X-1.175000X-0.800000X1.175000X-0.800000X1.175000X0.800000X-1.175000X0.800000X0*%
%ADD17RoundRect,0.200000X1.175000X0.800000X-1.175000X0.800000X-1.175000X-0.800000X1.175000X-0.800000X0*%
%ADD18C,1.700000*%
%ADD19RoundRect,0.110000X0.440000X-1.140000X0.440000X1.140000X-0.440000X1.140000X-0.440000X-1.140000X0*%
%ADD20C,2.000000*%
%ADD21RoundRect,0.250000X-0.250000X-0.475000X0.250000X-0.475000X0.250000X0.475000X-0.250000X0.475000X0*%
%ADD22RoundRect,0.250000X-0.350000X-0.625000X0.350000X-0.625000X0.350000X0.625000X-0.350000X0.625000X0*%
%ADD23O,1.200000X1.750000*%
%ADD24RoundRect,0.250000X0.550000X0.550000X-0.550000X0.550000X-0.550000X-0.550000X0.550000X-0.550000X0*%
%ADD25C,1.600000*%
%ADD26R,2.800000X2.200000*%
%ADD27R,2.800000X2.800000*%
%ADD28RoundRect,0.243750X-0.243750X-0.456250X0.243750X-0.456250X0.243750X0.456250X-0.243750X0.456250X0*%
%ADD29C,1.524000*%
%ADD30R,1.700000X1.700000*%
%ADD31R,2.000000X2.000000*%
%ADD32R,3.200000X2.000000*%
G04 APERTURE END LIST*
D10*
%TO.C,SW5*%
X135900000Y-108797500D03*
X144100000Y-108797500D03*
D11*
X138000000Y-108797500D03*
D12*
X140000000Y-108797500D03*
X142000000Y-108797500D03*
%TD*%
D13*
%TO.C,R5*%
X137500000Y-81750000D03*
X139325000Y-81750000D03*
%TD*%
%TO.C,R1*%
X131837500Y-97000000D03*
X133662500Y-97000000D03*
%TD*%
D14*
%TO.C,U2*%
X138075000Y-98395000D03*
X138075000Y-99665000D03*
X138075000Y-100935000D03*
X138075000Y-102205000D03*
X143025000Y-102205000D03*
X143025000Y-100935000D03*
X143025000Y-99665000D03*
X143025000Y-98395000D03*
D15*
X140550000Y-100300000D03*
%TD*%
D16*
%TO.C,U1*%
X128582500Y-109500000D03*
X128582500Y-106960000D03*
X128582500Y-104420000D03*
X128582500Y-101880000D03*
X128582500Y-99340000D03*
X128582500Y-96800000D03*
X128582500Y-94260000D03*
D17*
X112417500Y-94260000D03*
X112417500Y-96800000D03*
X112417500Y-99340000D03*
X112417500Y-101880000D03*
X112417500Y-104420000D03*
X112417500Y-106960000D03*
X112417500Y-109500000D03*
D18*
X115499006Y-105690000D03*
X115499006Y-103150000D03*
X115499006Y-100610000D03*
X115499006Y-98070000D03*
X125659006Y-98070000D03*
X125659006Y-100610000D03*
X125659006Y-103150000D03*
X125659006Y-105690000D03*
X121770000Y-110530000D03*
X119230000Y-110530000D03*
X121770000Y-107990000D03*
X119230000Y-107990000D03*
X121770000Y-105450000D03*
X119230000Y-105450000D03*
D19*
X121500000Y-96905189D03*
X119500000Y-96905189D03*
%TD*%
D20*
%TO.C,SW1*%
X117000000Y-68000000D03*
X110500000Y-68000000D03*
X117000000Y-63500000D03*
X110500000Y-63500000D03*
%TD*%
D21*
%TO.C,C4*%
X137300000Y-91750000D03*
X139200000Y-91750000D03*
%TD*%
D20*
%TO.C,SW3*%
X142000000Y-68000000D03*
X135500000Y-68000000D03*
X142000000Y-63500000D03*
X135500000Y-63500000D03*
%TD*%
%TO.C,SW2*%
X129500000Y-68000000D03*
X123000000Y-68000000D03*
X129500000Y-63500000D03*
X123000000Y-63500000D03*
%TD*%
D22*
%TO.C,J1*%
X154250000Y-106000000D03*
D23*
X156250000Y-106000000D03*
%TD*%
D24*
%TO.C,C3*%
X126499996Y-86000000D03*
D25*
X123999996Y-86000000D03*
%TD*%
D13*
%TO.C,R6*%
X137087500Y-86500000D03*
X138912500Y-86500000D03*
%TD*%
D18*
%TO.C,J2*%
X156950000Y-41100000D03*
X156950000Y-48100000D03*
D26*
X160650000Y-42000000D03*
X153250000Y-40000000D03*
D27*
X153250000Y-49400000D03*
%TD*%
D28*
%TO.C,D2*%
X162875000Y-103790000D03*
X164750000Y-103790000D03*
%TD*%
D13*
%TO.C,R4*%
X131837500Y-81750000D03*
X133662500Y-81750000D03*
%TD*%
D24*
%TO.C,C1*%
X118249996Y-86000000D03*
D25*
X115749996Y-86000000D03*
%TD*%
D13*
%TO.C,R2*%
X131837500Y-92000000D03*
X133662500Y-92000000D03*
%TD*%
D29*
%TO.C,U3*%
X145840000Y-93640000D03*
X148380000Y-93640000D03*
X150920000Y-93640000D03*
X153460000Y-93640000D03*
X156000000Y-93640000D03*
X158540000Y-93640000D03*
X161080000Y-93640000D03*
X163620000Y-93640000D03*
X163620000Y-75860000D03*
X161080000Y-75860000D03*
X158540000Y-75860000D03*
X156000000Y-75860000D03*
X153460000Y-75860000D03*
X150920000Y-75860000D03*
X148380000Y-75860000D03*
X145840000Y-75860000D03*
%TD*%
D30*
%TO.C,J3*%
X111250000Y-41710000D03*
D18*
X111250000Y-44250000D03*
X111250000Y-46790000D03*
X111250000Y-49330000D03*
%TD*%
D24*
%TO.C,C2*%
X122182376Y-78250000D03*
D25*
X119682376Y-78250000D03*
%TD*%
D13*
%TO.C,R3*%
X131837500Y-86750000D03*
X133662500Y-86750000D03*
%TD*%
D28*
%TO.C,D1*%
X162875000Y-100750000D03*
X164750000Y-100750000D03*
%TD*%
D31*
%TO.C,SW4*%
X150750000Y-61500000D03*
D20*
X150750000Y-66500000D03*
X150750000Y-64000000D03*
D32*
X158250000Y-58400000D03*
X158250000Y-69600000D03*
D20*
X165250000Y-66500000D03*
X165250000Y-61500000D03*
%TD*%
M02*
