%TF.GenerationSoftware,KiCad,Pcbnew,10.0.4*%
%TF.CreationDate,2026-08-19T21:13:38-07:00*%
%TF.ProjectId,musicplayer-frfr,6d757369-6370-46c6-9179-65722d667266,rev?*%
%TF.SameCoordinates,Original*%
%TF.FileFunction,Copper,L1,Top*%
%TF.FilePolarity,Positive*%
%FSLAX46Y46*%
G04 Gerber Fmt 4.6, Leading zero omitted, Abs format (unit mm)*
G04 Created by KiCad (PCBNEW 10.0.4) date 2026-08-19 21:13:38*
%MOMM*%
%LPD*%
G01*
G04 APERTURE LIST*
G04 Aperture macros list*
%AMRoundRect*
0 Rectangle with rounded corners*
0 $1 Rounding radius*
0 $2 $3 $4 $5 $6 $7 $8 $9 X,Y pos of 4 corners*
0 Add a 4 corners polygon primitive as box body*
4,1,4,$2,$3,$4,$5,$6,$7,$8,$9,$2,$3,0*
0 Add four circle primitives for the rounded corners*
1,1,$1+$1,$2,$3*
1,1,$1+$1,$4,$5*
1,1,$1+$1,$6,$7*
1,1,$1+$1,$8,$9*
0 Add four rect primitives between the rounded corners*
20,1,$1+$1,$2,$3,$4,$5,0*
20,1,$1+$1,$4,$5,$6,$7,0*
20,1,$1+$1,$6,$7,$8,$9,0*
20,1,$1+$1,$8,$9,$2,$3,0*%
G04 Aperture macros list end*
%TA.AperFunction,SMDPad,CuDef*%
%ADD10RoundRect,0.250000X-0.450000X0.262500X-0.450000X-0.262500X0.450000X-0.262500X0.450000X0.262500X0*%
%TD*%
%TA.AperFunction,SMDPad,CuDef*%
%ADD11RoundRect,0.243750X-0.243750X-0.456250X0.243750X-0.456250X0.243750X0.456250X-0.243750X0.456250X0*%
%TD*%
%TA.AperFunction,HeatsinkPad*%
%ADD12C,0.500000*%
%TD*%
%TA.AperFunction,HeatsinkPad*%
%ADD13R,2.410000X3.300000*%
%TD*%
%TA.AperFunction,SMDPad,CuDef*%
%ADD14RoundRect,0.150000X-0.825000X-0.150000X0.825000X-0.150000X0.825000X0.150000X-0.825000X0.150000X0*%
%TD*%
%TA.AperFunction,ComponentPad*%
%ADD15RoundRect,0.250000X-0.550000X-0.550000X0.550000X-0.550000X0.550000X0.550000X-0.550000X0.550000X0*%
%TD*%
%TA.AperFunction,ComponentPad*%
%ADD16C,1.600000*%
%TD*%
%TA.AperFunction,SMDPad,CuDef*%
%ADD17RoundRect,0.110000X-1.140000X-0.440000X1.140000X-0.440000X1.140000X0.440000X-1.140000X0.440000X0*%
%TD*%
%TA.AperFunction,SMDPad,CuDef*%
%ADD18C,1.700000*%
%TD*%
%TA.AperFunction,SMDPad,CuDef*%
%ADD19RoundRect,0.200000X0.800000X-1.175000X0.800000X1.175000X-0.800000X1.175000X-0.800000X-1.175000X0*%
%TD*%
%TA.AperFunction,SMDPad,CuDef*%
%ADD20RoundRect,0.200000X-0.800000X1.175000X-0.800000X-1.175000X0.800000X-1.175000X0.800000X1.175000X0*%
%TD*%
%TA.AperFunction,ComponentPad*%
%ADD21C,2.000000*%
%TD*%
%TA.AperFunction,SMDPad,CuDef*%
%ADD22RoundRect,0.250000X-0.475000X0.250000X-0.475000X-0.250000X0.475000X-0.250000X0.475000X0.250000X0*%
%TD*%
%TA.AperFunction,ComponentPad*%
%ADD23O,1.200000X1.750000*%
%TD*%
%TA.AperFunction,ComponentPad*%
%ADD24RoundRect,0.250000X-0.350000X-0.625000X0.350000X-0.625000X0.350000X0.625000X-0.350000X0.625000X0*%
%TD*%
%TA.AperFunction,SMDPad,CuDef*%
%ADD25R,2.800000X2.800000*%
%TD*%
%TA.AperFunction,SMDPad,CuDef*%
%ADD26R,2.800000X2.200000*%
%TD*%
%TA.AperFunction,ComponentPad*%
%ADD27C,1.524000*%
%TD*%
%TA.AperFunction,ComponentPad*%
%ADD28R,1.700000X1.700000*%
%TD*%
%TA.AperFunction,ComponentPad*%
%ADD29C,1.700000*%
%TD*%
%TA.AperFunction,ComponentPad*%
%ADD30R,3.200000X2.000000*%
%TD*%
%TA.AperFunction,ComponentPad*%
%ADD31R,2.000000X2.000000*%
%TD*%
%TA.AperFunction,ViaPad*%
%ADD32C,0.600000*%
%TD*%
%TA.AperFunction,Conductor*%
%ADD33C,0.200000*%
%TD*%
%TA.AperFunction,Conductor*%
%ADD34C,0.199800*%
%TD*%
G04 APERTURE END LIST*
D10*
%TO.P,R4,2*%
%TO.N,Net-(U3-RX)*%
X118450000Y-96075000D03*
%TO.P,R4,1*%
%TO.N,/XIAO_TX*%
X118450000Y-94250000D03*
%TD*%
%TO.P,R3,2*%
%TO.N,Net-(D2-K)*%
X121400000Y-96075000D03*
%TO.P,R3,1*%
%TO.N,GND*%
X121400000Y-94250000D03*
%TD*%
%TO.P,R2,2*%
%TO.N,Net-(D1-K)*%
X124350000Y-96075000D03*
%TO.P,R2,1*%
%TO.N,GND*%
X124350000Y-94250000D03*
%TD*%
%TO.P,R5,2*%
%TO.N,/SDA*%
X115500000Y-96075000D03*
%TO.P,R5,1*%
%TO.N,+3V3*%
X115500000Y-94250000D03*
%TD*%
%TO.P,R6,2*%
%TO.N,/SCL*%
X112550000Y-96075000D03*
%TO.P,R6,1*%
%TO.N,+3V3*%
X112550000Y-94250000D03*
%TD*%
%TO.P,R1,1*%
%TO.N,Net-(U2-PROG)*%
X127300000Y-94250000D03*
%TO.P,R1,2*%
%TO.N,GND*%
X127300000Y-96075000D03*
%TD*%
D11*
%TO.P,D2,2,A_2*%
%TO.N,/STDBY*%
X122250000Y-103250000D03*
%TO.P,D2,1,K_1*%
%TO.N,Net-(D2-K)*%
X120375000Y-103250000D03*
%TD*%
D12*
%TO.P,U2,9,EPAD_9*%
%TO.N,GND*%
X135250000Y-101950000D03*
X135250000Y-100750000D03*
X135250000Y-99550000D03*
D13*
X134550000Y-100750000D03*
D12*
X133850000Y-101950000D03*
X133850000Y-100750000D03*
X133850000Y-99550000D03*
D14*
%TO.P,U2,8,CE_8*%
X137025000Y-98845000D03*
%TO.P,U2,7,~{CHRG}_7*%
%TO.N,/CHRG*%
X137025000Y-100115000D03*
%TO.P,U2,6,~{STDBY}_6*%
%TO.N,/STDBY*%
X137025000Y-101385000D03*
%TO.P,U2,5,BAT_5*%
%TO.N,/VBAT*%
X137025000Y-102655000D03*
%TO.P,U2,4,V_{CC}_4*%
%TO.N,/VBUS*%
X132075000Y-102655000D03*
%TO.P,U2,3,GND_3*%
%TO.N,GND*%
X132075000Y-101385000D03*
%TO.P,U2,2,PROG_2*%
%TO.N,Net-(U2-PROG)*%
X132075000Y-100115000D03*
%TO.P,U2,1,TEMP_1*%
%TO.N,GND*%
X132075000Y-98845000D03*
%TD*%
D15*
%TO.P,C3,1*%
%TO.N,/VBUS*%
X157567621Y-93500000D03*
D16*
%TO.P,C3,2*%
%TO.N,GND*%
X160067621Y-93500000D03*
%TD*%
D17*
%TO.P,U1,30,GND_30*%
%TO.N,GND*%
X121874811Y-81750000D03*
%TO.P,U1,29,VBAT_29*%
%TO.N,/VBAT*%
X121874811Y-83750000D03*
D18*
%TO.P,U1,28,3V3_OUT_28*%
%TO.N,+3V3*%
X113330000Y-81480000D03*
%TO.P,U1,27,BOOT_27*%
%TO.N,unconnected-(U1-BOOT-Pad27)*%
X113330000Y-84020000D03*
%TO.P,U1,26,GND_26*%
%TO.N,GND*%
X110790000Y-81480000D03*
%TO.P,U1,25,EN_25*%
%TO.N,+3V3*%
X110790000Y-84020000D03*
%TO.P,U1,24,SWDCLK_24*%
%TO.N,unconnected-(U1-SWDCLK-Pad24)*%
X108250000Y-81480000D03*
%TO.P,U1,23,SWDIO_23*%
%TO.N,unconnected-(U1-SWDIO-Pad23)*%
X108250000Y-84020000D03*
%TO.P,U1,22,D18_22*%
%TO.N,unconnected-(U1-D18-Pad22)*%
X113090000Y-87909006D03*
%TO.P,U1,21,D17_21*%
%TO.N,unconnected-(U1-D17-Pad21)*%
X115630000Y-87909006D03*
%TO.P,U1,20,D16_20*%
%TO.N,unconnected-(U1-D16-Pad20)*%
X118170000Y-87909006D03*
%TO.P,U1,19,D15_19*%
%TO.N,unconnected-(U1-D15-Pad19)*%
X120710000Y-87909006D03*
%TO.P,U1,18,D14_18*%
%TO.N,/ENCODER_B*%
X120710000Y-77749006D03*
%TO.P,U1,17,D13_17*%
%TO.N,/ENCODER_A*%
X118170000Y-77749006D03*
%TO.P,U1,16,D12_16*%
%TO.N,/BUSY*%
X115630000Y-77749006D03*
%TO.P,U1,15,D11_15*%
%TO.N,/ENCODER_SWITCH*%
X113090000Y-77749006D03*
D19*
%TO.P,U1,14,VBUS_14*%
%TO.N,/VBUS*%
X109280000Y-74667500D03*
%TO.P,U1,13,GND_13*%
%TO.N,GND*%
X111820000Y-74667500D03*
%TO.P,U1,12,3V3_OUT_12*%
%TO.N,+3V3*%
X114360000Y-74667500D03*
%TO.P,U1,11,D10_11*%
%TO.N,unconnected-(U1-D10-Pad11)*%
X116900000Y-74667500D03*
%TO.P,U1,10,D9_10*%
%TO.N,unconnected-(U1-D9-Pad10)*%
X119440000Y-74667500D03*
%TO.P,U1,9,D8_9*%
%TO.N,unconnected-(U1-D8-Pad9)*%
X121980000Y-74667500D03*
%TO.P,U1,8,D7_8*%
%TO.N,/XIAO_TX*%
X124520000Y-74667500D03*
D20*
%TO.P,U1,7,D6_7*%
%TO.N,/XIAO_RX*%
X124520000Y-90832500D03*
%TO.P,U1,6,D5_6*%
%TO.N,/SCL*%
X121980000Y-90832500D03*
%TO.P,U1,5,D4_5*%
%TO.N,/SDA*%
X119440000Y-90832500D03*
%TO.P,U1,4,D3_4*%
%TO.N,unconnected-(U1-D3-Pad4)*%
X116900000Y-90832500D03*
%TO.P,U1,3,D2_3*%
%TO.N,/BACK*%
X114360000Y-90832500D03*
%TO.P,U1,2,D1_2*%
%TO.N,/NEXT*%
X111820000Y-90832500D03*
%TO.P,U1,1,D0_1*%
%TO.N,/PLAY*%
X109280000Y-90832500D03*
%TD*%
D21*
%TO.P,SW1,2,2_2*%
%TO.N,GND*%
X115400000Y-62250000D03*
X115400000Y-68750000D03*
%TO.P,SW1,1,1_1*%
%TO.N,/BACK*%
X110900000Y-62250000D03*
X110900000Y-68750000D03*
%TD*%
D22*
%TO.P,C4,2*%
%TO.N,GND*%
X115060000Y-100542500D03*
%TO.P,C4,1*%
%TO.N,/VBUS*%
X115060000Y-98642500D03*
%TD*%
D21*
%TO.P,SW3,2,2_2*%
%TO.N,GND*%
X132500000Y-62250000D03*
X132500000Y-68750000D03*
%TO.P,SW3,1,1_1*%
%TO.N,/NEXT*%
X128000000Y-62250000D03*
X128000000Y-68750000D03*
%TD*%
%TO.P,SW2,2,2_2*%
%TO.N,GND*%
X123950000Y-62250000D03*
X123950000Y-68750000D03*
%TO.P,SW2,1,1_1*%
%TO.N,/PLAY*%
X119450000Y-62250000D03*
X119450000Y-68750000D03*
%TD*%
D23*
%TO.P,J1,2,Pin_2_2*%
%TO.N,GND*%
X151500000Y-105500000D03*
D24*
%TO.P,J1,1,Pin_1_1*%
%TO.N,/VBAT*%
X149500000Y-105500000D03*
%TD*%
D25*
%TO.P,J2,T*%
%TO.N,/RIGHT*%
X155000000Y-49400000D03*
D26*
%TO.P,J2,S*%
%TO.N,GND*%
X155000000Y-40000000D03*
%TO.P,J2,R*%
%TO.N,/LEFT*%
X162400000Y-42000000D03*
%TD*%
D27*
%TO.P,U3,1,VCC_1*%
%TO.N,/VBUS*%
X134000000Y-76210000D03*
%TO.P,U3,2,RX_2*%
%TO.N,Net-(U3-RX)*%
X134000000Y-78750000D03*
%TO.P,U3,3,TX_3*%
%TO.N,/XIAO_RX*%
X134000000Y-81290000D03*
%TO.P,U3,4,DAC_R_4*%
%TO.N,Net-(U3-DAC_R)*%
X134000000Y-83830000D03*
%TO.P,U3,5,DAC_L_5*%
%TO.N,Net-(U3-DAC_L)*%
X134000000Y-86370000D03*
%TO.P,U3,6,SPK_1_6*%
%TO.N,unconnected-(U3-SPK_1-Pad6)*%
X134000000Y-88910000D03*
%TO.P,U3,7,GND_7*%
%TO.N,GND*%
X134000000Y-91450000D03*
%TO.P,U3,8,SPK_2_8*%
%TO.N,unconnected-(U3-SPK_2-Pad8)*%
X134000000Y-93990000D03*
%TO.P,U3,16,BUSY_16*%
%TO.N,/BUSY*%
X151780000Y-76210000D03*
%TO.P,U3,15,USB-_15*%
%TO.N,unconnected-(U3-USB--Pad15)*%
X151780000Y-78750000D03*
%TO.P,U3,14,USB+_14*%
%TO.N,unconnected-(U3-USB+-Pad14)*%
X151780000Y-81290000D03*
%TO.P,U3,13,ADKEY_2_13*%
%TO.N,unconnected-(U3-ADKEY_2-Pad13)*%
X151780000Y-83830000D03*
%TO.P,U3,12,ADKEY_1_12*%
%TO.N,unconnected-(U3-ADKEY_1-Pad12)*%
X151780000Y-86370000D03*
%TO.P,U3,11,IO_2_11*%
%TO.N,unconnected-(U3-IO_2-Pad11)*%
X151780000Y-88910000D03*
%TO.P,U3,10,GND_10*%
%TO.N,GND*%
X151780000Y-91450000D03*
%TO.P,U3,9,IO_1_9*%
%TO.N,unconnected-(U3-IO_1-Pad9)*%
X151780000Y-93990000D03*
%TD*%
D28*
%TO.P,J3,1,SDA_1*%
%TO.N,/SDA*%
X111250000Y-41710000D03*
D29*
%TO.P,J3,2,SCL_2*%
%TO.N,/SCL*%
X111250000Y-44250000D03*
%TO.P,J3,3,VCC_3*%
%TO.N,/VBUS*%
X111250000Y-46790000D03*
%TO.P,J3,4,GND_4*%
%TO.N,GND*%
X111250000Y-49330000D03*
%TD*%
D15*
%TO.P,C2,1*%
%TO.N,Net-(U3-DAC_R)*%
X157567621Y-85650000D03*
D16*
%TO.P,C2,2*%
%TO.N,/RIGHT*%
X160067621Y-85650000D03*
%TD*%
D15*
%TO.P,C1,1*%
%TO.N,Net-(U3-DAC_L)*%
X157567621Y-77800000D03*
D16*
%TO.P,C1,2*%
%TO.N,/LEFT*%
X160067621Y-77800000D03*
%TD*%
D11*
%TO.P,D1,2,A_2*%
%TO.N,/CHRG*%
X122250000Y-100210000D03*
%TO.P,D1,1,K_1*%
%TO.N,Net-(D1-K)*%
X120375000Y-100210000D03*
%TD*%
D21*
%TO.P,SW4,S2,S2_S2*%
%TO.N,GND*%
X152750000Y-61750000D03*
%TO.P,SW4,S1,S1_S1*%
%TO.N,/ENCODER_SWITCH*%
X152750000Y-66750000D03*
D30*
%TO.P,SW4,MP*%
%TO.N,N/C*%
X145750000Y-69850000D03*
X145750000Y-58650000D03*
D21*
%TO.P,SW4,C,C_C*%
%TO.N,GND*%
X138250000Y-64250000D03*
%TO.P,SW4,B,B_B*%
%TO.N,/ENCODER_B*%
X138250000Y-66750000D03*
D31*
%TO.P,SW4,A,A_A*%
%TO.N,/ENCODER_A*%
X138250000Y-61750000D03*
%TD*%
D32*
%TO.N,/BUSY*%
X130750000Y-76250000D03*
%TO.N,/SDA*%
X119400000Y-72700000D03*
%TO.N,/NEXT*%
X124100000Y-72700000D03*
%TO.N,/SCL*%
X107052000Y-92800000D03*
%TO.N,/BUSY*%
X120100000Y-80900000D03*
%TO.N,/PLAY*%
X122200000Y-66100000D03*
%TO.N,/STDBY*%
X136400000Y-101800000D03*
%TO.N,/NEXT*%
X118700000Y-83200000D03*
%TO.N,/ENCODER_B*%
X129700000Y-75200000D03*
%TO.N,/VBUS*%
X110200000Y-77500000D03*
%TO.N,/BUSY*%
X130200000Y-77500000D03*
%TO.N,/ENCODER_A*%
X126600000Y-75400000D03*
%TO.N,/ENCODER_SWITCH*%
X114800000Y-72700000D03*
%TO.N,/NEXT*%
X125600000Y-66100000D03*
%TO.N,/ENCODER_SWITCH*%
X120100000Y-65500000D03*
%TO.N,/PLAY*%
X117100000Y-76600000D03*
%TO.N,/VBUS*%
X136400000Y-77000000D03*
%TO.N,GND*%
X155000000Y-40000000D03*
%TO.N,/VBUS*%
X132500000Y-102300000D03*
%TO.N,/SDA*%
X119400000Y-78600000D03*
%TO.N,/ENCODER_B*%
X128800000Y-76100000D03*
%TO.N,/VBAT*%
X126200000Y-88200000D03*
%TO.N,GND*%
X115100000Y-100500000D03*
%TO.N,/SCL*%
X122100000Y-92200000D03*
%TO.N,/PLAY*%
X122200000Y-67400000D03*
%TO.N,/VBAT*%
X137700000Y-102800000D03*
%TO.N,/STDBY*%
X134100000Y-104100000D03*
%TO.N,/VBUS*%
X120300000Y-95100000D03*
%TO.N,/BACK*%
X114400000Y-89200000D03*
%TO.N,/VBUS*%
X136049265Y-97200735D03*
%TO.N,GND*%
X132500000Y-62250000D03*
%TO.N,/ENCODER_SWITCH*%
X118700000Y-65500000D03*
%TO.N,/VBUS*%
X137800000Y-86800000D03*
%TO.N,/BACK*%
X112300000Y-66300000D03*
%TO.N,/BUSY*%
X118100000Y-80300000D03*
%TO.N,GND*%
X121700000Y-88900000D03*
%TO.N,/VBAT*%
X139000000Y-102200000D03*
%TO.N,/SCL*%
X107052000Y-80100000D03*
%TO.N,/BACK*%
X111400000Y-65400000D03*
%TO.N,/VBAT*%
X128900000Y-90900000D03*
%TO.N,/BACK*%
X109500000Y-83300000D03*
%TO.N,/SCL*%
X120100000Y-96400000D03*
%TO.N,/ENCODER_A*%
X126600000Y-74000000D03*
%TO.N,Net-(U3-DAC_R)*%
X135500000Y-85000000D03*
%TO.N,/NEXT*%
X125600000Y-67400000D03*
%TO.N,GND*%
X123950000Y-62250000D03*
%TO.N,/ENCODER_SWITCH*%
X113700000Y-76600000D03*
%TD*%
%TO.N,/VBUS*%
D33*
X136049265Y-97200735D02*
X136049265Y-96350735D01*
X136049265Y-96350735D02*
X138900000Y-93500000D01*
%TO.N,Net-(D2-K)*%
X121400000Y-96075000D02*
X121400000Y-96100000D01*
%TO.N,/ENCODER_A*%
X126600000Y-74000000D02*
X126600000Y-72700000D01*
%TO.N,/XIAO_TX*%
X135000000Y-80700000D02*
X134200000Y-79900000D01*
%TO.N,/VBUS*%
X152900000Y-93500000D02*
X157600000Y-93500000D01*
%TO.N,/PLAY*%
X110400000Y-89700000D02*
X110400000Y-89400000D01*
%TO.N,/SDA*%
X119400000Y-91800000D02*
X116600000Y-94600000D01*
%TO.N,/PLAY*%
X119400000Y-68800000D02*
X120800000Y-67400000D01*
%TO.N,GND*%
X126700000Y-93300000D02*
X126200000Y-93800000D01*
%TO.N,/XIAO_TX*%
X133800000Y-82400000D02*
X134500000Y-82400000D01*
%TO.N,/BUSY*%
X115600000Y-77700000D02*
X115630000Y-77749006D01*
%TO.N,/VBAT*%
X121874811Y-83750000D02*
X121900000Y-83800000D01*
%TO.N,/SCL*%
X115800000Y-99500000D02*
X116200000Y-99100000D01*
%TO.N,/BUSY*%
X123300000Y-77700000D02*
X120100000Y-80900000D01*
%TO.N,/VBAT*%
X138400000Y-99200000D02*
X139000000Y-99800000D01*
X137600000Y-102700000D02*
X137000000Y-102700000D01*
%TO.N,/VBUS*%
X152400000Y-93000000D02*
X152900000Y-93500000D01*
X113100000Y-44400000D02*
X111700000Y-43000000D01*
%TO.N,/SDA*%
X118400000Y-69700000D02*
X119400000Y-70700000D01*
%TO.N,Net-(U3-RX)*%
X120700000Y-93300000D02*
X125400000Y-93300000D01*
%TO.N,/STDBY*%
X122200000Y-103200000D02*
X122250000Y-103250000D01*
%TO.N,/BACK*%
X110900000Y-67700000D02*
X112300000Y-66300000D01*
%TO.N,/XIAO_TX*%
X133300000Y-79700000D02*
X128300000Y-74700000D01*
%TO.N,GND*%
X121700000Y-88900000D02*
X121900000Y-88700000D01*
%TO.N,/XIAO_TX*%
X135000000Y-80800000D02*
X135000000Y-80700000D01*
%TO.N,Net-(U2-PROG)*%
X132075000Y-100115000D02*
X132100000Y-100100000D01*
%TO.N,/STDBY*%
X137025000Y-101385000D02*
X137000000Y-101400000D01*
%TO.N,+3V3*%
X114400000Y-80400000D02*
X114400000Y-74700000D01*
%TO.N,Net-(U2-PROG)*%
X127300000Y-94200000D02*
X127300000Y-94250000D01*
%TO.N,GND*%
X133000000Y-98800000D02*
X132100000Y-98800000D01*
%TO.N,/SCL*%
X112600000Y-96100000D02*
X112550000Y-96075000D01*
%TO.N,/XIAO_TX*%
X134200000Y-79900000D02*
X133700000Y-79900000D01*
%TO.N,+3V3*%
X109900000Y-94200000D02*
X112600000Y-94200000D01*
%TO.N,/XIAO_TX*%
X135100000Y-81800000D02*
X135100000Y-80900000D01*
%TO.N,GND*%
X136000000Y-98800000D02*
X137000000Y-98800000D01*
%TO.N,/XIAO_TX*%
X133400000Y-79700000D02*
X133300000Y-79700000D01*
%TO.N,/ENCODER_B*%
X129700000Y-75200000D02*
X138100000Y-66800000D01*
%TO.N,GND*%
X132100000Y-98800000D02*
X132075000Y-98845000D01*
%TO.N,/VBAT*%
X138000000Y-98100000D02*
X138400000Y-98500000D01*
%TO.N,/ENCODER_SWITCH*%
X113090000Y-77749006D02*
X113100000Y-77700000D01*
%TO.N,Net-(U2-PROG)*%
X128400000Y-96900000D02*
X128400000Y-95600000D01*
%TO.N,/ENCODER_A*%
X125600000Y-76400000D02*
X126600000Y-75400000D01*
%TO.N,/VBUS*%
X109300000Y-76600000D02*
X109300000Y-74700000D01*
%TO.N,Net-(U3-RX)*%
X118450000Y-96075000D02*
X118400000Y-96100000D01*
%TO.N,/NEXT*%
X113000000Y-89400000D02*
X113300000Y-89100000D01*
%TO.N,/SDA*%
X118100000Y-62700000D02*
X118200000Y-62800000D01*
%TO.N,/BUSY*%
X118100000Y-80300000D02*
X115600000Y-77800000D01*
%TO.N,GND*%
X126200000Y-94250000D02*
X126150000Y-94200000D01*
%TO.N,/VBUS*%
X125400000Y-96400000D02*
X125400000Y-95500000D01*
%TO.N,GND*%
X121500000Y-81800000D02*
X121900000Y-81800000D01*
%TO.N,/VBUS*%
X131100000Y-102100000D02*
X125400000Y-96400000D01*
%TO.N,/SDA*%
X111200000Y-41700000D02*
X118100000Y-48600000D01*
%TO.N,/VBAT*%
X138400000Y-98500000D02*
X138400000Y-99200000D01*
%TO.N,Net-(D2-K)*%
X120400000Y-101800000D02*
X120400000Y-103200000D01*
%TO.N,GND*%
X132100000Y-101400000D02*
X132075000Y-101385000D01*
X110800000Y-75700000D02*
X110800000Y-81500000D01*
%TO.N,/SDA*%
X118200000Y-68100000D02*
X118200000Y-68200000D01*
%TO.N,/STDBY*%
X136600000Y-101800000D02*
X136400000Y-101800000D01*
%TO.N,/SDA*%
X118100000Y-48600000D02*
X118100000Y-62700000D01*
%TO.N,/ENCODER_SWITCH*%
X130700000Y-66800000D02*
X137100000Y-60400000D01*
%TO.N,GND*%
X158017621Y-91450000D02*
X151780000Y-91450000D01*
%TO.N,Net-(U3-DAC_L)*%
X149900000Y-86100000D02*
X151300000Y-87500000D01*
%TO.N,Net-(U2-PROG)*%
X131500000Y-99500000D02*
X131000000Y-99500000D01*
%TO.N,GND*%
X135250000Y-99550000D02*
X135200000Y-99600000D01*
%TO.N,/BACK*%
X111500000Y-69600000D02*
X108000000Y-73100000D01*
%TO.N,GND*%
X115400000Y-68750000D02*
X115400000Y-68800000D01*
%TO.N,+3V3*%
X112600000Y-94200000D02*
X115500000Y-94200000D01*
%TO.N,/CHRG*%
X138300000Y-100900000D02*
X137500000Y-100100000D01*
%TO.N,GND*%
X126300000Y-94800000D02*
X126300000Y-94900000D01*
%TO.N,/VBUS*%
X110200000Y-77500000D02*
X109300000Y-76600000D01*
%TO.N,GND*%
X155000000Y-40000000D02*
X152750000Y-42250000D01*
%TO.N,/CHRG*%
X127800000Y-100100000D02*
X131000000Y-103300000D01*
%TO.N,/VBAT*%
X128900000Y-90900000D02*
X136100000Y-98100000D01*
%TO.N,Net-(U3-DAC_R)*%
X135500000Y-85000000D02*
X157000000Y-85000000D01*
%TO.N,GND*%
X125250000Y-60950000D02*
X123950000Y-62250000D01*
%TO.N,/PLAY*%
X119400000Y-63300000D02*
X119400000Y-62200000D01*
%TO.N,/ENCODER_SWITCH*%
X120100000Y-65500000D02*
X121400000Y-66800000D01*
%TO.N,/VBAT*%
X139000000Y-99800000D02*
X139000000Y-102200000D01*
%TO.N,/ENCODER_A*%
X137500000Y-61800000D02*
X138200000Y-61800000D01*
%TO.N,/VBUS*%
X132300000Y-102100000D02*
X131100000Y-102100000D01*
%TO.N,/XIAO_TX*%
X133500000Y-79800000D02*
X133400000Y-79700000D01*
%TO.N,/ENCODER_SWITCH*%
X117700000Y-66500000D02*
X118700000Y-65500000D01*
%TO.N,Net-(U3-RX)*%
X125400000Y-93300000D02*
X133700000Y-85000000D01*
%TO.N,/SDA*%
X118400000Y-69600000D02*
X118400000Y-69700000D01*
%TO.N,/VBUS*%
X138900000Y-93500000D02*
X139500000Y-92900000D01*
%TO.N,Net-(U3-DAC_L)*%
X134000000Y-86400000D02*
X134300000Y-86100000D01*
%TO.N,/VBUS*%
X111200000Y-45900000D02*
X111200000Y-46800000D01*
%TO.N,/SCL*%
X117500000Y-99100000D02*
X117600000Y-99000000D01*
%TO.N,/VBUS*%
X132075000Y-102655000D02*
X132100000Y-102700000D01*
%TO.N,/CHRG*%
X133400000Y-103300000D02*
X133600000Y-103500000D01*
%TO.N,/BUSY*%
X130000000Y-77700000D02*
X123300000Y-77700000D01*
%TO.N,/SDA*%
X115500000Y-96100000D02*
X115500000Y-96075000D01*
%TO.N,/NEXT*%
X111800000Y-90800000D02*
X113000000Y-89600000D01*
%TO.N,/VBUS*%
X119500000Y-96600000D02*
X117500000Y-98600000D01*
%TO.N,/SCL*%
X110300000Y-96100000D02*
X112600000Y-96100000D01*
%TO.N,/STDBY*%
X134100000Y-104100000D02*
X133900000Y-103900000D01*
%TO.N,/SCL*%
X122000000Y-92100000D02*
X122000000Y-90800000D01*
%TO.N,GND*%
X133800000Y-102000000D02*
X133200000Y-101400000D01*
%TO.N,/BACK*%
X107900000Y-79300000D02*
X109600000Y-81000000D01*
X114400000Y-90800000D02*
X114360000Y-90832500D01*
%TO.N,/VBUS*%
X113100000Y-68600000D02*
X113100000Y-44400000D01*
%TO.N,Net-(D2-K)*%
X119500000Y-99500000D02*
X119500000Y-100900000D01*
%TO.N,/SCL*%
X107000000Y-92800000D02*
X110300000Y-96100000D01*
%TO.N,/SDA*%
X118400000Y-63100000D02*
X118400000Y-63200000D01*
%TO.N,/BACK*%
X114400000Y-89200000D02*
X114400000Y-90800000D01*
%TO.N,/SDA*%
X119400000Y-70700000D02*
X119400000Y-72700000D01*
%TO.N,/NEXT*%
X113000000Y-89600000D02*
X113000000Y-89400000D01*
%TO.N,/VBAT*%
X136100000Y-98100000D02*
X138000000Y-98100000D01*
%TO.N,GND*%
X160067621Y-96682379D02*
X160067621Y-93500000D01*
%TO.N,/BACK*%
X110900000Y-68800000D02*
X111500000Y-69400000D01*
%TO.N,/CHRG*%
X137500000Y-100100000D02*
X137000000Y-100100000D01*
%TO.N,/PLAY*%
X122200000Y-66100000D02*
X119400000Y-63300000D01*
%TO.N,/STDBY*%
X137000000Y-101400000D02*
X136600000Y-101800000D01*
%TO.N,+3V3*%
X114400000Y-74700000D02*
X114360000Y-74667500D01*
%TO.N,Net-(U2-PROG)*%
X127300000Y-94500000D02*
X127300000Y-94200000D01*
%TO.N,/PLAY*%
X120800000Y-67400000D02*
X122200000Y-67400000D01*
%TO.N,/SDA*%
X119400000Y-66800000D02*
X118400000Y-67800000D01*
%TO.N,/XIAO_TX*%
X133700000Y-79900000D02*
X133600000Y-79800000D01*
%TO.N,/SDA*%
X119400000Y-78600000D02*
X119400000Y-90800000D01*
X118400000Y-67900000D02*
X118200000Y-68100000D01*
%TO.N,/SCL*%
X111200000Y-44200000D02*
X112600000Y-45600000D01*
%TO.N,/CHRG*%
X122200000Y-100200000D02*
X122300000Y-100100000D01*
%TO.N,Net-(U3-DAC_L)*%
X134300000Y-86100000D02*
X149900000Y-86100000D01*
%TO.N,GND*%
X120300000Y-84500000D02*
X120300000Y-83000000D01*
%TO.N,/PLAY*%
X111900000Y-87700000D02*
X111900000Y-87500000D01*
%TO.N,Net-(U3-RX)*%
X133700000Y-85000000D02*
X134400000Y-85000000D01*
X120400000Y-93600000D02*
X120700000Y-93300000D01*
%TO.N,/SDA*%
X119400000Y-64200000D02*
X119400000Y-66800000D01*
%TO.N,GND*%
X152750000Y-42250000D02*
X152750000Y-61750000D01*
%TO.N,/SDA*%
X118100000Y-68300000D02*
X118100000Y-69200000D01*
%TO.N,GND*%
X132100000Y-98800000D02*
X128800000Y-95500000D01*
%TO.N,/XIAO_TX*%
X135100000Y-80900000D02*
X135000000Y-80800000D01*
%TO.N,GND*%
X133200000Y-101400000D02*
X132100000Y-101400000D01*
%TO.N,/VBUS*%
X111700000Y-43000000D02*
X110800000Y-43000000D01*
%TO.N,GND*%
X121900000Y-88700000D02*
X121900000Y-86100000D01*
%TO.N,/VBUS*%
X137800000Y-92400000D02*
X137800000Y-86800000D01*
%TO.N,/SDA*%
X116500000Y-94900000D02*
X115500000Y-95900000D01*
%TO.N,GND*%
X126300000Y-94900000D02*
X127300000Y-95900000D01*
%TO.N,/PLAY*%
X118900000Y-80400000D02*
X118900000Y-80200000D01*
%TO.N,/ENCODER_B*%
X125800000Y-76800000D02*
X126500000Y-76100000D01*
%TO.N,/SDA*%
X119400000Y-90800000D02*
X119400000Y-91800000D01*
X115500000Y-95900000D02*
X115500000Y-96100000D01*
%TO.N,GND*%
X115400000Y-62250000D02*
X115400000Y-68750000D01*
%TO.N,/VBUS*%
X110800000Y-43000000D02*
X110100000Y-43700000D01*
%TO.N,/SDA*%
X118200000Y-62800000D02*
X118200000Y-62900000D01*
%TO.N,/VBUS*%
X152200000Y-92900000D02*
X152300000Y-93000000D01*
%TO.N,/SCL*%
X107000000Y-70700000D02*
X107000000Y-80100000D01*
%TO.N,/NEXT*%
X114500000Y-87300000D02*
X118600000Y-83200000D01*
%TO.N,GND*%
X127300000Y-95900000D02*
X127300000Y-96100000D01*
%TO.N,/NEXT*%
X114400000Y-88300000D02*
X114400000Y-87600000D01*
%TO.N,/CHRG*%
X137000000Y-100100000D02*
X137025000Y-100115000D01*
%TO.N,GND*%
X121400000Y-94200000D02*
X121400000Y-94250000D01*
%TO.N,/VBUS*%
X110500000Y-73200000D02*
X111200000Y-72500000D01*
%TO.N,/SCL*%
X112600000Y-65100000D02*
X107000000Y-70700000D01*
%TO.N,Net-(U3-DAC_R)*%
X157000000Y-85000000D02*
X157600000Y-85600000D01*
%TO.N,Net-(U3-DAC_L)*%
X161200000Y-86100000D02*
X161200000Y-81400000D01*
%TO.N,/BACK*%
X108000000Y-73100000D02*
X108000000Y-73200000D01*
%TO.N,/ENCODER_SWITCH*%
X121400000Y-66800000D02*
X130700000Y-66800000D01*
%TO.N,/NEXT*%
X125600000Y-66100000D02*
X128000000Y-63700000D01*
%TO.N,/VBUS*%
X110100000Y-43700000D02*
X110100000Y-44800000D01*
%TO.N,/SCL*%
X116200000Y-99100000D02*
X117500000Y-99100000D01*
%TO.N,/NEXT*%
X113700000Y-89000000D02*
X114400000Y-88300000D01*
X124100000Y-72700000D02*
X128000000Y-68800000D01*
%TO.N,GND*%
X128800000Y-94100000D02*
X128000000Y-93300000D01*
%TO.N,/NEXT*%
X127500000Y-69300000D02*
X125600000Y-67400000D01*
%TO.N,/RIGHT*%
X155000000Y-80500000D02*
X155000000Y-49400000D01*
%TO.N,/VBUS*%
X109300000Y-74700000D02*
X109280000Y-74667500D01*
%TO.N,Net-(D2-K)*%
X121400000Y-96100000D02*
X120400000Y-97100000D01*
%TO.N,/VBAT*%
X137000000Y-102700000D02*
X137025000Y-102655000D01*
%TO.N,/PLAY*%
X117100000Y-77200000D02*
X117100000Y-76600000D01*
%TO.N,GND*%
X128800000Y-95500000D02*
X128800000Y-94100000D01*
%TO.N,/VBUS*%
X120800000Y-95100000D02*
X120300000Y-95100000D01*
%TO.N,/XIAO_TX*%
X133600000Y-79800000D02*
X133500000Y-79800000D01*
%TO.N,/PLAY*%
X118900000Y-80200000D02*
X117000000Y-78300000D01*
%TO.N,/SCL*%
X113900000Y-97400000D02*
X113900000Y-99100000D01*
%TO.N,/BUSY*%
X115600000Y-77800000D02*
X115600000Y-77700000D01*
%TO.N,/CHRG*%
X131000000Y-103300000D02*
X133400000Y-103300000D01*
%TO.N,Net-(U3-DAC_L)*%
X161200000Y-81400000D02*
X157600000Y-77800000D01*
%TO.N,/STDBY*%
X130300000Y-103200000D02*
X122200000Y-103200000D01*
%TO.N,GND*%
X115400000Y-68800000D02*
X111800000Y-72400000D01*
%TO.N,/SCL*%
X117700000Y-99000000D02*
X120100000Y-96600000D01*
%TO.N,/CHRG*%
X138300000Y-103100000D02*
X138300000Y-100900000D01*
%TO.N,Net-(D1-K)*%
X120400000Y-100100000D02*
X120400000Y-100200000D01*
%TO.N,/SDA*%
X118400000Y-63200000D02*
X119400000Y-64200000D01*
%TO.N,/VBUS*%
X109300000Y-74700000D02*
X110400000Y-73600000D01*
%TO.N,Net-(U3-RX)*%
X135500000Y-83900000D02*
X135500000Y-80700000D01*
%TO.N,/BACK*%
X114400000Y-89200000D02*
X114400000Y-89457500D01*
%TO.N,/XIAO_RX*%
X134000000Y-81300000D02*
X124500000Y-90800000D01*
%TO.N,/XIAO_TX*%
X124500000Y-74700000D02*
X124520000Y-74667500D01*
%TO.N,Net-(U3-RX)*%
X135500000Y-80700000D02*
X135400000Y-80600000D01*
%TO.N,GND*%
X133800000Y-99600000D02*
X133000000Y-98800000D01*
X124400000Y-94200000D02*
X121400000Y-94200000D01*
%TO.N,/CHRG*%
X122250000Y-100210000D02*
X122200000Y-100200000D01*
%TO.N,/VBUS*%
X152300000Y-93000000D02*
X152400000Y-93000000D01*
%TO.N,/VBAT*%
X121900000Y-83800000D02*
X126200000Y-88100000D01*
%TO.N,/VBUS*%
X111200000Y-70500000D02*
X113100000Y-68600000D01*
%TO.N,/XIAO_RX*%
X124500000Y-90800000D02*
X124520000Y-90832500D01*
%TO.N,/CHRG*%
X137900000Y-103500000D02*
X138300000Y-103100000D01*
%TO.N,/SDA*%
X118200000Y-69300000D02*
X118200000Y-69400000D01*
%TO.N,GND*%
X111800000Y-72400000D02*
X111800000Y-74700000D01*
%TO.N,/NEXT*%
X128000000Y-63700000D02*
X128000000Y-62200000D01*
%TO.N,/BACK*%
X111500000Y-69400000D02*
X111500000Y-69600000D01*
%TO.N,/SCL*%
X122000000Y-90800000D02*
X121980000Y-90832500D01*
%TO.N,/LEFT*%
X160100000Y-77800000D02*
X162400000Y-75500000D01*
%TO.N,/BACK*%
X109600000Y-81000000D02*
X109500000Y-81100000D01*
%TO.N,Net-(U3-DAC_L)*%
X159800000Y-87500000D02*
X161200000Y-86100000D01*
%TO.N,/ENCODER_A*%
X118200000Y-77700000D02*
X119500000Y-76400000D01*
%TO.N,Net-(D2-K)*%
X120400000Y-97100000D02*
X120400000Y-98600000D01*
%TO.N,/PLAY*%
X109280000Y-90832500D02*
X109300000Y-90800000D01*
%TO.N,/SCL*%
X114300000Y-99500000D02*
X115800000Y-99500000D01*
%TO.N,/ENCODER_A*%
X118170000Y-77749006D02*
X118200000Y-77700000D01*
%TO.N,/CHRG*%
X133600000Y-103500000D02*
X137900000Y-103500000D01*
%TO.N,/SCL*%
X112600000Y-96100000D02*
X113900000Y-97400000D01*
%TO.N,/VBUS*%
X115100000Y-98600000D02*
X115060000Y-98642500D01*
%TO.N,Net-(D2-K)*%
X120400000Y-98600000D02*
X119500000Y-99500000D01*
%TO.N,Net-(U2-PROG)*%
X131000000Y-99500000D02*
X128400000Y-96900000D01*
%TO.N,/VBUS*%
X111200000Y-72500000D02*
X111200000Y-70500000D01*
%TO.N,+3V3*%
X110800000Y-84000000D02*
X107900000Y-86900000D01*
%TO.N,/NEXT*%
X113600000Y-89000000D02*
X113700000Y-89000000D01*
%TO.N,/SDA*%
X116600000Y-94700000D02*
X116500000Y-94800000D01*
%TO.N,/VBAT*%
D34*
X139000000Y-102200000D02*
X142300000Y-105500000D01*
%TO.N,/RIGHT*%
D33*
X160100000Y-85600000D02*
X155000000Y-80500000D01*
%TO.N,/VBUS*%
X135600000Y-76200000D02*
X134000000Y-76200000D01*
%TO.N,+3V3*%
X113300000Y-81500000D02*
X114400000Y-80400000D01*
X110800000Y-84000000D02*
X113300000Y-81500000D01*
%TO.N,/SDA*%
X116500000Y-94800000D02*
X116500000Y-94900000D01*
%TO.N,/NEXT*%
X113300000Y-89100000D02*
X113500000Y-89100000D01*
%TO.N,/ENCODER_SWITCH*%
X113700000Y-76600000D02*
X113090000Y-77749006D01*
%TO.N,/VBUS*%
X132500000Y-102300000D02*
X132300000Y-102100000D01*
%TO.N,/XIAO_TX*%
X125300000Y-92800000D02*
X125900000Y-92200000D01*
%TO.N,/STDBY*%
X133900000Y-103900000D02*
X133400000Y-103900000D01*
%TO.N,/VBUS*%
X138900000Y-93500000D02*
X137800000Y-92400000D01*
%TO.N,GND*%
X160067621Y-93500000D02*
X158017621Y-91450000D01*
%TO.N,/NEXT*%
X114400000Y-87600000D02*
X114500000Y-87500000D01*
%TO.N,/VBUS*%
X120300000Y-95100000D02*
X119500000Y-95900000D01*
%TO.N,GND*%
X135200000Y-99600000D02*
X136000000Y-98800000D01*
%TO.N,/VBUS*%
X110500000Y-73300000D02*
X110500000Y-73200000D01*
%TO.N,/XIAO_TX*%
X134500000Y-82400000D02*
X135100000Y-81800000D01*
%TO.N,/SCL*%
X120100000Y-96600000D02*
X120100000Y-96400000D01*
%TO.N,/ENCODER_SWITCH*%
X117700000Y-69800000D02*
X117700000Y-66500000D01*
%TO.N,/BACK*%
X110900000Y-64900000D02*
X110900000Y-62200000D01*
%TO.N,/BUSY*%
X130200000Y-77500000D02*
X130000000Y-77700000D01*
%TO.N,/SDA*%
X118100000Y-69200000D02*
X118200000Y-69300000D01*
%TO.N,/XIAO_TX*%
X125900000Y-92200000D02*
X125900000Y-90300000D01*
%TO.N,/ENCODER_B*%
X126500000Y-76100000D02*
X128800000Y-76100000D01*
%TO.N,/STDBY*%
X130800000Y-103700000D02*
X130300000Y-103200000D01*
%TO.N,/SCL*%
X117600000Y-99000000D02*
X117700000Y-99000000D01*
%TO.N,/VBUS*%
X110400000Y-73400000D02*
X110500000Y-73300000D01*
%TO.N,Net-(D1-K)*%
X120400000Y-100200000D02*
X120375000Y-100210000D01*
%TO.N,/ENCODER_SWITCH*%
X113700000Y-77100000D02*
X113700000Y-76600000D01*
%TO.N,/XIAO_TX*%
X118400000Y-94200000D02*
X119800000Y-92800000D01*
%TO.N,GND*%
X133850000Y-101950000D02*
X133800000Y-102000000D01*
%TO.N,+3V3*%
X113300000Y-81500000D02*
X113330000Y-81480000D01*
%TO.N,GND*%
X126200000Y-94700000D02*
X126300000Y-94800000D01*
%TO.N,+3V3*%
X107900000Y-92200000D02*
X109900000Y-94200000D01*
X112600000Y-94200000D02*
X112550000Y-94250000D01*
X107900000Y-86900000D02*
X107900000Y-92200000D01*
%TO.N,/BACK*%
X111400000Y-65400000D02*
X110900000Y-64900000D01*
%TO.N,/NEXT*%
X114500000Y-87500000D02*
X114500000Y-87300000D01*
%TO.N,/PLAY*%
X117000000Y-77300000D02*
X117100000Y-77200000D01*
%TO.N,/ENCODER_SWITCH*%
X145800000Y-66800000D02*
X152800000Y-66800000D01*
%TO.N,GND*%
X151500000Y-105250000D02*
X160067621Y-96682379D01*
%TO.N,/STDBY*%
X133300000Y-103800000D02*
X131000000Y-103800000D01*
%TO.N,/BACK*%
X109500000Y-81100000D02*
X109500000Y-83300000D01*
%TO.N,/VBUS*%
X119500000Y-95900000D02*
X119500000Y-96600000D01*
%TO.N,Net-(U3-RX)*%
X135400000Y-80600000D02*
X135400000Y-80500000D01*
%TO.N,/ENCODER_A*%
X119500000Y-76400000D02*
X125600000Y-76400000D01*
%TO.N,/ENCODER_SWITCH*%
X137100000Y-60400000D02*
X139400000Y-60400000D01*
X113100000Y-77700000D02*
X113700000Y-77100000D01*
%TO.N,Net-(D2-K)*%
X119500000Y-100900000D02*
X120400000Y-101800000D01*
%TO.N,Net-(U3-DAC_L)*%
X151300000Y-87500000D02*
X159800000Y-87500000D01*
%TO.N,/CHRG*%
X122300000Y-100100000D02*
X127800000Y-100100000D01*
%TO.N,/STDBY*%
X133400000Y-103900000D02*
X133300000Y-103800000D01*
%TO.N,Net-(U3-RX)*%
X134400000Y-85000000D02*
X135100000Y-84300000D01*
%TO.N,/PLAY*%
X109300000Y-90800000D02*
X110400000Y-89700000D01*
%TO.N,GND*%
X126200000Y-93800000D02*
X126200000Y-94700000D01*
%TO.N,Net-(U2-PROG)*%
X132100000Y-100100000D02*
X131500000Y-99500000D01*
%TO.N,GND*%
X137000000Y-98800000D02*
X137025000Y-98845000D01*
%TO.N,/ENCODER_SWITCH*%
X113700000Y-76600000D02*
X113700000Y-76899006D01*
%TO.N,/BACK*%
X110900000Y-68800000D02*
X110900000Y-67700000D01*
%TO.N,/ENCODER_SWITCH*%
X139400000Y-60400000D02*
X145800000Y-66800000D01*
%TO.N,/ENCODER_B*%
X120710000Y-77749006D02*
X120700000Y-77700000D01*
%TO.N,/VBUS*%
X139500000Y-92900000D02*
X152200000Y-92900000D01*
%TO.N,Net-(U3-RX)*%
X135100000Y-84300000D02*
X135500000Y-83900000D01*
%TO.N,/XIAO_TX*%
X118450000Y-94250000D02*
X118400000Y-94200000D01*
%TO.N,GND*%
X121900000Y-86100000D02*
X120300000Y-84500000D01*
%TO.N,/ENCODER_B*%
X121600000Y-76800000D02*
X125800000Y-76800000D01*
%TO.N,/PLAY*%
X112000000Y-87400000D02*
X112000000Y-87300000D01*
%TO.N,/XIAO_TX*%
X125900000Y-90300000D02*
X133800000Y-82400000D01*
%TO.N,/ENCODER_A*%
X126600000Y-72700000D02*
X137500000Y-61800000D01*
%TO.N,/SDA*%
X118400000Y-67800000D02*
X118400000Y-67900000D01*
%TO.N,/PLAY*%
X111900000Y-87500000D02*
X112000000Y-87400000D01*
%TO.N,/VBUS*%
X120900000Y-95200000D02*
X120800000Y-95100000D01*
%TO.N,/SDA*%
X118200000Y-69400000D02*
X118400000Y-69600000D01*
%TO.N,/VBUS*%
X136400000Y-77000000D02*
X135600000Y-76200000D01*
%TO.N,GND*%
X120300000Y-83000000D02*
X121500000Y-81800000D01*
%TO.N,/PLAY*%
X111800000Y-87800000D02*
X111900000Y-87700000D01*
%TO.N,Net-(U3-RX)*%
X120400000Y-94100000D02*
X120400000Y-93600000D01*
%TO.N,GND*%
X121900000Y-81800000D02*
X121874811Y-81750000D01*
X132500000Y-62250000D02*
X131200000Y-60950000D01*
X115100000Y-100500000D02*
X115060000Y-100542500D01*
%TO.N,/PLAY*%
X110400000Y-89400000D02*
X111800000Y-88000000D01*
%TO.N,/STDBY*%
X130900000Y-103700000D02*
X130800000Y-103700000D01*
%TO.N,/VBUS*%
X110400000Y-73600000D02*
X110400000Y-73400000D01*
%TO.N,+3V3*%
X115500000Y-94200000D02*
X115500000Y-94250000D01*
%TO.N,Net-(D1-K)*%
X124400000Y-96100000D02*
X120400000Y-100100000D01*
%TO.N,/SDA*%
X118200000Y-68200000D02*
X118100000Y-68300000D01*
%TO.N,GND*%
X126150000Y-94200000D02*
X124400000Y-94200000D01*
%TO.N,/NEXT*%
X113500000Y-89100000D02*
X113600000Y-89000000D01*
%TO.N,GND*%
X110800000Y-81500000D02*
X110790000Y-81480000D01*
%TO.N,/BACK*%
X108000000Y-73200000D02*
X107900000Y-73300000D01*
%TO.N,Net-(U3-RX)*%
X135400000Y-80500000D02*
X134000000Y-79100000D01*
%TO.N,GND*%
X133850000Y-99550000D02*
X133800000Y-99600000D01*
%TO.N,Net-(D2-K)*%
X120400000Y-103200000D02*
X120375000Y-103250000D01*
%TO.N,Net-(U3-RX)*%
D34*
X118400000Y-96100000D02*
X120400000Y-94100000D01*
%TO.N,/SCL*%
D33*
X112600000Y-45600000D02*
X112600000Y-65100000D01*
%TO.N,GND*%
X131200000Y-60950000D02*
X125250000Y-60950000D01*
X127300000Y-96100000D02*
X127300000Y-96075000D01*
%TO.N,/VBUS*%
X117500000Y-98600000D02*
X115100000Y-98600000D01*
%TO.N,/XIAO_TX*%
X119800000Y-92800000D02*
X125300000Y-92800000D01*
%TO.N,GND*%
X128000000Y-93300000D02*
X126700000Y-93300000D01*
%TO.N,/PLAY*%
X112000000Y-87300000D02*
X118900000Y-80400000D01*
%TO.N,/STDBY*%
X131000000Y-103800000D02*
X130900000Y-103700000D01*
%TO.N,/NEXT*%
X111820000Y-90832500D02*
X111800000Y-90800000D01*
%TO.N,/VBAT*%
D34*
X142300000Y-105500000D02*
X149500000Y-105500000D01*
%TO.N,GND*%
D33*
X124400000Y-94200000D02*
X124350000Y-94250000D01*
%TO.N,/VBUS*%
X132100000Y-102700000D02*
X132500000Y-102300000D01*
%TO.N,/SDA*%
X118200000Y-62900000D02*
X118400000Y-63100000D01*
%TO.N,/BACK*%
X107900000Y-73300000D02*
X107900000Y-79300000D01*
%TO.N,/ENCODER_SWITCH*%
X114800000Y-72700000D02*
X117700000Y-69800000D01*
%TO.N,/LEFT*%
X162400000Y-75500000D02*
X162400000Y-42000000D01*
%TO.N,/VBUS*%
X125100000Y-95200000D02*
X120900000Y-95200000D01*
%TO.N,/XIAO_TX*%
X128300000Y-74700000D02*
X124500000Y-74700000D01*
%TO.N,/ENCODER_B*%
D34*
X120700000Y-77700000D02*
X121600000Y-76800000D01*
%TO.N,/VBUS*%
D33*
X125400000Y-95500000D02*
X125100000Y-95200000D01*
%TO.N,GND*%
X111800000Y-74700000D02*
X111820000Y-74667500D01*
X111800000Y-74700000D02*
X110800000Y-75700000D01*
%TO.N,/PLAY*%
X111800000Y-88000000D02*
X111800000Y-87800000D01*
%TO.N,/SDA*%
X116600000Y-94600000D02*
X116600000Y-94700000D01*
%TO.N,/SCL*%
X113900000Y-99100000D02*
X114300000Y-99500000D01*
%TO.N,/SDA*%
X119400000Y-90800000D02*
X119440000Y-90832500D01*
%TO.N,/PLAY*%
X117000000Y-78300000D02*
X117000000Y-77300000D01*
%TO.N,GND*%
X151500000Y-105500000D02*
X151500000Y-105250000D01*
%TO.N,/VBUS*%
X110100000Y-44800000D02*
X111200000Y-45900000D01*
%TO.N,Net-(D1-K)*%
X124350000Y-96075000D02*
X124400000Y-96100000D01*
%TO.N,Net-(U2-PROG)*%
X128400000Y-95600000D02*
X127300000Y-94500000D01*
%TO.N,/BUSY*%
X150400000Y-77600000D02*
X151800000Y-76200000D01*
X130750000Y-76250000D02*
X131100000Y-76600000D01*
X131100000Y-76600000D02*
X132700000Y-76600000D01*
X132700000Y-76600000D02*
X133700000Y-77600000D01*
X133700000Y-77600000D02*
X150400000Y-77600000D01*
%TD*%
M02*
