%TF.GenerationSoftware,KiCad,Pcbnew,10.0.4*%
%TF.CreationDate,2026-08-21T15:58:06-07:00*%
%TF.ProjectId,musicplayer-frfr,6d757369-6370-46c6-9179-65722d667266,rev?*%
%TF.SameCoordinates,Original*%
%TF.FileFunction,Soldermask,Bot*%
%TF.FilePolarity,Negative*%
%FSLAX46Y46*%
G04 Gerber Fmt 4.6, Leading zero omitted, Abs format (unit mm)*
G04 Created by KiCad (PCBNEW 10.0.4) date 2026-08-21 15:58:06*
%MOMM*%
%LPD*%
G01*
G04 APERTURE LIST*
G04 Aperture macros list*
%AMRoundRect*
0 Rectangle with rounded corners*
0 $1 Rounding radius*
0 $2 $3 $4 $5 $6 $7 $8 $9 X,Y pos of 4 corners*
0 Add a 4 corners polygon primitive as box body*
4,1,4,$2,$3,$4,$5,$6,$7,$8,$9,$2,$3,0*
0 Add four circle primitives for the rounded corners*
1,1,$1+$1,$2,$3*
1,1,$1+$1,$4,$5*
1,1,$1+$1,$6,$7*
1,1,$1+$1,$8,$9*
0 Add four rect primitives between the rounded corners*
20,1,$1+$1,$2,$3,$4,$5,0*
20,1,$1+$1,$4,$5,$6,$7,0*
20,1,$1+$1,$6,$7,$8,$9,0*
20,1,$1+$1,$8,$9,$2,$3,0*%
G04 Aperture macros list end*
%ADD10C,0.150000*%
%ADD11O,2.200000X3.500000*%
%ADD12R,1.500000X2.500000*%
%ADD13O,1.500000X2.500000*%
%ADD14C,2.000000*%
%ADD15RoundRect,0.250000X-0.350000X-0.625000X0.350000X-0.625000X0.350000X0.625000X-0.350000X0.625000X0*%
%ADD16O,1.200000X1.750000*%
%ADD17RoundRect,0.250000X0.550000X0.550000X-0.550000X0.550000X-0.550000X-0.550000X0.550000X-0.550000X0*%
%ADD18C,1.600000*%
%ADD19C,1.700000*%
%ADD20C,1.524000*%
%ADD21R,1.700000X1.700000*%
%ADD22R,2.000000X2.000000*%
%ADD23R,3.200000X2.000000*%
G04 APERTURE END LIST*
%TO.C,U3*%
D10*
X143300000Y-73320000D02*
X166160000Y-73320000D01*
X143300000Y-96180000D02*
X143300000Y-73320000D01*
X166160000Y-73320000D02*
X166160000Y-96180000D01*
X166160000Y-96180000D02*
X143300000Y-96180000D01*
%TD*%
D11*
%TO.C,SW5*%
X135900000Y-108797500D03*
X144100000Y-108797500D03*
D12*
X138000000Y-108797500D03*
D13*
X140000000Y-108797500D03*
X142000000Y-108797500D03*
%TD*%
D14*
%TO.C,SW1*%
X117000000Y-68000000D03*
X110500000Y-68000000D03*
X117000000Y-63500000D03*
X110500000Y-63500000D03*
%TD*%
%TO.C,SW3*%
X142000000Y-68000000D03*
X135500000Y-68000000D03*
X142000000Y-63500000D03*
X135500000Y-63500000D03*
%TD*%
%TO.C,SW2*%
X129500000Y-68000000D03*
X123000000Y-68000000D03*
X129500000Y-63500000D03*
X123000000Y-63500000D03*
%TD*%
D15*
%TO.C,J1*%
X154250000Y-106000000D03*
D16*
X156250000Y-106000000D03*
%TD*%
D17*
%TO.C,C3*%
X126499996Y-86000000D03*
D18*
X123999996Y-86000000D03*
%TD*%
D19*
%TO.C,J2*%
X156950000Y-41100000D03*
X156950000Y-48100000D03*
%TD*%
D17*
%TO.C,C1*%
X118249996Y-86000000D03*
D18*
X115749996Y-86000000D03*
%TD*%
D20*
%TO.C,U3*%
X145840000Y-93640000D03*
X148380000Y-93640000D03*
X150920000Y-93640000D03*
X153460000Y-93640000D03*
X156000000Y-93640000D03*
X158540000Y-93640000D03*
X161080000Y-93640000D03*
X163620000Y-93640000D03*
X163620000Y-75860000D03*
X161080000Y-75860000D03*
X158540000Y-75860000D03*
X156000000Y-75860000D03*
X153460000Y-75860000D03*
X150920000Y-75860000D03*
X148380000Y-75860000D03*
X145840000Y-75860000D03*
%TD*%
D21*
%TO.C,J3*%
X111250000Y-41710000D03*
D19*
X111250000Y-44250000D03*
X111250000Y-46790000D03*
X111250000Y-49330000D03*
%TD*%
D17*
%TO.C,C2*%
X122182376Y-78250000D03*
D18*
X119682376Y-78250000D03*
%TD*%
D22*
%TO.C,SW4*%
X150750000Y-61500000D03*
D14*
X150750000Y-66500000D03*
X150750000Y-64000000D03*
D23*
X158250000Y-58400000D03*
X158250000Y-69600000D03*
D14*
X165250000Y-66500000D03*
X165250000Y-61500000D03*
%TD*%
M02*
