%TF.GenerationSoftware,KiCad,Pcbnew,10.0.4*%
%TF.CreationDate,2026-08-19T21:13:39-07:00*%
%TF.ProjectId,musicplayer-frfr,6d757369-6370-46c6-9179-65722d667266,rev?*%
%TF.SameCoordinates,Original*%
%TF.FileFunction,Legend,Top*%
%TF.FilePolarity,Positive*%
%FSLAX46Y46*%
G04 Gerber Fmt 4.6, Leading zero omitted, Abs format (unit mm)*
G04 Created by KiCad (PCBNEW 10.0.4) date 2026-08-19 21:13:39*
%MOMM*%
%LPD*%
G01*
G04 APERTURE LIST*
%ADD10C,0.150000*%
%ADD11C,0.101600*%
%ADD12C,0.120000*%
%ADD13C,0.504000*%
%ADD14C,0.127000*%
%ADD15C,0.100000*%
G04 APERTURE END LIST*
D10*
X120554819Y-95329166D02*
X120078628Y-95662499D01*
X120554819Y-95900594D02*
X119554819Y-95900594D01*
X119554819Y-95900594D02*
X119554819Y-95519642D01*
X119554819Y-95519642D02*
X119602438Y-95424404D01*
X119602438Y-95424404D02*
X119650057Y-95376785D01*
X119650057Y-95376785D02*
X119745295Y-95329166D01*
X119745295Y-95329166D02*
X119888152Y-95329166D01*
X119888152Y-95329166D02*
X119983390Y-95376785D01*
X119983390Y-95376785D02*
X120031009Y-95424404D01*
X120031009Y-95424404D02*
X120078628Y-95519642D01*
X120078628Y-95519642D02*
X120078628Y-95900594D01*
X119888152Y-94472023D02*
X120554819Y-94472023D01*
X119507200Y-94710118D02*
X120221485Y-94948213D01*
X120221485Y-94948213D02*
X120221485Y-94329166D01*
X123504819Y-95329166D02*
X123028628Y-95662499D01*
X123504819Y-95900594D02*
X122504819Y-95900594D01*
X122504819Y-95900594D02*
X122504819Y-95519642D01*
X122504819Y-95519642D02*
X122552438Y-95424404D01*
X122552438Y-95424404D02*
X122600057Y-95376785D01*
X122600057Y-95376785D02*
X122695295Y-95329166D01*
X122695295Y-95329166D02*
X122838152Y-95329166D01*
X122838152Y-95329166D02*
X122933390Y-95376785D01*
X122933390Y-95376785D02*
X122981009Y-95424404D01*
X122981009Y-95424404D02*
X123028628Y-95519642D01*
X123028628Y-95519642D02*
X123028628Y-95900594D01*
X122504819Y-94995832D02*
X122504819Y-94376785D01*
X122504819Y-94376785D02*
X122885771Y-94710118D01*
X122885771Y-94710118D02*
X122885771Y-94567261D01*
X122885771Y-94567261D02*
X122933390Y-94472023D01*
X122933390Y-94472023D02*
X122981009Y-94424404D01*
X122981009Y-94424404D02*
X123076247Y-94376785D01*
X123076247Y-94376785D02*
X123314342Y-94376785D01*
X123314342Y-94376785D02*
X123409580Y-94424404D01*
X123409580Y-94424404D02*
X123457200Y-94472023D01*
X123457200Y-94472023D02*
X123504819Y-94567261D01*
X123504819Y-94567261D02*
X123504819Y-94852975D01*
X123504819Y-94852975D02*
X123457200Y-94948213D01*
X123457200Y-94948213D02*
X123409580Y-94995832D01*
X126454819Y-95329166D02*
X125978628Y-95662499D01*
X126454819Y-95900594D02*
X125454819Y-95900594D01*
X125454819Y-95900594D02*
X125454819Y-95519642D01*
X125454819Y-95519642D02*
X125502438Y-95424404D01*
X125502438Y-95424404D02*
X125550057Y-95376785D01*
X125550057Y-95376785D02*
X125645295Y-95329166D01*
X125645295Y-95329166D02*
X125788152Y-95329166D01*
X125788152Y-95329166D02*
X125883390Y-95376785D01*
X125883390Y-95376785D02*
X125931009Y-95424404D01*
X125931009Y-95424404D02*
X125978628Y-95519642D01*
X125978628Y-95519642D02*
X125978628Y-95900594D01*
X125550057Y-94948213D02*
X125502438Y-94900594D01*
X125502438Y-94900594D02*
X125454819Y-94805356D01*
X125454819Y-94805356D02*
X125454819Y-94567261D01*
X125454819Y-94567261D02*
X125502438Y-94472023D01*
X125502438Y-94472023D02*
X125550057Y-94424404D01*
X125550057Y-94424404D02*
X125645295Y-94376785D01*
X125645295Y-94376785D02*
X125740533Y-94376785D01*
X125740533Y-94376785D02*
X125883390Y-94424404D01*
X125883390Y-94424404D02*
X126454819Y-94995832D01*
X126454819Y-94995832D02*
X126454819Y-94376785D01*
X117604819Y-95329166D02*
X117128628Y-95662499D01*
X117604819Y-95900594D02*
X116604819Y-95900594D01*
X116604819Y-95900594D02*
X116604819Y-95519642D01*
X116604819Y-95519642D02*
X116652438Y-95424404D01*
X116652438Y-95424404D02*
X116700057Y-95376785D01*
X116700057Y-95376785D02*
X116795295Y-95329166D01*
X116795295Y-95329166D02*
X116938152Y-95329166D01*
X116938152Y-95329166D02*
X117033390Y-95376785D01*
X117033390Y-95376785D02*
X117081009Y-95424404D01*
X117081009Y-95424404D02*
X117128628Y-95519642D01*
X117128628Y-95519642D02*
X117128628Y-95900594D01*
X116604819Y-94424404D02*
X116604819Y-94900594D01*
X116604819Y-94900594D02*
X117081009Y-94948213D01*
X117081009Y-94948213D02*
X117033390Y-94900594D01*
X117033390Y-94900594D02*
X116985771Y-94805356D01*
X116985771Y-94805356D02*
X116985771Y-94567261D01*
X116985771Y-94567261D02*
X117033390Y-94472023D01*
X117033390Y-94472023D02*
X117081009Y-94424404D01*
X117081009Y-94424404D02*
X117176247Y-94376785D01*
X117176247Y-94376785D02*
X117414342Y-94376785D01*
X117414342Y-94376785D02*
X117509580Y-94424404D01*
X117509580Y-94424404D02*
X117557200Y-94472023D01*
X117557200Y-94472023D02*
X117604819Y-94567261D01*
X117604819Y-94567261D02*
X117604819Y-94805356D01*
X117604819Y-94805356D02*
X117557200Y-94900594D01*
X117557200Y-94900594D02*
X117509580Y-94948213D01*
X114654819Y-95329166D02*
X114178628Y-95662499D01*
X114654819Y-95900594D02*
X113654819Y-95900594D01*
X113654819Y-95900594D02*
X113654819Y-95519642D01*
X113654819Y-95519642D02*
X113702438Y-95424404D01*
X113702438Y-95424404D02*
X113750057Y-95376785D01*
X113750057Y-95376785D02*
X113845295Y-95329166D01*
X113845295Y-95329166D02*
X113988152Y-95329166D01*
X113988152Y-95329166D02*
X114083390Y-95376785D01*
X114083390Y-95376785D02*
X114131009Y-95424404D01*
X114131009Y-95424404D02*
X114178628Y-95519642D01*
X114178628Y-95519642D02*
X114178628Y-95900594D01*
X113654819Y-94472023D02*
X113654819Y-94662499D01*
X113654819Y-94662499D02*
X113702438Y-94757737D01*
X113702438Y-94757737D02*
X113750057Y-94805356D01*
X113750057Y-94805356D02*
X113892914Y-94900594D01*
X113892914Y-94900594D02*
X114083390Y-94948213D01*
X114083390Y-94948213D02*
X114464342Y-94948213D01*
X114464342Y-94948213D02*
X114559580Y-94900594D01*
X114559580Y-94900594D02*
X114607200Y-94852975D01*
X114607200Y-94852975D02*
X114654819Y-94757737D01*
X114654819Y-94757737D02*
X114654819Y-94567261D01*
X114654819Y-94567261D02*
X114607200Y-94472023D01*
X114607200Y-94472023D02*
X114559580Y-94424404D01*
X114559580Y-94424404D02*
X114464342Y-94376785D01*
X114464342Y-94376785D02*
X114226247Y-94376785D01*
X114226247Y-94376785D02*
X114131009Y-94424404D01*
X114131009Y-94424404D02*
X114083390Y-94472023D01*
X114083390Y-94472023D02*
X114035771Y-94567261D01*
X114035771Y-94567261D02*
X114035771Y-94757737D01*
X114035771Y-94757737D02*
X114083390Y-94852975D01*
X114083390Y-94852975D02*
X114131009Y-94900594D01*
X114131009Y-94900594D02*
X114226247Y-94948213D01*
X129404819Y-95329166D02*
X128928628Y-95662499D01*
X129404819Y-95900594D02*
X128404819Y-95900594D01*
X128404819Y-95900594D02*
X128404819Y-95519642D01*
X128404819Y-95519642D02*
X128452438Y-95424404D01*
X128452438Y-95424404D02*
X128500057Y-95376785D01*
X128500057Y-95376785D02*
X128595295Y-95329166D01*
X128595295Y-95329166D02*
X128738152Y-95329166D01*
X128738152Y-95329166D02*
X128833390Y-95376785D01*
X128833390Y-95376785D02*
X128881009Y-95424404D01*
X128881009Y-95424404D02*
X128928628Y-95519642D01*
X128928628Y-95519642D02*
X128928628Y-95900594D01*
X129404819Y-94376785D02*
X129404819Y-94948213D01*
X129404819Y-94662499D02*
X128404819Y-94662499D01*
X128404819Y-94662499D02*
X128547676Y-94757737D01*
X128547676Y-94757737D02*
X128642914Y-94852975D01*
X128642914Y-94852975D02*
X128690533Y-94948213D01*
X123261905Y-102204819D02*
X123261905Y-101204819D01*
X123261905Y-101204819D02*
X123500000Y-101204819D01*
X123500000Y-101204819D02*
X123642857Y-101252438D01*
X123642857Y-101252438D02*
X123738095Y-101347676D01*
X123738095Y-101347676D02*
X123785714Y-101442914D01*
X123785714Y-101442914D02*
X123833333Y-101633390D01*
X123833333Y-101633390D02*
X123833333Y-101776247D01*
X123833333Y-101776247D02*
X123785714Y-101966723D01*
X123785714Y-101966723D02*
X123738095Y-102061961D01*
X123738095Y-102061961D02*
X123642857Y-102157200D01*
X123642857Y-102157200D02*
X123500000Y-102204819D01*
X123500000Y-102204819D02*
X123261905Y-102204819D01*
X124214286Y-101300057D02*
X124261905Y-101252438D01*
X124261905Y-101252438D02*
X124357143Y-101204819D01*
X124357143Y-101204819D02*
X124595238Y-101204819D01*
X124595238Y-101204819D02*
X124690476Y-101252438D01*
X124690476Y-101252438D02*
X124738095Y-101300057D01*
X124738095Y-101300057D02*
X124785714Y-101395295D01*
X124785714Y-101395295D02*
X124785714Y-101490533D01*
X124785714Y-101490533D02*
X124738095Y-101633390D01*
X124738095Y-101633390D02*
X124166667Y-102204819D01*
X124166667Y-102204819D02*
X124785714Y-102204819D01*
X139488095Y-98704819D02*
X139488095Y-99514342D01*
X139488095Y-99514342D02*
X139535714Y-99609580D01*
X139535714Y-99609580D02*
X139583333Y-99657200D01*
X139583333Y-99657200D02*
X139678571Y-99704819D01*
X139678571Y-99704819D02*
X139869047Y-99704819D01*
X139869047Y-99704819D02*
X139964285Y-99657200D01*
X139964285Y-99657200D02*
X140011904Y-99609580D01*
X140011904Y-99609580D02*
X140059523Y-99514342D01*
X140059523Y-99514342D02*
X140059523Y-98704819D01*
X140488095Y-98800057D02*
X140535714Y-98752438D01*
X140535714Y-98752438D02*
X140630952Y-98704819D01*
X140630952Y-98704819D02*
X140869047Y-98704819D01*
X140869047Y-98704819D02*
X140964285Y-98752438D01*
X140964285Y-98752438D02*
X141011904Y-98800057D01*
X141011904Y-98800057D02*
X141059523Y-98895295D01*
X141059523Y-98895295D02*
X141059523Y-98990533D01*
X141059523Y-98990533D02*
X141011904Y-99133390D01*
X141011904Y-99133390D02*
X140440476Y-99704819D01*
X140440476Y-99704819D02*
X141059523Y-99704819D01*
X158650954Y-89459580D02*
X158603335Y-89507200D01*
X158603335Y-89507200D02*
X158460478Y-89554819D01*
X158460478Y-89554819D02*
X158365240Y-89554819D01*
X158365240Y-89554819D02*
X158222383Y-89507200D01*
X158222383Y-89507200D02*
X158127145Y-89411961D01*
X158127145Y-89411961D02*
X158079526Y-89316723D01*
X158079526Y-89316723D02*
X158031907Y-89126247D01*
X158031907Y-89126247D02*
X158031907Y-88983390D01*
X158031907Y-88983390D02*
X158079526Y-88792914D01*
X158079526Y-88792914D02*
X158127145Y-88697676D01*
X158127145Y-88697676D02*
X158222383Y-88602438D01*
X158222383Y-88602438D02*
X158365240Y-88554819D01*
X158365240Y-88554819D02*
X158460478Y-88554819D01*
X158460478Y-88554819D02*
X158603335Y-88602438D01*
X158603335Y-88602438D02*
X158650954Y-88650057D01*
X158984288Y-88554819D02*
X159603335Y-88554819D01*
X159603335Y-88554819D02*
X159270002Y-88935771D01*
X159270002Y-88935771D02*
X159412859Y-88935771D01*
X159412859Y-88935771D02*
X159508097Y-88983390D01*
X159508097Y-88983390D02*
X159555716Y-89031009D01*
X159555716Y-89031009D02*
X159603335Y-89126247D01*
X159603335Y-89126247D02*
X159603335Y-89364342D01*
X159603335Y-89364342D02*
X159555716Y-89459580D01*
X159555716Y-89459580D02*
X159508097Y-89507200D01*
X159508097Y-89507200D02*
X159412859Y-89554819D01*
X159412859Y-89554819D02*
X159127145Y-89554819D01*
X159127145Y-89554819D02*
X159031907Y-89507200D01*
X159031907Y-89507200D02*
X158984288Y-89459580D01*
D11*
X107653479Y-87733809D02*
X108167526Y-87733809D01*
X108167526Y-87733809D02*
X108228002Y-87703571D01*
X108228002Y-87703571D02*
X108258241Y-87673333D01*
X108258241Y-87673333D02*
X108288479Y-87612857D01*
X108288479Y-87612857D02*
X108288479Y-87491904D01*
X108288479Y-87491904D02*
X108258241Y-87431428D01*
X108258241Y-87431428D02*
X108228002Y-87401190D01*
X108228002Y-87401190D02*
X108167526Y-87370952D01*
X108167526Y-87370952D02*
X107653479Y-87370952D01*
X108288479Y-86735952D02*
X108288479Y-87098809D01*
X108288479Y-86917381D02*
X107653479Y-86917381D01*
X107653479Y-86917381D02*
X107744193Y-86977857D01*
X107744193Y-86977857D02*
X107804669Y-87038333D01*
X107804669Y-87038333D02*
X107834907Y-87098809D01*
D10*
X109307200Y-66833332D02*
X109354819Y-66690475D01*
X109354819Y-66690475D02*
X109354819Y-66452380D01*
X109354819Y-66452380D02*
X109307200Y-66357142D01*
X109307200Y-66357142D02*
X109259580Y-66309523D01*
X109259580Y-66309523D02*
X109164342Y-66261904D01*
X109164342Y-66261904D02*
X109069104Y-66261904D01*
X109069104Y-66261904D02*
X108973866Y-66309523D01*
X108973866Y-66309523D02*
X108926247Y-66357142D01*
X108926247Y-66357142D02*
X108878628Y-66452380D01*
X108878628Y-66452380D02*
X108831009Y-66642856D01*
X108831009Y-66642856D02*
X108783390Y-66738094D01*
X108783390Y-66738094D02*
X108735771Y-66785713D01*
X108735771Y-66785713D02*
X108640533Y-66833332D01*
X108640533Y-66833332D02*
X108545295Y-66833332D01*
X108545295Y-66833332D02*
X108450057Y-66785713D01*
X108450057Y-66785713D02*
X108402438Y-66738094D01*
X108402438Y-66738094D02*
X108354819Y-66642856D01*
X108354819Y-66642856D02*
X108354819Y-66404761D01*
X108354819Y-66404761D02*
X108402438Y-66261904D01*
X108354819Y-65928570D02*
X109354819Y-65690475D01*
X109354819Y-65690475D02*
X108640533Y-65499999D01*
X108640533Y-65499999D02*
X109354819Y-65309523D01*
X109354819Y-65309523D02*
X108354819Y-65071428D01*
X109354819Y-64166666D02*
X109354819Y-64738094D01*
X109354819Y-64452380D02*
X108354819Y-64452380D01*
X108354819Y-64452380D02*
X108497676Y-64547618D01*
X108497676Y-64547618D02*
X108592914Y-64642856D01*
X108592914Y-64642856D02*
X108640533Y-64738094D01*
X117099580Y-99759166D02*
X117147200Y-99806785D01*
X117147200Y-99806785D02*
X117194819Y-99949642D01*
X117194819Y-99949642D02*
X117194819Y-100044880D01*
X117194819Y-100044880D02*
X117147200Y-100187737D01*
X117147200Y-100187737D02*
X117051961Y-100282975D01*
X117051961Y-100282975D02*
X116956723Y-100330594D01*
X116956723Y-100330594D02*
X116766247Y-100378213D01*
X116766247Y-100378213D02*
X116623390Y-100378213D01*
X116623390Y-100378213D02*
X116432914Y-100330594D01*
X116432914Y-100330594D02*
X116337676Y-100282975D01*
X116337676Y-100282975D02*
X116242438Y-100187737D01*
X116242438Y-100187737D02*
X116194819Y-100044880D01*
X116194819Y-100044880D02*
X116194819Y-99949642D01*
X116194819Y-99949642D02*
X116242438Y-99806785D01*
X116242438Y-99806785D02*
X116290057Y-99759166D01*
X116528152Y-98902023D02*
X117194819Y-98902023D01*
X116147200Y-99140118D02*
X116861485Y-99378213D01*
X116861485Y-99378213D02*
X116861485Y-98759166D01*
X126407200Y-66833332D02*
X126454819Y-66690475D01*
X126454819Y-66690475D02*
X126454819Y-66452380D01*
X126454819Y-66452380D02*
X126407200Y-66357142D01*
X126407200Y-66357142D02*
X126359580Y-66309523D01*
X126359580Y-66309523D02*
X126264342Y-66261904D01*
X126264342Y-66261904D02*
X126169104Y-66261904D01*
X126169104Y-66261904D02*
X126073866Y-66309523D01*
X126073866Y-66309523D02*
X126026247Y-66357142D01*
X126026247Y-66357142D02*
X125978628Y-66452380D01*
X125978628Y-66452380D02*
X125931009Y-66642856D01*
X125931009Y-66642856D02*
X125883390Y-66738094D01*
X125883390Y-66738094D02*
X125835771Y-66785713D01*
X125835771Y-66785713D02*
X125740533Y-66833332D01*
X125740533Y-66833332D02*
X125645295Y-66833332D01*
X125645295Y-66833332D02*
X125550057Y-66785713D01*
X125550057Y-66785713D02*
X125502438Y-66738094D01*
X125502438Y-66738094D02*
X125454819Y-66642856D01*
X125454819Y-66642856D02*
X125454819Y-66404761D01*
X125454819Y-66404761D02*
X125502438Y-66261904D01*
X125454819Y-65928570D02*
X126454819Y-65690475D01*
X126454819Y-65690475D02*
X125740533Y-65499999D01*
X125740533Y-65499999D02*
X126454819Y-65309523D01*
X126454819Y-65309523D02*
X125454819Y-65071428D01*
X125454819Y-64785713D02*
X125454819Y-64166666D01*
X125454819Y-64166666D02*
X125835771Y-64499999D01*
X125835771Y-64499999D02*
X125835771Y-64357142D01*
X125835771Y-64357142D02*
X125883390Y-64261904D01*
X125883390Y-64261904D02*
X125931009Y-64214285D01*
X125931009Y-64214285D02*
X126026247Y-64166666D01*
X126026247Y-64166666D02*
X126264342Y-64166666D01*
X126264342Y-64166666D02*
X126359580Y-64214285D01*
X126359580Y-64214285D02*
X126407200Y-64261904D01*
X126407200Y-64261904D02*
X126454819Y-64357142D01*
X126454819Y-64357142D02*
X126454819Y-64642856D01*
X126454819Y-64642856D02*
X126407200Y-64738094D01*
X126407200Y-64738094D02*
X126359580Y-64785713D01*
X117857200Y-66833332D02*
X117904819Y-66690475D01*
X117904819Y-66690475D02*
X117904819Y-66452380D01*
X117904819Y-66452380D02*
X117857200Y-66357142D01*
X117857200Y-66357142D02*
X117809580Y-66309523D01*
X117809580Y-66309523D02*
X117714342Y-66261904D01*
X117714342Y-66261904D02*
X117619104Y-66261904D01*
X117619104Y-66261904D02*
X117523866Y-66309523D01*
X117523866Y-66309523D02*
X117476247Y-66357142D01*
X117476247Y-66357142D02*
X117428628Y-66452380D01*
X117428628Y-66452380D02*
X117381009Y-66642856D01*
X117381009Y-66642856D02*
X117333390Y-66738094D01*
X117333390Y-66738094D02*
X117285771Y-66785713D01*
X117285771Y-66785713D02*
X117190533Y-66833332D01*
X117190533Y-66833332D02*
X117095295Y-66833332D01*
X117095295Y-66833332D02*
X117000057Y-66785713D01*
X117000057Y-66785713D02*
X116952438Y-66738094D01*
X116952438Y-66738094D02*
X116904819Y-66642856D01*
X116904819Y-66642856D02*
X116904819Y-66404761D01*
X116904819Y-66404761D02*
X116952438Y-66261904D01*
X116904819Y-65928570D02*
X117904819Y-65690475D01*
X117904819Y-65690475D02*
X117190533Y-65499999D01*
X117190533Y-65499999D02*
X117904819Y-65309523D01*
X117904819Y-65309523D02*
X116904819Y-65071428D01*
X117000057Y-64738094D02*
X116952438Y-64690475D01*
X116952438Y-64690475D02*
X116904819Y-64595237D01*
X116904819Y-64595237D02*
X116904819Y-64357142D01*
X116904819Y-64357142D02*
X116952438Y-64261904D01*
X116952438Y-64261904D02*
X117000057Y-64214285D01*
X117000057Y-64214285D02*
X117095295Y-64166666D01*
X117095295Y-64166666D02*
X117190533Y-64166666D01*
X117190533Y-64166666D02*
X117333390Y-64214285D01*
X117333390Y-64214285D02*
X117904819Y-64785713D01*
X117904819Y-64785713D02*
X117904819Y-64166666D01*
X150166666Y-102404819D02*
X150166666Y-103119104D01*
X150166666Y-103119104D02*
X150119047Y-103261961D01*
X150119047Y-103261961D02*
X150023809Y-103357200D01*
X150023809Y-103357200D02*
X149880952Y-103404819D01*
X149880952Y-103404819D02*
X149785714Y-103404819D01*
X151166666Y-103404819D02*
X150595238Y-103404819D01*
X150880952Y-103404819D02*
X150880952Y-102404819D01*
X150880952Y-102404819D02*
X150785714Y-102547676D01*
X150785714Y-102547676D02*
X150690476Y-102642914D01*
X150690476Y-102642914D02*
X150595238Y-102690533D01*
X158366666Y-37704819D02*
X158366666Y-38419104D01*
X158366666Y-38419104D02*
X158319047Y-38561961D01*
X158319047Y-38561961D02*
X158223809Y-38657200D01*
X158223809Y-38657200D02*
X158080952Y-38704819D01*
X158080952Y-38704819D02*
X157985714Y-38704819D01*
X158795238Y-37800057D02*
X158842857Y-37752438D01*
X158842857Y-37752438D02*
X158938095Y-37704819D01*
X158938095Y-37704819D02*
X159176190Y-37704819D01*
X159176190Y-37704819D02*
X159271428Y-37752438D01*
X159271428Y-37752438D02*
X159319047Y-37800057D01*
X159319047Y-37800057D02*
X159366666Y-37895295D01*
X159366666Y-37895295D02*
X159366666Y-37990533D01*
X159366666Y-37990533D02*
X159319047Y-38133390D01*
X159319047Y-38133390D02*
X158747619Y-38704819D01*
X158747619Y-38704819D02*
X159366666Y-38704819D01*
X140858095Y-78664819D02*
X140858095Y-79474342D01*
X140858095Y-79474342D02*
X140905714Y-79569580D01*
X140905714Y-79569580D02*
X140953333Y-79617200D01*
X140953333Y-79617200D02*
X141048571Y-79664819D01*
X141048571Y-79664819D02*
X141239047Y-79664819D01*
X141239047Y-79664819D02*
X141334285Y-79617200D01*
X141334285Y-79617200D02*
X141381904Y-79569580D01*
X141381904Y-79569580D02*
X141429523Y-79474342D01*
X141429523Y-79474342D02*
X141429523Y-78664819D01*
X141810476Y-78664819D02*
X142429523Y-78664819D01*
X142429523Y-78664819D02*
X142096190Y-79045771D01*
X142096190Y-79045771D02*
X142239047Y-79045771D01*
X142239047Y-79045771D02*
X142334285Y-79093390D01*
X142334285Y-79093390D02*
X142381904Y-79141009D01*
X142381904Y-79141009D02*
X142429523Y-79236247D01*
X142429523Y-79236247D02*
X142429523Y-79474342D01*
X142429523Y-79474342D02*
X142381904Y-79569580D01*
X142381904Y-79569580D02*
X142334285Y-79617200D01*
X142334285Y-79617200D02*
X142239047Y-79664819D01*
X142239047Y-79664819D02*
X141953333Y-79664819D01*
X141953333Y-79664819D02*
X141858095Y-79617200D01*
X141858095Y-79617200D02*
X141810476Y-79569580D01*
X110916666Y-38784819D02*
X110916666Y-39499104D01*
X110916666Y-39499104D02*
X110869047Y-39641961D01*
X110869047Y-39641961D02*
X110773809Y-39737200D01*
X110773809Y-39737200D02*
X110630952Y-39784819D01*
X110630952Y-39784819D02*
X110535714Y-39784819D01*
X111297619Y-38784819D02*
X111916666Y-38784819D01*
X111916666Y-38784819D02*
X111583333Y-39165771D01*
X111583333Y-39165771D02*
X111726190Y-39165771D01*
X111726190Y-39165771D02*
X111821428Y-39213390D01*
X111821428Y-39213390D02*
X111869047Y-39261009D01*
X111869047Y-39261009D02*
X111916666Y-39356247D01*
X111916666Y-39356247D02*
X111916666Y-39594342D01*
X111916666Y-39594342D02*
X111869047Y-39689580D01*
X111869047Y-39689580D02*
X111821428Y-39737200D01*
X111821428Y-39737200D02*
X111726190Y-39784819D01*
X111726190Y-39784819D02*
X111440476Y-39784819D01*
X111440476Y-39784819D02*
X111345238Y-39737200D01*
X111345238Y-39737200D02*
X111297619Y-39689580D01*
X158650954Y-81609580D02*
X158603335Y-81657200D01*
X158603335Y-81657200D02*
X158460478Y-81704819D01*
X158460478Y-81704819D02*
X158365240Y-81704819D01*
X158365240Y-81704819D02*
X158222383Y-81657200D01*
X158222383Y-81657200D02*
X158127145Y-81561961D01*
X158127145Y-81561961D02*
X158079526Y-81466723D01*
X158079526Y-81466723D02*
X158031907Y-81276247D01*
X158031907Y-81276247D02*
X158031907Y-81133390D01*
X158031907Y-81133390D02*
X158079526Y-80942914D01*
X158079526Y-80942914D02*
X158127145Y-80847676D01*
X158127145Y-80847676D02*
X158222383Y-80752438D01*
X158222383Y-80752438D02*
X158365240Y-80704819D01*
X158365240Y-80704819D02*
X158460478Y-80704819D01*
X158460478Y-80704819D02*
X158603335Y-80752438D01*
X158603335Y-80752438D02*
X158650954Y-80800057D01*
X159031907Y-80800057D02*
X159079526Y-80752438D01*
X159079526Y-80752438D02*
X159174764Y-80704819D01*
X159174764Y-80704819D02*
X159412859Y-80704819D01*
X159412859Y-80704819D02*
X159508097Y-80752438D01*
X159508097Y-80752438D02*
X159555716Y-80800057D01*
X159555716Y-80800057D02*
X159603335Y-80895295D01*
X159603335Y-80895295D02*
X159603335Y-80990533D01*
X159603335Y-80990533D02*
X159555716Y-81133390D01*
X159555716Y-81133390D02*
X158984288Y-81704819D01*
X158984288Y-81704819D02*
X159603335Y-81704819D01*
X158650954Y-73759580D02*
X158603335Y-73807200D01*
X158603335Y-73807200D02*
X158460478Y-73854819D01*
X158460478Y-73854819D02*
X158365240Y-73854819D01*
X158365240Y-73854819D02*
X158222383Y-73807200D01*
X158222383Y-73807200D02*
X158127145Y-73711961D01*
X158127145Y-73711961D02*
X158079526Y-73616723D01*
X158079526Y-73616723D02*
X158031907Y-73426247D01*
X158031907Y-73426247D02*
X158031907Y-73283390D01*
X158031907Y-73283390D02*
X158079526Y-73092914D01*
X158079526Y-73092914D02*
X158127145Y-72997676D01*
X158127145Y-72997676D02*
X158222383Y-72902438D01*
X158222383Y-72902438D02*
X158365240Y-72854819D01*
X158365240Y-72854819D02*
X158460478Y-72854819D01*
X158460478Y-72854819D02*
X158603335Y-72902438D01*
X158603335Y-72902438D02*
X158650954Y-72950057D01*
X159603335Y-73854819D02*
X159031907Y-73854819D01*
X159317621Y-73854819D02*
X159317621Y-72854819D01*
X159317621Y-72854819D02*
X159222383Y-72997676D01*
X159222383Y-72997676D02*
X159127145Y-73092914D01*
X159127145Y-73092914D02*
X159031907Y-73140533D01*
X120574405Y-99014819D02*
X120574405Y-98014819D01*
X120574405Y-98014819D02*
X120812500Y-98014819D01*
X120812500Y-98014819D02*
X120955357Y-98062438D01*
X120955357Y-98062438D02*
X121050595Y-98157676D01*
X121050595Y-98157676D02*
X121098214Y-98252914D01*
X121098214Y-98252914D02*
X121145833Y-98443390D01*
X121145833Y-98443390D02*
X121145833Y-98586247D01*
X121145833Y-98586247D02*
X121098214Y-98776723D01*
X121098214Y-98776723D02*
X121050595Y-98871961D01*
X121050595Y-98871961D02*
X120955357Y-98967200D01*
X120955357Y-98967200D02*
X120812500Y-99014819D01*
X120812500Y-99014819D02*
X120574405Y-99014819D01*
X122098214Y-99014819D02*
X121526786Y-99014819D01*
X121812500Y-99014819D02*
X121812500Y-98014819D01*
X121812500Y-98014819D02*
X121717262Y-98157676D01*
X121717262Y-98157676D02*
X121622024Y-98252914D01*
X121622024Y-98252914D02*
X121526786Y-98300533D01*
X139716667Y-57457200D02*
X139859524Y-57504819D01*
X139859524Y-57504819D02*
X140097619Y-57504819D01*
X140097619Y-57504819D02*
X140192857Y-57457200D01*
X140192857Y-57457200D02*
X140240476Y-57409580D01*
X140240476Y-57409580D02*
X140288095Y-57314342D01*
X140288095Y-57314342D02*
X140288095Y-57219104D01*
X140288095Y-57219104D02*
X140240476Y-57123866D01*
X140240476Y-57123866D02*
X140192857Y-57076247D01*
X140192857Y-57076247D02*
X140097619Y-57028628D01*
X140097619Y-57028628D02*
X139907143Y-56981009D01*
X139907143Y-56981009D02*
X139811905Y-56933390D01*
X139811905Y-56933390D02*
X139764286Y-56885771D01*
X139764286Y-56885771D02*
X139716667Y-56790533D01*
X139716667Y-56790533D02*
X139716667Y-56695295D01*
X139716667Y-56695295D02*
X139764286Y-56600057D01*
X139764286Y-56600057D02*
X139811905Y-56552438D01*
X139811905Y-56552438D02*
X139907143Y-56504819D01*
X139907143Y-56504819D02*
X140145238Y-56504819D01*
X140145238Y-56504819D02*
X140288095Y-56552438D01*
X140621429Y-56504819D02*
X140859524Y-57504819D01*
X140859524Y-57504819D02*
X141050000Y-56790533D01*
X141050000Y-56790533D02*
X141240476Y-57504819D01*
X141240476Y-57504819D02*
X141478572Y-56504819D01*
X142288095Y-56838152D02*
X142288095Y-57504819D01*
X142050000Y-56457200D02*
X141811905Y-57171485D01*
X141811905Y-57171485D02*
X142430952Y-57171485D01*
%TO.C,R4*%
D12*
X117715000Y-94935436D02*
X117715000Y-95389564D01*
X119185000Y-94935436D02*
X119185000Y-95389564D01*
%TO.C,R3*%
X120665000Y-94935436D02*
X120665000Y-95389564D01*
X122135000Y-94935436D02*
X122135000Y-95389564D01*
%TO.C,R2*%
X123615000Y-94935436D02*
X123615000Y-95389564D01*
X125085000Y-94935436D02*
X125085000Y-95389564D01*
%TO.C,R5*%
X114765000Y-94935436D02*
X114765000Y-95389564D01*
X116235000Y-94935436D02*
X116235000Y-95389564D01*
%TO.C,R6*%
X111815000Y-94935436D02*
X111815000Y-95389564D01*
X113285000Y-94935436D02*
X113285000Y-95389564D01*
%TO.C,R1*%
X128035000Y-94935436D02*
X128035000Y-95389564D01*
X126565000Y-94935436D02*
X126565000Y-95389564D01*
%TO.C,D2*%
X122312500Y-102290000D02*
X119627500Y-102290000D01*
X119627500Y-104210000D02*
X122312500Y-104210000D01*
X119627500Y-102290000D02*
X119627500Y-104210000D01*
%TO.C,U2*%
X131950000Y-98280000D02*
X131710000Y-97950000D01*
X132190000Y-97950000D01*
X131950000Y-98280000D01*
G36*
X131950000Y-98280000D02*
G01*
X131710000Y-97950000D01*
X132190000Y-97950000D01*
X131950000Y-98280000D01*
G37*
X136610000Y-103310000D02*
X132490000Y-103310000D01*
X136610000Y-103215000D02*
X136610000Y-103310000D01*
X136610000Y-98190000D02*
X136610000Y-98285000D01*
X132490000Y-103310000D02*
X132490000Y-103215000D01*
X132490000Y-98285000D02*
X132490000Y-98190000D01*
X132490000Y-98190000D02*
X136610000Y-98190000D01*
%TO.C,C3*%
X155317380Y-91661000D02*
X155947380Y-91661000D01*
X155632380Y-91346000D02*
X155632380Y-91976000D01*
X158817621Y-90270000D02*
X158817621Y-96730000D01*
X158857621Y-90270000D02*
X158857621Y-96730000D01*
X158897621Y-90271000D02*
X158897621Y-96729000D01*
X158937621Y-90272000D02*
X158937621Y-96728000D01*
X158977621Y-90274000D02*
X158977621Y-96726000D01*
X159017621Y-90276000D02*
X159017621Y-96724000D01*
X159057621Y-90279000D02*
X159057621Y-92460000D01*
X159057621Y-94540000D02*
X159057621Y-96721000D01*
X159097621Y-90282000D02*
X159097621Y-92460000D01*
X159097621Y-94540000D02*
X159097621Y-96718000D01*
X159137621Y-90286000D02*
X159137621Y-92460000D01*
X159137621Y-94540000D02*
X159137621Y-96714000D01*
X159177621Y-90290000D02*
X159177621Y-92460000D01*
X159177621Y-94540000D02*
X159177621Y-96710000D01*
X159217621Y-90295000D02*
X159217621Y-92460000D01*
X159217621Y-94540000D02*
X159217621Y-96705000D01*
X159257621Y-90300000D02*
X159257621Y-92460000D01*
X159257621Y-94540000D02*
X159257621Y-96700000D01*
X159297621Y-90305000D02*
X159297621Y-92460000D01*
X159297621Y-94540000D02*
X159297621Y-96695000D01*
X159337621Y-90312000D02*
X159337621Y-92460000D01*
X159337621Y-94540000D02*
X159337621Y-96688000D01*
X159377621Y-90318000D02*
X159377621Y-92460000D01*
X159377621Y-94540000D02*
X159377621Y-96682000D01*
X159417621Y-90326000D02*
X159417621Y-92460000D01*
X159417621Y-94540000D02*
X159417621Y-96674000D01*
X159457621Y-90333000D02*
X159457621Y-92460000D01*
X159457621Y-94540000D02*
X159457621Y-96667000D01*
X159497621Y-90341000D02*
X159497621Y-92460000D01*
X159497621Y-94540000D02*
X159497621Y-96659000D01*
X159537621Y-90350000D02*
X159537621Y-92460000D01*
X159537621Y-94540000D02*
X159537621Y-96650000D01*
X159577621Y-90360000D02*
X159577621Y-92460000D01*
X159577621Y-94540000D02*
X159577621Y-96640000D01*
X159617621Y-90369000D02*
X159617621Y-92460000D01*
X159617621Y-94540000D02*
X159617621Y-96631000D01*
X159657621Y-90380000D02*
X159657621Y-92460000D01*
X159657621Y-94540000D02*
X159657621Y-96620000D01*
X159697621Y-90391000D02*
X159697621Y-92460000D01*
X159697621Y-94540000D02*
X159697621Y-96609000D01*
X159737621Y-90402000D02*
X159737621Y-92460000D01*
X159737621Y-94540000D02*
X159737621Y-96598000D01*
X159777621Y-90414000D02*
X159777621Y-92460000D01*
X159777621Y-94540000D02*
X159777621Y-96586000D01*
X159817621Y-90427000D02*
X159817621Y-92460000D01*
X159817621Y-94540000D02*
X159817621Y-96573000D01*
X159857621Y-90440000D02*
X159857621Y-92460000D01*
X159857621Y-94540000D02*
X159857621Y-96560000D01*
X159897621Y-90453000D02*
X159897621Y-92460000D01*
X159897621Y-94540000D02*
X159897621Y-96547000D01*
X159937621Y-90468000D02*
X159937621Y-92460000D01*
X159937621Y-94540000D02*
X159937621Y-96532000D01*
X159977621Y-90483000D02*
X159977621Y-92460000D01*
X159977621Y-94540000D02*
X159977621Y-96517000D01*
X160017621Y-90498000D02*
X160017621Y-92460000D01*
X160017621Y-94540000D02*
X160017621Y-96502000D01*
X160057621Y-90514000D02*
X160057621Y-92460000D01*
X160057621Y-94540000D02*
X160057621Y-96486000D01*
X160097621Y-90531000D02*
X160097621Y-92460000D01*
X160097621Y-94540000D02*
X160097621Y-96469000D01*
X160137621Y-90548000D02*
X160137621Y-92460000D01*
X160137621Y-94540000D02*
X160137621Y-96452000D01*
X160177621Y-90566000D02*
X160177621Y-92460000D01*
X160177621Y-94540000D02*
X160177621Y-96434000D01*
X160217621Y-90585000D02*
X160217621Y-92460000D01*
X160217621Y-94540000D02*
X160217621Y-96415000D01*
X160257621Y-90604000D02*
X160257621Y-92460000D01*
X160257621Y-94540000D02*
X160257621Y-96396000D01*
X160297621Y-90624000D02*
X160297621Y-92460000D01*
X160297621Y-94540000D02*
X160297621Y-96376000D01*
X160337621Y-90645000D02*
X160337621Y-92460000D01*
X160337621Y-94540000D02*
X160337621Y-96355000D01*
X160377621Y-90666000D02*
X160377621Y-92460000D01*
X160377621Y-94540000D02*
X160377621Y-96334000D01*
X160417621Y-90688000D02*
X160417621Y-92460000D01*
X160417621Y-94540000D02*
X160417621Y-96312000D01*
X160457621Y-90711000D02*
X160457621Y-92460000D01*
X160457621Y-94540000D02*
X160457621Y-96289000D01*
X160497621Y-90735000D02*
X160497621Y-92460000D01*
X160497621Y-94540000D02*
X160497621Y-96265000D01*
X160537621Y-90759000D02*
X160537621Y-92460000D01*
X160537621Y-94540000D02*
X160537621Y-96241000D01*
X160577621Y-90784000D02*
X160577621Y-92460000D01*
X160577621Y-94540000D02*
X160577621Y-96216000D01*
X160617621Y-90810000D02*
X160617621Y-92460000D01*
X160617621Y-94540000D02*
X160617621Y-96190000D01*
X160657621Y-90837000D02*
X160657621Y-92460000D01*
X160657621Y-94540000D02*
X160657621Y-96163000D01*
X160697621Y-90864000D02*
X160697621Y-92460000D01*
X160697621Y-94540000D02*
X160697621Y-96136000D01*
X160737621Y-90893000D02*
X160737621Y-92460000D01*
X160737621Y-94540000D02*
X160737621Y-96107000D01*
X160777621Y-90923000D02*
X160777621Y-92460000D01*
X160777621Y-94540000D02*
X160777621Y-96077000D01*
X160817621Y-90953000D02*
X160817621Y-92460000D01*
X160817621Y-94540000D02*
X160817621Y-96047000D01*
X160857621Y-90984000D02*
X160857621Y-92460000D01*
X160857621Y-94540000D02*
X160857621Y-96016000D01*
X160897621Y-91017000D02*
X160897621Y-92460000D01*
X160897621Y-94540000D02*
X160897621Y-95983000D01*
X160937621Y-91050000D02*
X160937621Y-92460000D01*
X160937621Y-94540000D02*
X160937621Y-95950000D01*
X160977621Y-91085000D02*
X160977621Y-92460000D01*
X160977621Y-94540000D02*
X160977621Y-95915000D01*
X161017621Y-91121000D02*
X161017621Y-92460000D01*
X161017621Y-94540000D02*
X161017621Y-95879000D01*
X161057621Y-91158000D02*
X161057621Y-92460000D01*
X161057621Y-94540000D02*
X161057621Y-95842000D01*
X161097621Y-91196000D02*
X161097621Y-92460000D01*
X161097621Y-94540000D02*
X161097621Y-95804000D01*
X161137621Y-91236000D02*
X161137621Y-95764000D01*
X161177621Y-91277000D02*
X161177621Y-95723000D01*
X161217621Y-91319000D02*
X161217621Y-95681000D01*
X161257621Y-91363000D02*
X161257621Y-95637000D01*
X161297621Y-91409000D02*
X161297621Y-95591000D01*
X161337621Y-91456000D02*
X161337621Y-95544000D01*
X161377621Y-91505000D02*
X161377621Y-95495000D01*
X161417621Y-91557000D02*
X161417621Y-95443000D01*
X161457621Y-91610000D02*
X161457621Y-95390000D01*
X161497621Y-91666000D02*
X161497621Y-95334000D01*
X161537621Y-91725000D02*
X161537621Y-95275000D01*
X161577621Y-91786000D02*
X161577621Y-95214000D01*
X161617621Y-91851000D02*
X161617621Y-95149000D01*
X161657621Y-91919000D02*
X161657621Y-95081000D01*
X161697621Y-91991000D02*
X161697621Y-95009000D01*
X161737621Y-92068000D02*
X161737621Y-94932000D01*
X161777621Y-92150000D02*
X161777621Y-94850000D01*
X161817621Y-92239000D02*
X161817621Y-94761000D01*
X161857621Y-92335000D02*
X161857621Y-94665000D01*
X161897621Y-92442000D02*
X161897621Y-94558000D01*
X161937621Y-92561000D02*
X161937621Y-94439000D01*
X161977621Y-92699000D02*
X161977621Y-94301000D01*
X162017621Y-92867000D02*
X162017621Y-94133000D01*
X162057621Y-93098000D02*
X162057621Y-93902000D01*
X162087621Y-93500000D02*
G75*
G02*
X155547621Y-93500000I-3270000J0D01*
G01*
X155547621Y-93500000D02*
G75*
G02*
X162087621Y-93500000I3270000J0D01*
G01*
%TO.C,U1*%
D13*
X107014988Y-91866012D02*
G75*
G02*
X106510988Y-91866012I-252000J0D01*
G01*
X106510988Y-91866012D02*
G75*
G02*
X107014988Y-91866012I252000J0D01*
G01*
X107737988Y-90649012D02*
G75*
G02*
X107233988Y-90649012I-252000J0D01*
G01*
X107233988Y-90649012D02*
G75*
G02*
X107737988Y-90649012I252000J0D01*
G01*
D14*
X104305988Y-78752012D02*
G75*
G02*
X104805988Y-78251988I500012J12D01*
G01*
X104805716Y-87247284D02*
G75*
G02*
X104306016Y-86747284I384J500084D01*
G01*
D15*
X106359000Y-75765000D02*
G75*
G02*
X108264000Y-73860000I1905000J0D01*
G01*
X108260000Y-91640000D02*
G75*
G02*
X106355000Y-89735000I0J1905000D01*
G01*
X125409000Y-73860000D02*
G75*
G02*
X127314000Y-75765000I-1J-1905001D01*
G01*
X127314000Y-89735000D02*
G75*
G02*
X125409000Y-91640000I-1905001J1D01*
G01*
D14*
X104305988Y-86747284D02*
X104305988Y-78752012D01*
X104805988Y-78252012D02*
X106350000Y-78251000D01*
X106347000Y-87248000D02*
X104805716Y-87247284D01*
D15*
X106359000Y-75765000D02*
X106359000Y-89735000D01*
X125409000Y-73860000D02*
X108264000Y-73860000D01*
X125409000Y-91640000D02*
X108264000Y-91640000D01*
X127314000Y-89735000D02*
X127314000Y-75765000D01*
%TO.C,SW1*%
D12*
X113900000Y-62000000D02*
X112400000Y-62000000D01*
X109900000Y-63250000D02*
X109900000Y-67750000D01*
X116400000Y-67750000D02*
X116400000Y-63250000D01*
X112400000Y-69000000D02*
X113900000Y-69000000D01*
%TO.C,C4*%
X114325000Y-99331248D02*
X114325000Y-99853752D01*
X115795000Y-99331248D02*
X115795000Y-99853752D01*
%TO.C,SW3*%
X131000000Y-62000000D02*
X129500000Y-62000000D01*
X127000000Y-63250000D02*
X127000000Y-67750000D01*
X133500000Y-67750000D02*
X133500000Y-63250000D01*
X129500000Y-69000000D02*
X131000000Y-69000000D01*
%TO.C,SW2*%
X122450000Y-62000000D02*
X120950000Y-62000000D01*
X118450000Y-63250000D02*
X118450000Y-67750000D01*
X124950000Y-67750000D02*
X124950000Y-63250000D01*
X120950000Y-69000000D02*
X122450000Y-69000000D01*
%TO.C,J1*%
X151800000Y-108000000D02*
X152800000Y-108000000D01*
X152800000Y-109600000D01*
X151800000Y-109600000D01*
X151800000Y-108000000D01*
X148200000Y-108000000D02*
X149200000Y-108000000D01*
X149200000Y-109600000D01*
X148200000Y-109600000D01*
X148200000Y-108000000D01*
X153560000Y-111860000D02*
X153560000Y-104040000D01*
X153560000Y-105640000D02*
X152640000Y-105640000D01*
X153560000Y-104040000D02*
X152640000Y-104040000D01*
X152640000Y-105640000D02*
X152360000Y-105640000D01*
X152640000Y-104040000D02*
X152640000Y-105640000D01*
X151000000Y-107500000D02*
X151000000Y-111860000D01*
X150000000Y-111860000D02*
X150000000Y-107500000D01*
X150000000Y-107500000D02*
X151000000Y-107500000D01*
X149200000Y-109600000D02*
X149200000Y-111860000D01*
X148700000Y-109600000D02*
X148700000Y-111860000D01*
X148640000Y-105640000D02*
X148640000Y-104425000D01*
X148640000Y-105640000D02*
X148360000Y-105640000D01*
X148360000Y-105640000D02*
X148360000Y-104040000D01*
X148360000Y-104040000D02*
X147440000Y-104040000D01*
X147440000Y-111860000D02*
X153560000Y-111860000D01*
X147440000Y-105640000D02*
X148360000Y-105640000D01*
X147440000Y-104040000D02*
X147440000Y-111860000D01*
%TO.C,J2*%
X161800000Y-52200000D02*
X155600000Y-52200000D01*
X161800000Y-43300000D02*
X161800000Y-52200000D01*
X161800000Y-37500000D02*
X161800000Y-40700000D01*
X161300000Y-37500000D02*
X161800000Y-37500000D01*
X161300000Y-35000000D02*
X161300000Y-37500000D01*
X156100000Y-37500000D02*
X156100000Y-35000000D01*
X156100000Y-35000000D02*
X161300000Y-35000000D01*
X155600000Y-52200000D02*
X155600000Y-51000000D01*
X155600000Y-47800000D02*
X155600000Y-41300000D01*
X155600000Y-41300000D02*
X153600000Y-41300000D01*
X155600000Y-38700000D02*
X155600000Y-37500000D01*
X155600000Y-38700000D02*
X153600000Y-38700000D01*
X155600000Y-37500000D02*
X156100000Y-37500000D01*
%TO.C,J3*%
X109870000Y-40330000D02*
X111250000Y-40330000D01*
X109870000Y-41710000D02*
X109870000Y-40330000D01*
X109870000Y-42980000D02*
X109870000Y-50710000D01*
X109870000Y-42980000D02*
X112630000Y-42980000D01*
X109870000Y-50710000D02*
X112630000Y-50710000D01*
X112630000Y-42980000D02*
X112630000Y-50710000D01*
%TO.C,C2*%
X155317380Y-83811000D02*
X155947380Y-83811000D01*
X155632380Y-83496000D02*
X155632380Y-84126000D01*
X158817621Y-82420000D02*
X158817621Y-88880000D01*
X158857621Y-82420000D02*
X158857621Y-88880000D01*
X158897621Y-82421000D02*
X158897621Y-88879000D01*
X158937621Y-82422000D02*
X158937621Y-88878000D01*
X158977621Y-82424000D02*
X158977621Y-88876000D01*
X159017621Y-82426000D02*
X159017621Y-88874000D01*
X159057621Y-82429000D02*
X159057621Y-84610000D01*
X159057621Y-86690000D02*
X159057621Y-88871000D01*
X159097621Y-82432000D02*
X159097621Y-84610000D01*
X159097621Y-86690000D02*
X159097621Y-88868000D01*
X159137621Y-82436000D02*
X159137621Y-84610000D01*
X159137621Y-86690000D02*
X159137621Y-88864000D01*
X159177621Y-82440000D02*
X159177621Y-84610000D01*
X159177621Y-86690000D02*
X159177621Y-88860000D01*
X159217621Y-82445000D02*
X159217621Y-84610000D01*
X159217621Y-86690000D02*
X159217621Y-88855000D01*
X159257621Y-82450000D02*
X159257621Y-84610000D01*
X159257621Y-86690000D02*
X159257621Y-88850000D01*
X159297621Y-82455000D02*
X159297621Y-84610000D01*
X159297621Y-86690000D02*
X159297621Y-88845000D01*
X159337621Y-82462000D02*
X159337621Y-84610000D01*
X159337621Y-86690000D02*
X159337621Y-88838000D01*
X159377621Y-82468000D02*
X159377621Y-84610000D01*
X159377621Y-86690000D02*
X159377621Y-88832000D01*
X159417621Y-82476000D02*
X159417621Y-84610000D01*
X159417621Y-86690000D02*
X159417621Y-88824000D01*
X159457621Y-82483000D02*
X159457621Y-84610000D01*
X159457621Y-86690000D02*
X159457621Y-88817000D01*
X159497621Y-82491000D02*
X159497621Y-84610000D01*
X159497621Y-86690000D02*
X159497621Y-88809000D01*
X159537621Y-82500000D02*
X159537621Y-84610000D01*
X159537621Y-86690000D02*
X159537621Y-88800000D01*
X159577621Y-82510000D02*
X159577621Y-84610000D01*
X159577621Y-86690000D02*
X159577621Y-88790000D01*
X159617621Y-82519000D02*
X159617621Y-84610000D01*
X159617621Y-86690000D02*
X159617621Y-88781000D01*
X159657621Y-82530000D02*
X159657621Y-84610000D01*
X159657621Y-86690000D02*
X159657621Y-88770000D01*
X159697621Y-82541000D02*
X159697621Y-84610000D01*
X159697621Y-86690000D02*
X159697621Y-88759000D01*
X159737621Y-82552000D02*
X159737621Y-84610000D01*
X159737621Y-86690000D02*
X159737621Y-88748000D01*
X159777621Y-82564000D02*
X159777621Y-84610000D01*
X159777621Y-86690000D02*
X159777621Y-88736000D01*
X159817621Y-82577000D02*
X159817621Y-84610000D01*
X159817621Y-86690000D02*
X159817621Y-88723000D01*
X159857621Y-82590000D02*
X159857621Y-84610000D01*
X159857621Y-86690000D02*
X159857621Y-88710000D01*
X159897621Y-82603000D02*
X159897621Y-84610000D01*
X159897621Y-86690000D02*
X159897621Y-88697000D01*
X159937621Y-82618000D02*
X159937621Y-84610000D01*
X159937621Y-86690000D02*
X159937621Y-88682000D01*
X159977621Y-82633000D02*
X159977621Y-84610000D01*
X159977621Y-86690000D02*
X159977621Y-88667000D01*
X160017621Y-82648000D02*
X160017621Y-84610000D01*
X160017621Y-86690000D02*
X160017621Y-88652000D01*
X160057621Y-82664000D02*
X160057621Y-84610000D01*
X160057621Y-86690000D02*
X160057621Y-88636000D01*
X160097621Y-82681000D02*
X160097621Y-84610000D01*
X160097621Y-86690000D02*
X160097621Y-88619000D01*
X160137621Y-82698000D02*
X160137621Y-84610000D01*
X160137621Y-86690000D02*
X160137621Y-88602000D01*
X160177621Y-82716000D02*
X160177621Y-84610000D01*
X160177621Y-86690000D02*
X160177621Y-88584000D01*
X160217621Y-82735000D02*
X160217621Y-84610000D01*
X160217621Y-86690000D02*
X160217621Y-88565000D01*
X160257621Y-82754000D02*
X160257621Y-84610000D01*
X160257621Y-86690000D02*
X160257621Y-88546000D01*
X160297621Y-82774000D02*
X160297621Y-84610000D01*
X160297621Y-86690000D02*
X160297621Y-88526000D01*
X160337621Y-82795000D02*
X160337621Y-84610000D01*
X160337621Y-86690000D02*
X160337621Y-88505000D01*
X160377621Y-82816000D02*
X160377621Y-84610000D01*
X160377621Y-86690000D02*
X160377621Y-88484000D01*
X160417621Y-82838000D02*
X160417621Y-84610000D01*
X160417621Y-86690000D02*
X160417621Y-88462000D01*
X160457621Y-82861000D02*
X160457621Y-84610000D01*
X160457621Y-86690000D02*
X160457621Y-88439000D01*
X160497621Y-82885000D02*
X160497621Y-84610000D01*
X160497621Y-86690000D02*
X160497621Y-88415000D01*
X160537621Y-82909000D02*
X160537621Y-84610000D01*
X160537621Y-86690000D02*
X160537621Y-88391000D01*
X160577621Y-82934000D02*
X160577621Y-84610000D01*
X160577621Y-86690000D02*
X160577621Y-88366000D01*
X160617621Y-82960000D02*
X160617621Y-84610000D01*
X160617621Y-86690000D02*
X160617621Y-88340000D01*
X160657621Y-82987000D02*
X160657621Y-84610000D01*
X160657621Y-86690000D02*
X160657621Y-88313000D01*
X160697621Y-83014000D02*
X160697621Y-84610000D01*
X160697621Y-86690000D02*
X160697621Y-88286000D01*
X160737621Y-83043000D02*
X160737621Y-84610000D01*
X160737621Y-86690000D02*
X160737621Y-88257000D01*
X160777621Y-83073000D02*
X160777621Y-84610000D01*
X160777621Y-86690000D02*
X160777621Y-88227000D01*
X160817621Y-83103000D02*
X160817621Y-84610000D01*
X160817621Y-86690000D02*
X160817621Y-88197000D01*
X160857621Y-83134000D02*
X160857621Y-84610000D01*
X160857621Y-86690000D02*
X160857621Y-88166000D01*
X160897621Y-83167000D02*
X160897621Y-84610000D01*
X160897621Y-86690000D02*
X160897621Y-88133000D01*
X160937621Y-83200000D02*
X160937621Y-84610000D01*
X160937621Y-86690000D02*
X160937621Y-88100000D01*
X160977621Y-83235000D02*
X160977621Y-84610000D01*
X160977621Y-86690000D02*
X160977621Y-88065000D01*
X161017621Y-83271000D02*
X161017621Y-84610000D01*
X161017621Y-86690000D02*
X161017621Y-88029000D01*
X161057621Y-83308000D02*
X161057621Y-84610000D01*
X161057621Y-86690000D02*
X161057621Y-87992000D01*
X161097621Y-83346000D02*
X161097621Y-84610000D01*
X161097621Y-86690000D02*
X161097621Y-87954000D01*
X161137621Y-83386000D02*
X161137621Y-87914000D01*
X161177621Y-83427000D02*
X161177621Y-87873000D01*
X161217621Y-83469000D02*
X161217621Y-87831000D01*
X161257621Y-83513000D02*
X161257621Y-87787000D01*
X161297621Y-83559000D02*
X161297621Y-87741000D01*
X161337621Y-83606000D02*
X161337621Y-87694000D01*
X161377621Y-83655000D02*
X161377621Y-87645000D01*
X161417621Y-83707000D02*
X161417621Y-87593000D01*
X161457621Y-83760000D02*
X161457621Y-87540000D01*
X161497621Y-83816000D02*
X161497621Y-87484000D01*
X161537621Y-83875000D02*
X161537621Y-87425000D01*
X161577621Y-83936000D02*
X161577621Y-87364000D01*
X161617621Y-84001000D02*
X161617621Y-87299000D01*
X161657621Y-84069000D02*
X161657621Y-87231000D01*
X161697621Y-84141000D02*
X161697621Y-87159000D01*
X161737621Y-84218000D02*
X161737621Y-87082000D01*
X161777621Y-84300000D02*
X161777621Y-87000000D01*
X161817621Y-84389000D02*
X161817621Y-86911000D01*
X161857621Y-84485000D02*
X161857621Y-86815000D01*
X161897621Y-84592000D02*
X161897621Y-86708000D01*
X161937621Y-84711000D02*
X161937621Y-86589000D01*
X161977621Y-84849000D02*
X161977621Y-86451000D01*
X162017621Y-85017000D02*
X162017621Y-86283000D01*
X162057621Y-85248000D02*
X162057621Y-86052000D01*
X162087621Y-85650000D02*
G75*
G02*
X155547621Y-85650000I-3270000J0D01*
G01*
X155547621Y-85650000D02*
G75*
G02*
X162087621Y-85650000I3270000J0D01*
G01*
%TO.C,C1*%
X155317380Y-75961000D02*
X155947380Y-75961000D01*
X155632380Y-75646000D02*
X155632380Y-76276000D01*
X158817621Y-74570000D02*
X158817621Y-81030000D01*
X158857621Y-74570000D02*
X158857621Y-81030000D01*
X158897621Y-74571000D02*
X158897621Y-81029000D01*
X158937621Y-74572000D02*
X158937621Y-81028000D01*
X158977621Y-74574000D02*
X158977621Y-81026000D01*
X159017621Y-74576000D02*
X159017621Y-81024000D01*
X159057621Y-74579000D02*
X159057621Y-76760000D01*
X159057621Y-78840000D02*
X159057621Y-81021000D01*
X159097621Y-74582000D02*
X159097621Y-76760000D01*
X159097621Y-78840000D02*
X159097621Y-81018000D01*
X159137621Y-74586000D02*
X159137621Y-76760000D01*
X159137621Y-78840000D02*
X159137621Y-81014000D01*
X159177621Y-74590000D02*
X159177621Y-76760000D01*
X159177621Y-78840000D02*
X159177621Y-81010000D01*
X159217621Y-74595000D02*
X159217621Y-76760000D01*
X159217621Y-78840000D02*
X159217621Y-81005000D01*
X159257621Y-74600000D02*
X159257621Y-76760000D01*
X159257621Y-78840000D02*
X159257621Y-81000000D01*
X159297621Y-74605000D02*
X159297621Y-76760000D01*
X159297621Y-78840000D02*
X159297621Y-80995000D01*
X159337621Y-74612000D02*
X159337621Y-76760000D01*
X159337621Y-78840000D02*
X159337621Y-80988000D01*
X159377621Y-74618000D02*
X159377621Y-76760000D01*
X159377621Y-78840000D02*
X159377621Y-80982000D01*
X159417621Y-74626000D02*
X159417621Y-76760000D01*
X159417621Y-78840000D02*
X159417621Y-80974000D01*
X159457621Y-74633000D02*
X159457621Y-76760000D01*
X159457621Y-78840000D02*
X159457621Y-80967000D01*
X159497621Y-74641000D02*
X159497621Y-76760000D01*
X159497621Y-78840000D02*
X159497621Y-80959000D01*
X159537621Y-74650000D02*
X159537621Y-76760000D01*
X159537621Y-78840000D02*
X159537621Y-80950000D01*
X159577621Y-74660000D02*
X159577621Y-76760000D01*
X159577621Y-78840000D02*
X159577621Y-80940000D01*
X159617621Y-74669000D02*
X159617621Y-76760000D01*
X159617621Y-78840000D02*
X159617621Y-80931000D01*
X159657621Y-74680000D02*
X159657621Y-76760000D01*
X159657621Y-78840000D02*
X159657621Y-80920000D01*
X159697621Y-74691000D02*
X159697621Y-76760000D01*
X159697621Y-78840000D02*
X159697621Y-80909000D01*
X159737621Y-74702000D02*
X159737621Y-76760000D01*
X159737621Y-78840000D02*
X159737621Y-80898000D01*
X159777621Y-74714000D02*
X159777621Y-76760000D01*
X159777621Y-78840000D02*
X159777621Y-80886000D01*
X159817621Y-74727000D02*
X159817621Y-76760000D01*
X159817621Y-78840000D02*
X159817621Y-80873000D01*
X159857621Y-74740000D02*
X159857621Y-76760000D01*
X159857621Y-78840000D02*
X159857621Y-80860000D01*
X159897621Y-74753000D02*
X159897621Y-76760000D01*
X159897621Y-78840000D02*
X159897621Y-80847000D01*
X159937621Y-74768000D02*
X159937621Y-76760000D01*
X159937621Y-78840000D02*
X159937621Y-80832000D01*
X159977621Y-74783000D02*
X159977621Y-76760000D01*
X159977621Y-78840000D02*
X159977621Y-80817000D01*
X160017621Y-74798000D02*
X160017621Y-76760000D01*
X160017621Y-78840000D02*
X160017621Y-80802000D01*
X160057621Y-74814000D02*
X160057621Y-76760000D01*
X160057621Y-78840000D02*
X160057621Y-80786000D01*
X160097621Y-74831000D02*
X160097621Y-76760000D01*
X160097621Y-78840000D02*
X160097621Y-80769000D01*
X160137621Y-74848000D02*
X160137621Y-76760000D01*
X160137621Y-78840000D02*
X160137621Y-80752000D01*
X160177621Y-74866000D02*
X160177621Y-76760000D01*
X160177621Y-78840000D02*
X160177621Y-80734000D01*
X160217621Y-74885000D02*
X160217621Y-76760000D01*
X160217621Y-78840000D02*
X160217621Y-80715000D01*
X160257621Y-74904000D02*
X160257621Y-76760000D01*
X160257621Y-78840000D02*
X160257621Y-80696000D01*
X160297621Y-74924000D02*
X160297621Y-76760000D01*
X160297621Y-78840000D02*
X160297621Y-80676000D01*
X160337621Y-74945000D02*
X160337621Y-76760000D01*
X160337621Y-78840000D02*
X160337621Y-80655000D01*
X160377621Y-74966000D02*
X160377621Y-76760000D01*
X160377621Y-78840000D02*
X160377621Y-80634000D01*
X160417621Y-74988000D02*
X160417621Y-76760000D01*
X160417621Y-78840000D02*
X160417621Y-80612000D01*
X160457621Y-75011000D02*
X160457621Y-76760000D01*
X160457621Y-78840000D02*
X160457621Y-80589000D01*
X160497621Y-75035000D02*
X160497621Y-76760000D01*
X160497621Y-78840000D02*
X160497621Y-80565000D01*
X160537621Y-75059000D02*
X160537621Y-76760000D01*
X160537621Y-78840000D02*
X160537621Y-80541000D01*
X160577621Y-75084000D02*
X160577621Y-76760000D01*
X160577621Y-78840000D02*
X160577621Y-80516000D01*
X160617621Y-75110000D02*
X160617621Y-76760000D01*
X160617621Y-78840000D02*
X160617621Y-80490000D01*
X160657621Y-75137000D02*
X160657621Y-76760000D01*
X160657621Y-78840000D02*
X160657621Y-80463000D01*
X160697621Y-75164000D02*
X160697621Y-76760000D01*
X160697621Y-78840000D02*
X160697621Y-80436000D01*
X160737621Y-75193000D02*
X160737621Y-76760000D01*
X160737621Y-78840000D02*
X160737621Y-80407000D01*
X160777621Y-75223000D02*
X160777621Y-76760000D01*
X160777621Y-78840000D02*
X160777621Y-80377000D01*
X160817621Y-75253000D02*
X160817621Y-76760000D01*
X160817621Y-78840000D02*
X160817621Y-80347000D01*
X160857621Y-75284000D02*
X160857621Y-76760000D01*
X160857621Y-78840000D02*
X160857621Y-80316000D01*
X160897621Y-75317000D02*
X160897621Y-76760000D01*
X160897621Y-78840000D02*
X160897621Y-80283000D01*
X160937621Y-75350000D02*
X160937621Y-76760000D01*
X160937621Y-78840000D02*
X160937621Y-80250000D01*
X160977621Y-75385000D02*
X160977621Y-76760000D01*
X160977621Y-78840000D02*
X160977621Y-80215000D01*
X161017621Y-75421000D02*
X161017621Y-76760000D01*
X161017621Y-78840000D02*
X161017621Y-80179000D01*
X161057621Y-75458000D02*
X161057621Y-76760000D01*
X161057621Y-78840000D02*
X161057621Y-80142000D01*
X161097621Y-75496000D02*
X161097621Y-76760000D01*
X161097621Y-78840000D02*
X161097621Y-80104000D01*
X161137621Y-75536000D02*
X161137621Y-80064000D01*
X161177621Y-75577000D02*
X161177621Y-80023000D01*
X161217621Y-75619000D02*
X161217621Y-79981000D01*
X161257621Y-75663000D02*
X161257621Y-79937000D01*
X161297621Y-75709000D02*
X161297621Y-79891000D01*
X161337621Y-75756000D02*
X161337621Y-79844000D01*
X161377621Y-75805000D02*
X161377621Y-79795000D01*
X161417621Y-75857000D02*
X161417621Y-79743000D01*
X161457621Y-75910000D02*
X161457621Y-79690000D01*
X161497621Y-75966000D02*
X161497621Y-79634000D01*
X161537621Y-76025000D02*
X161537621Y-79575000D01*
X161577621Y-76086000D02*
X161577621Y-79514000D01*
X161617621Y-76151000D02*
X161617621Y-79449000D01*
X161657621Y-76219000D02*
X161657621Y-79381000D01*
X161697621Y-76291000D02*
X161697621Y-79309000D01*
X161737621Y-76368000D02*
X161737621Y-79232000D01*
X161777621Y-76450000D02*
X161777621Y-79150000D01*
X161817621Y-76539000D02*
X161817621Y-79061000D01*
X161857621Y-76635000D02*
X161857621Y-78965000D01*
X161897621Y-76742000D02*
X161897621Y-78858000D01*
X161937621Y-76861000D02*
X161937621Y-78739000D01*
X161977621Y-76999000D02*
X161977621Y-78601000D01*
X162017621Y-77167000D02*
X162017621Y-78433000D01*
X162057621Y-77398000D02*
X162057621Y-78202000D01*
X162087621Y-77800000D02*
G75*
G02*
X155547621Y-77800000I-3270000J0D01*
G01*
X155547621Y-77800000D02*
G75*
G02*
X162087621Y-77800000I3270000J0D01*
G01*
%TO.C,D1*%
X122312500Y-99250000D02*
X119627500Y-99250000D01*
X119627500Y-101170000D02*
X122312500Y-101170000D01*
X119627500Y-99250000D02*
X119627500Y-101170000D01*
%TO.C,SW4*%
X148750000Y-64250000D02*
G75*
G02*
X142750000Y-64250000I-3000000J0D01*
G01*
X142750000Y-64250000D02*
G75*
G02*
X148750000Y-64250000I3000000J0D01*
G01*
X151850000Y-70150000D02*
X147750000Y-70150000D01*
X151850000Y-67750000D02*
X151850000Y-70150000D01*
X151850000Y-62950000D02*
X151850000Y-65550000D01*
X151850000Y-58350000D02*
X151850000Y-60750000D01*
X147750000Y-58350000D02*
X151850000Y-58350000D01*
X145750000Y-63750000D02*
X145750000Y-64750000D01*
X145250000Y-64250000D02*
X146250000Y-64250000D01*
X143750000Y-70150000D02*
X139650000Y-70150000D01*
X143750000Y-58350000D02*
X139650000Y-58350000D01*
X139650000Y-58350000D02*
X139650000Y-70150000D01*
X138550000Y-60150000D02*
X138250000Y-60450000D01*
X138250000Y-60450000D02*
X137950000Y-60150000D01*
X137950000Y-60150000D02*
X138550000Y-60150000D01*
%TD*%
M02*
