%TF.GenerationSoftware,KiCad,Pcbnew,10.0.4*%
%TF.CreationDate,2026-08-19T21:13:38-07:00*%
%TF.ProjectId,musicplayer-frfr,6d757369-6370-46c6-9179-65722d667266,rev?*%
%TF.SameCoordinates,Original*%
%TF.FileFunction,Paste,Top*%
%TF.FilePolarity,Positive*%
%FSLAX46Y46*%
G04 Gerber Fmt 4.6, Leading zero omitted, Abs format (unit mm)*
G04 Created by KiCad (PCBNEW 10.0.4) date 2026-08-19 21:13:38*
%MOMM*%
%LPD*%
G01*
G04 APERTURE LIST*
G04 Aperture macros list*
%AMRoundRect*
0 Rectangle with rounded corners*
0 $1 Rounding radius*
0 $2 $3 $4 $5 $6 $7 $8 $9 X,Y pos of 4 corners*
0 Add a 4 corners polygon primitive as box body*
4,1,4,$2,$3,$4,$5,$6,$7,$8,$9,$2,$3,0*
0 Add four circle primitives for the rounded corners*
1,1,$1+$1,$2,$3*
1,1,$1+$1,$4,$5*
1,1,$1+$1,$6,$7*
1,1,$1+$1,$8,$9*
0 Add four rect primitives between the rounded corners*
20,1,$1+$1,$2,$3,$4,$5,0*
20,1,$1+$1,$4,$5,$6,$7,0*
20,1,$1+$1,$6,$7,$8,$9,0*
20,1,$1+$1,$8,$9,$2,$3,0*%
G04 Aperture macros list end*
%ADD10RoundRect,0.250000X-0.450000X0.262500X-0.450000X-0.262500X0.450000X-0.262500X0.450000X0.262500X0*%
%ADD11RoundRect,0.243750X-0.243750X-0.456250X0.243750X-0.456250X0.243750X0.456250X-0.243750X0.456250X0*%
%ADD12RoundRect,0.150000X-0.825000X-0.150000X0.825000X-0.150000X0.825000X0.150000X-0.825000X0.150000X0*%
%ADD13RoundRect,0.250000X-0.255000X-0.440000X0.255000X-0.440000X0.255000X0.440000X-0.255000X0.440000X0*%
%ADD14RoundRect,0.110000X-1.140000X-0.440000X1.140000X-0.440000X1.140000X0.440000X-1.140000X0.440000X0*%
%ADD15C,1.700000*%
%ADD16RoundRect,0.200000X0.800000X-1.175000X0.800000X1.175000X-0.800000X1.175000X-0.800000X-1.175000X0*%
%ADD17RoundRect,0.200000X-0.800000X1.175000X-0.800000X-1.175000X0.800000X-1.175000X0.800000X1.175000X0*%
%ADD18RoundRect,0.250000X-0.475000X0.250000X-0.475000X-0.250000X0.475000X-0.250000X0.475000X0.250000X0*%
%ADD19R,2.800000X2.800000*%
%ADD20R,2.800000X2.200000*%
G04 APERTURE END LIST*
D10*
%TO.C,R4*%
X118450000Y-96075000D03*
X118450000Y-94250000D03*
%TD*%
%TO.C,R3*%
X121400000Y-96075000D03*
X121400000Y-94250000D03*
%TD*%
%TO.C,R2*%
X124350000Y-96075000D03*
X124350000Y-94250000D03*
%TD*%
%TO.C,R5*%
X115500000Y-96075000D03*
X115500000Y-94250000D03*
%TD*%
%TO.C,R6*%
X112550000Y-96075000D03*
X112550000Y-94250000D03*
%TD*%
%TO.C,R1*%
X127300000Y-94250000D03*
X127300000Y-96075000D03*
%TD*%
D11*
%TO.C,D2*%
X122250000Y-103250000D03*
X120375000Y-103250000D03*
%TD*%
D12*
%TO.C,U2*%
X137025000Y-98845000D03*
X137025000Y-100115000D03*
X137025000Y-101385000D03*
X137025000Y-102655000D03*
X132075000Y-102655000D03*
X132075000Y-101385000D03*
X132075000Y-100115000D03*
X132075000Y-98845000D03*
D13*
X135150000Y-101575000D03*
X135150000Y-99925000D03*
X133950000Y-101575000D03*
X133950000Y-99925000D03*
%TD*%
D14*
%TO.C,U1*%
X121874811Y-81750000D03*
X121874811Y-83750000D03*
D15*
X113330000Y-81480000D03*
X113330000Y-84020000D03*
X110790000Y-81480000D03*
X110790000Y-84020000D03*
X108250000Y-81480000D03*
X108250000Y-84020000D03*
X113090000Y-87909006D03*
X115630000Y-87909006D03*
X118170000Y-87909006D03*
X120710000Y-87909006D03*
X120710000Y-77749006D03*
X118170000Y-77749006D03*
X115630000Y-77749006D03*
X113090000Y-77749006D03*
D16*
X109280000Y-74667500D03*
X111820000Y-74667500D03*
X114360000Y-74667500D03*
X116900000Y-74667500D03*
X119440000Y-74667500D03*
X121980000Y-74667500D03*
X124520000Y-74667500D03*
D17*
X124520000Y-90832500D03*
X121980000Y-90832500D03*
X119440000Y-90832500D03*
X116900000Y-90832500D03*
X114360000Y-90832500D03*
X111820000Y-90832500D03*
X109280000Y-90832500D03*
%TD*%
D18*
%TO.C,C4*%
X115060000Y-100542500D03*
X115060000Y-98642500D03*
%TD*%
D19*
%TO.C,J2*%
X155000000Y-49400000D03*
D20*
X155000000Y-40000000D03*
X162400000Y-42000000D03*
%TD*%
D11*
%TO.C,D1*%
X122250000Y-100210000D03*
X120375000Y-100210000D03*
%TD*%
M02*
