%TF.GenerationSoftware,KiCad,Pcbnew,10.0.4*%
%TF.CreationDate,2026-08-21T15:58:06-07:00*%
%TF.ProjectId,musicplayer-frfr,6d757369-6370-46c6-9179-65722d667266,rev?*%
%TF.SameCoordinates,Original*%
%TF.FileFunction,Paste,Top*%
%TF.FilePolarity,Positive*%
%FSLAX46Y46*%
G04 Gerber Fmt 4.6, Leading zero omitted, Abs format (unit mm)*
G04 Created by KiCad (PCBNEW 10.0.4) date 2026-08-21 15:58:06*
%MOMM*%
%LPD*%
G01*
G04 APERTURE LIST*
G04 Aperture macros list*
%AMRoundRect*
0 Rectangle with rounded corners*
0 $1 Rounding radius*
0 $2 $3 $4 $5 $6 $7 $8 $9 X,Y pos of 4 corners*
0 Add a 4 corners polygon primitive as box body*
4,1,4,$2,$3,$4,$5,$6,$7,$8,$9,$2,$3,0*
0 Add four circle primitives for the rounded corners*
1,1,$1+$1,$2,$3*
1,1,$1+$1,$4,$5*
1,1,$1+$1,$6,$7*
1,1,$1+$1,$8,$9*
0 Add four rect primitives between the rounded corners*
20,1,$1+$1,$2,$3,$4,$5,0*
20,1,$1+$1,$4,$5,$6,$7,0*
20,1,$1+$1,$6,$7,$8,$9,0*
20,1,$1+$1,$8,$9,$2,$3,0*%
G04 Aperture macros list end*
%ADD10RoundRect,0.250000X-0.262500X-0.450000X0.262500X-0.450000X0.262500X0.450000X-0.262500X0.450000X0*%
%ADD11RoundRect,0.250000X-0.255000X-0.440000X0.255000X-0.440000X0.255000X0.440000X-0.255000X0.440000X0*%
%ADD12RoundRect,0.150000X-0.825000X-0.150000X0.825000X-0.150000X0.825000X0.150000X-0.825000X0.150000X0*%
%ADD13RoundRect,0.200000X-1.175000X-0.800000X1.175000X-0.800000X1.175000X0.800000X-1.175000X0.800000X0*%
%ADD14RoundRect,0.200000X1.175000X0.800000X-1.175000X0.800000X-1.175000X-0.800000X1.175000X-0.800000X0*%
%ADD15C,1.700000*%
%ADD16RoundRect,0.110000X0.440000X-1.140000X0.440000X1.140000X-0.440000X1.140000X-0.440000X-1.140000X0*%
%ADD17RoundRect,0.250000X-0.250000X-0.475000X0.250000X-0.475000X0.250000X0.475000X-0.250000X0.475000X0*%
%ADD18R,2.800000X2.200000*%
%ADD19R,2.800000X2.800000*%
%ADD20RoundRect,0.243750X-0.243750X-0.456250X0.243750X-0.456250X0.243750X0.456250X-0.243750X0.456250X0*%
G04 APERTURE END LIST*
D10*
%TO.C,R5*%
X137500000Y-81750000D03*
X139325000Y-81750000D03*
%TD*%
%TO.C,R1*%
X131837500Y-97000000D03*
X133662500Y-97000000D03*
%TD*%
D11*
%TO.C,U2*%
X139950000Y-99475000D03*
X139950000Y-101125000D03*
X141150000Y-99475000D03*
X141150000Y-101125000D03*
D12*
X138075000Y-98395000D03*
X138075000Y-99665000D03*
X138075000Y-100935000D03*
X138075000Y-102205000D03*
X143025000Y-102205000D03*
X143025000Y-100935000D03*
X143025000Y-99665000D03*
X143025000Y-98395000D03*
%TD*%
D13*
%TO.C,U1*%
X128582500Y-109500000D03*
X128582500Y-106960000D03*
X128582500Y-104420000D03*
X128582500Y-101880000D03*
X128582500Y-99340000D03*
X128582500Y-96800000D03*
X128582500Y-94260000D03*
D14*
X112417500Y-94260000D03*
X112417500Y-96800000D03*
X112417500Y-99340000D03*
X112417500Y-101880000D03*
X112417500Y-104420000D03*
X112417500Y-106960000D03*
X112417500Y-109500000D03*
D15*
X115499006Y-105690000D03*
X115499006Y-103150000D03*
X115499006Y-100610000D03*
X115499006Y-98070000D03*
X125659006Y-98070000D03*
X125659006Y-100610000D03*
X125659006Y-103150000D03*
X125659006Y-105690000D03*
X121770000Y-110530000D03*
X119230000Y-110530000D03*
X121770000Y-107990000D03*
X119230000Y-107990000D03*
X121770000Y-105450000D03*
X119230000Y-105450000D03*
D16*
X121500000Y-96905189D03*
X119500000Y-96905189D03*
%TD*%
D17*
%TO.C,C4*%
X137300000Y-91750000D03*
X139200000Y-91750000D03*
%TD*%
D10*
%TO.C,R6*%
X137087500Y-86500000D03*
X138912500Y-86500000D03*
%TD*%
D18*
%TO.C,J2*%
X160650000Y-42000000D03*
X153250000Y-40000000D03*
D19*
X153250000Y-49400000D03*
%TD*%
D20*
%TO.C,D2*%
X162875000Y-103790000D03*
X164750000Y-103790000D03*
%TD*%
D10*
%TO.C,R4*%
X131837500Y-81750000D03*
X133662500Y-81750000D03*
%TD*%
%TO.C,R2*%
X131837500Y-92000000D03*
X133662500Y-92000000D03*
%TD*%
%TO.C,R3*%
X131837500Y-86750000D03*
X133662500Y-86750000D03*
%TD*%
D20*
%TO.C,D1*%
X162875000Y-100750000D03*
X164750000Y-100750000D03*
%TD*%
M02*
