%TF.GenerationSoftware,KiCad,Pcbnew,10.0.4*%
%TF.CreationDate,2026-08-21T15:58:06-07:00*%
%TF.ProjectId,musicplayer-frfr,6d757369-6370-46c6-9179-65722d667266,rev?*%
%TF.SameCoordinates,Original*%
%TF.FileFunction,Copper,L1,Top*%
%TF.FilePolarity,Positive*%
%FSLAX46Y46*%
G04 Gerber Fmt 4.6, Leading zero omitted, Abs format (unit mm)*
G04 Created by KiCad (PCBNEW 10.0.4) date 2026-08-21 15:58:06*
%MOMM*%
%LPD*%
G01*
G04 APERTURE LIST*
G04 Aperture macros list*
%AMRoundRect*
0 Rectangle with rounded corners*
0 $1 Rounding radius*
0 $2 $3 $4 $5 $6 $7 $8 $9 X,Y pos of 4 corners*
0 Add a 4 corners polygon primitive as box body*
4,1,4,$2,$3,$4,$5,$6,$7,$8,$9,$2,$3,0*
0 Add four circle primitives for the rounded corners*
1,1,$1+$1,$2,$3*
1,1,$1+$1,$4,$5*
1,1,$1+$1,$6,$7*
1,1,$1+$1,$8,$9*
0 Add four rect primitives between the rounded corners*
20,1,$1+$1,$2,$3,$4,$5,0*
20,1,$1+$1,$4,$5,$6,$7,0*
20,1,$1+$1,$6,$7,$8,$9,0*
20,1,$1+$1,$8,$9,$2,$3,0*%
G04 Aperture macros list end*
%TA.AperFunction,ComponentPad*%
%ADD10O,2.200000X3.500000*%
%TD*%
%TA.AperFunction,ComponentPad*%
%ADD11R,1.500000X2.500000*%
%TD*%
%TA.AperFunction,ComponentPad*%
%ADD12O,1.500000X2.500000*%
%TD*%
%TA.AperFunction,SMDPad,CuDef*%
%ADD13RoundRect,0.250000X-0.262500X-0.450000X0.262500X-0.450000X0.262500X0.450000X-0.262500X0.450000X0*%
%TD*%
%TA.AperFunction,SMDPad,CuDef*%
%ADD14RoundRect,0.150000X-0.825000X-0.150000X0.825000X-0.150000X0.825000X0.150000X-0.825000X0.150000X0*%
%TD*%
%TA.AperFunction,HeatsinkPad*%
%ADD15C,0.500000*%
%TD*%
%TA.AperFunction,HeatsinkPad*%
%ADD16R,2.410000X3.300000*%
%TD*%
%TA.AperFunction,SMDPad,CuDef*%
%ADD17RoundRect,0.200000X-1.175000X-0.800000X1.175000X-0.800000X1.175000X0.800000X-1.175000X0.800000X0*%
%TD*%
%TA.AperFunction,SMDPad,CuDef*%
%ADD18RoundRect,0.200000X1.175000X0.800000X-1.175000X0.800000X-1.175000X-0.800000X1.175000X-0.800000X0*%
%TD*%
%TA.AperFunction,SMDPad,CuDef*%
%ADD19C,1.700000*%
%TD*%
%TA.AperFunction,SMDPad,CuDef*%
%ADD20RoundRect,0.110000X0.440000X-1.140000X0.440000X1.140000X-0.440000X1.140000X-0.440000X-1.140000X0*%
%TD*%
%TA.AperFunction,ComponentPad*%
%ADD21C,2.000000*%
%TD*%
%TA.AperFunction,SMDPad,CuDef*%
%ADD22RoundRect,0.250000X-0.250000X-0.475000X0.250000X-0.475000X0.250000X0.475000X-0.250000X0.475000X0*%
%TD*%
%TA.AperFunction,ComponentPad*%
%ADD23RoundRect,0.250000X-0.350000X-0.625000X0.350000X-0.625000X0.350000X0.625000X-0.350000X0.625000X0*%
%TD*%
%TA.AperFunction,ComponentPad*%
%ADD24O,1.200000X1.750000*%
%TD*%
%TA.AperFunction,ComponentPad*%
%ADD25RoundRect,0.250000X0.550000X0.550000X-0.550000X0.550000X-0.550000X-0.550000X0.550000X-0.550000X0*%
%TD*%
%TA.AperFunction,ComponentPad*%
%ADD26C,1.600000*%
%TD*%
%TA.AperFunction,SMDPad,CuDef*%
%ADD27R,2.800000X2.200000*%
%TD*%
%TA.AperFunction,SMDPad,CuDef*%
%ADD28R,2.800000X2.800000*%
%TD*%
%TA.AperFunction,SMDPad,CuDef*%
%ADD29RoundRect,0.243750X-0.243750X-0.456250X0.243750X-0.456250X0.243750X0.456250X-0.243750X0.456250X0*%
%TD*%
%TA.AperFunction,ComponentPad*%
%ADD30C,1.524000*%
%TD*%
%TA.AperFunction,ComponentPad*%
%ADD31R,1.700000X1.700000*%
%TD*%
%TA.AperFunction,ComponentPad*%
%ADD32C,1.700000*%
%TD*%
%TA.AperFunction,ComponentPad*%
%ADD33R,2.000000X2.000000*%
%TD*%
%TA.AperFunction,ComponentPad*%
%ADD34R,3.200000X2.000000*%
%TD*%
%TA.AperFunction,ViaPad*%
%ADD35C,0.600000*%
%TD*%
%TA.AperFunction,Conductor*%
%ADD36C,0.199800*%
%TD*%
G04 APERTURE END LIST*
D10*
%TO.P,SW5,*%
%TO.N,*%
X135900000Y-108797500D03*
X144100000Y-108797500D03*
D11*
%TO.P,SW5,1,A_1*%
%TO.N,/VBAT*%
X138000000Y-108797500D03*
D12*
%TO.P,SW5,2,B_2*%
%TO.N,/XIAO_VBAT*%
X140000000Y-108797500D03*
%TO.P,SW5,3,C_3*%
%TO.N,unconnected-(SW5-C-Pad3)*%
X142000000Y-108797500D03*
%TD*%
D13*
%TO.P,R5,1*%
%TO.N,+3V3*%
X137500000Y-81750000D03*
%TO.P,R5,2*%
%TO.N,/SDA*%
X139325000Y-81750000D03*
%TD*%
%TO.P,R1,1*%
%TO.N,Net-(U2-PROG)*%
X131837500Y-97000000D03*
%TO.P,R1,2*%
%TO.N,GND*%
X133662500Y-97000000D03*
%TD*%
D14*
%TO.P,U2,1,TEMP_1*%
%TO.N,GND*%
X138075000Y-98395000D03*
%TO.P,U2,2,PROG_2*%
%TO.N,Net-(U2-PROG)*%
X138075000Y-99665000D03*
%TO.P,U2,3,GND_3*%
%TO.N,GND*%
X138075000Y-100935000D03*
%TO.P,U2,4,V_{CC}_4*%
%TO.N,/VBUS*%
X138075000Y-102205000D03*
%TO.P,U2,5,BAT_5*%
%TO.N,/VBAT*%
X143025000Y-102205000D03*
%TO.P,U2,6,~{STDBY}_6*%
%TO.N,/STDBY*%
X143025000Y-100935000D03*
%TO.P,U2,7,~{CHRG}_7*%
%TO.N,/CHRG*%
X143025000Y-99665000D03*
%TO.P,U2,8,CE_8*%
%TO.N,GND*%
X143025000Y-98395000D03*
D15*
%TO.P,U2,9,EPAD_9*%
X139850000Y-99100000D03*
X139850000Y-100300000D03*
X139850000Y-101500000D03*
D16*
X140550000Y-100300000D03*
D15*
X141250000Y-99100000D03*
X141250000Y-100300000D03*
X141250000Y-101500000D03*
%TD*%
D17*
%TO.P,U1,1,D0_1*%
%TO.N,/PLAY*%
X128582500Y-109500000D03*
%TO.P,U1,2,D1_2*%
%TO.N,/NEXT*%
X128582500Y-106960000D03*
%TO.P,U1,3,D2_3*%
%TO.N,/BACK*%
X128582500Y-104420000D03*
%TO.P,U1,4,D3_4*%
%TO.N,unconnected-(U1-D3-Pad4)*%
X128582500Y-101880000D03*
%TO.P,U1,5,D4_5*%
%TO.N,/SDA*%
X128582500Y-99340000D03*
%TO.P,U1,6,D5_6*%
%TO.N,/SCL*%
X128582500Y-96800000D03*
%TO.P,U1,7,D6_7*%
%TO.N,/XIAO_RX*%
X128582500Y-94260000D03*
D18*
%TO.P,U1,8,D7_8*%
%TO.N,/XIAO_TX*%
X112417500Y-94260000D03*
%TO.P,U1,9,D8_9*%
%TO.N,unconnected-(U1-D8-Pad9)*%
X112417500Y-96800000D03*
%TO.P,U1,10,D9_10*%
%TO.N,unconnected-(U1-D9-Pad10)*%
X112417500Y-99340000D03*
%TO.P,U1,11,D10_11*%
%TO.N,unconnected-(U1-D10-Pad11)*%
X112417500Y-101880000D03*
%TO.P,U1,12,3V3_OUT_12*%
%TO.N,+3V3*%
X112417500Y-104420000D03*
%TO.P,U1,13,GND_13*%
%TO.N,GND*%
X112417500Y-106960000D03*
%TO.P,U1,14,VBUS_14*%
%TO.N,/VBUS*%
X112417500Y-109500000D03*
D19*
%TO.P,U1,15,D11_15*%
%TO.N,/ENCODER_SWITCH*%
X115499006Y-105690000D03*
%TO.P,U1,16,D12_16*%
%TO.N,/BUSY*%
X115499006Y-103150000D03*
%TO.P,U1,17,D13_17*%
%TO.N,/ENCODER_A*%
X115499006Y-100610000D03*
%TO.P,U1,18,D14_18*%
%TO.N,/ENCODER_B*%
X115499006Y-98070000D03*
%TO.P,U1,19,D15_19*%
%TO.N,unconnected-(U1-D15-Pad19)*%
X125659006Y-98070000D03*
%TO.P,U1,20,D16_20*%
%TO.N,unconnected-(U1-D16-Pad20)*%
X125659006Y-100610000D03*
%TO.P,U1,21,D17_21*%
%TO.N,unconnected-(U1-D17-Pad21)*%
X125659006Y-103150000D03*
%TO.P,U1,22,D18_22*%
%TO.N,unconnected-(U1-D18-Pad22)*%
X125659006Y-105690000D03*
%TO.P,U1,23,SWDIO_23*%
%TO.N,unconnected-(U1-SWDIO-Pad23)*%
X121770000Y-110530000D03*
%TO.P,U1,24,SWDCLK_24*%
%TO.N,unconnected-(U1-SWDCLK-Pad24)*%
X119230000Y-110530000D03*
%TO.P,U1,25,EN_25*%
%TO.N,+3V3*%
X121770000Y-107990000D03*
%TO.P,U1,26,GND_26*%
%TO.N,GND*%
X119230000Y-107990000D03*
%TO.P,U1,27,BOOT_27*%
%TO.N,unconnected-(U1-BOOT-Pad27)*%
X121770000Y-105450000D03*
%TO.P,U1,28,3V3_OUT_28*%
%TO.N,+3V3*%
X119230000Y-105450000D03*
D20*
%TO.P,U1,29,VBAT_29*%
%TO.N,/XIAO_VBAT*%
X121500000Y-96905189D03*
%TO.P,U1,30,GND_30*%
%TO.N,GND*%
X119500000Y-96905189D03*
%TD*%
D21*
%TO.P,SW1,1,1_1*%
%TO.N,/BACK*%
X117000000Y-68000000D03*
X110500000Y-68000000D03*
%TO.P,SW1,2,2_2*%
%TO.N,GND*%
X117000000Y-63500000D03*
X110500000Y-63500000D03*
%TD*%
D22*
%TO.P,C4,1*%
%TO.N,/VBUS*%
X137300000Y-91750000D03*
%TO.P,C4,2*%
%TO.N,GND*%
X139200000Y-91750000D03*
%TD*%
D21*
%TO.P,SW3,1,1_1*%
%TO.N,/NEXT*%
X142000000Y-68000000D03*
X135500000Y-68000000D03*
%TO.P,SW3,2,2_2*%
%TO.N,GND*%
X142000000Y-63500000D03*
X135500000Y-63500000D03*
%TD*%
%TO.P,SW2,1,1_1*%
%TO.N,/PLAY*%
X129500000Y-68000000D03*
X123000000Y-68000000D03*
%TO.P,SW2,2,2_2*%
%TO.N,GND*%
X129500000Y-63500000D03*
X123000000Y-63500000D03*
%TD*%
D23*
%TO.P,J1,1,Pin_1_1*%
%TO.N,/VBAT*%
X154250000Y-106000000D03*
D24*
%TO.P,J1,2,Pin_2_2*%
%TO.N,GND*%
X156250000Y-106000000D03*
%TD*%
D25*
%TO.P,C3,1*%
%TO.N,/VBUS*%
X126499996Y-86000000D03*
D26*
%TO.P,C3,2*%
%TO.N,GND*%
X123999996Y-86000000D03*
%TD*%
D13*
%TO.P,R6,1*%
%TO.N,+3V3*%
X137087500Y-86500000D03*
%TO.P,R6,2*%
%TO.N,/SCL*%
X138912500Y-86500000D03*
%TD*%
D27*
%TO.P,J2,R*%
%TO.N,/LEFT*%
X160650000Y-42000000D03*
%TO.P,J2,S*%
%TO.N,GND*%
X153250000Y-40000000D03*
D28*
%TO.P,J2,T*%
%TO.N,/RIGHT*%
X153250000Y-49400000D03*
%TD*%
D29*
%TO.P,D2,1,K_1*%
%TO.N,Net-(D2-K)*%
X162875000Y-103790000D03*
%TO.P,D2,2,A_2*%
%TO.N,/STDBY*%
X164750000Y-103790000D03*
%TD*%
D13*
%TO.P,R4,1*%
%TO.N,/XIAO_TX*%
X131837500Y-81750000D03*
%TO.P,R4,2*%
%TO.N,Net-(U3-RX)*%
X133662500Y-81750000D03*
%TD*%
D25*
%TO.P,C1,1*%
%TO.N,Net-(U3-DAC_L)*%
X118249996Y-86000000D03*
D26*
%TO.P,C1,2*%
%TO.N,/LEFT*%
X115749996Y-86000000D03*
%TD*%
D13*
%TO.P,R2,1*%
%TO.N,GND*%
X131837500Y-92000000D03*
%TO.P,R2,2*%
%TO.N,Net-(D1-K)*%
X133662500Y-92000000D03*
%TD*%
D30*
%TO.P,U3,1,VCC_1*%
%TO.N,/VBUS*%
X145840000Y-93640000D03*
%TO.P,U3,2,RX_2*%
%TO.N,Net-(U3-RX)*%
X148380000Y-93640000D03*
%TO.P,U3,3,TX_3*%
%TO.N,/XIAO_RX*%
X150920000Y-93640000D03*
%TO.P,U3,4,DAC_R_4*%
%TO.N,Net-(U3-DAC_R)*%
X153460000Y-93640000D03*
%TO.P,U3,5,DAC_L_5*%
%TO.N,Net-(U3-DAC_L)*%
X156000000Y-93640000D03*
%TO.P,U3,6,SPK_1_6*%
%TO.N,unconnected-(U3-SPK_1-Pad6)*%
X158540000Y-93640000D03*
%TO.P,U3,7,GND_7*%
%TO.N,GND*%
X161080000Y-93640000D03*
%TO.P,U3,8,SPK_2_8*%
%TO.N,unconnected-(U3-SPK_2-Pad8)*%
X163620000Y-93640000D03*
%TO.P,U3,9,IO_1_9*%
%TO.N,unconnected-(U3-IO_1-Pad9)*%
X163620000Y-75860000D03*
%TO.P,U3,10,GND_10*%
%TO.N,GND*%
X161080000Y-75860000D03*
%TO.P,U3,11,IO_2_11*%
%TO.N,unconnected-(U3-IO_2-Pad11)*%
X158540000Y-75860000D03*
%TO.P,U3,12,ADKEY_1_12*%
%TO.N,unconnected-(U3-ADKEY_1-Pad12)*%
X156000000Y-75860000D03*
%TO.P,U3,13,ADKEY_2_13*%
%TO.N,unconnected-(U3-ADKEY_2-Pad13)*%
X153460000Y-75860000D03*
%TO.P,U3,14,USB+_14*%
%TO.N,unconnected-(U3-USB+-Pad14)*%
X150920000Y-75860000D03*
%TO.P,U3,15,USB-_15*%
%TO.N,unconnected-(U3-USB--Pad15)*%
X148380000Y-75860000D03*
%TO.P,U3,16,BUSY_16*%
%TO.N,/BUSY*%
X145840000Y-75860000D03*
%TD*%
D31*
%TO.P,J3,1,SDA_1*%
%TO.N,/SDA*%
X111250000Y-41710000D03*
D32*
%TO.P,J3,2,SCL_2*%
%TO.N,/SCL*%
X111250000Y-44250000D03*
%TO.P,J3,3,VCC_3*%
%TO.N,/VBUS*%
X111250000Y-46790000D03*
%TO.P,J3,4,GND_4*%
%TO.N,GND*%
X111250000Y-49330000D03*
%TD*%
D25*
%TO.P,C2,1*%
%TO.N,Net-(U3-DAC_R)*%
X122182376Y-78250000D03*
D26*
%TO.P,C2,2*%
%TO.N,/RIGHT*%
X119682376Y-78250000D03*
%TD*%
D13*
%TO.P,R3,1*%
%TO.N,GND*%
X131837500Y-86750000D03*
%TO.P,R3,2*%
%TO.N,Net-(D2-K)*%
X133662500Y-86750000D03*
%TD*%
D29*
%TO.P,D1,1,K_1*%
%TO.N,Net-(D1-K)*%
X162875000Y-100750000D03*
%TO.P,D1,2,A_2*%
%TO.N,/CHRG*%
X164750000Y-100750000D03*
%TD*%
D33*
%TO.P,SW4,A,A_A*%
%TO.N,/ENCODER_A*%
X150750000Y-61500000D03*
D21*
%TO.P,SW4,B,B_B*%
%TO.N,/ENCODER_B*%
X150750000Y-66500000D03*
%TO.P,SW4,C,C_C*%
%TO.N,GND*%
X150750000Y-64000000D03*
D34*
%TO.P,SW4,MP*%
%TO.N,N/C*%
X158250000Y-58400000D03*
X158250000Y-69600000D03*
D21*
%TO.P,SW4,S1,S1_S1*%
%TO.N,/ENCODER_SWITCH*%
X165250000Y-66500000D03*
%TO.P,SW4,S2,S2_S2*%
%TO.N,GND*%
X165250000Y-61500000D03*
%TD*%
D35*
%TO.N,+3V3*%
X114700000Y-106900000D03*
X126600000Y-94300000D03*
X137400000Y-83500000D03*
X128600000Y-92300000D03*
X113400000Y-105400000D03*
X120200000Y-106100000D03*
X137900000Y-82200000D03*
X121000000Y-107200000D03*
%TO.N,/SDA*%
X139200000Y-81300000D03*
X138300000Y-64200000D03*
X137100000Y-63000000D03*
X135400000Y-77500000D03*
X131000000Y-100200000D03*
X140200000Y-84500000D03*
%TO.N,GND*%
X139200000Y-91800000D03*
X153200000Y-40000000D03*
X119500000Y-96900000D03*
X112400000Y-107000000D03*
X131800000Y-92000000D03*
X119200000Y-108000000D03*
X131800000Y-86800000D03*
%TO.N,/VBUS*%
X136600000Y-100300000D03*
X137000000Y-92800000D03*
X134800000Y-87400000D03*
X119600000Y-95100000D03*
X128000000Y-87400000D03*
X138300000Y-93300000D03*
X118000000Y-96700000D03*
X123100000Y-73900000D03*
X132400000Y-84700000D03*
%TO.N,/PLAY*%
X121200000Y-73100000D03*
X127100000Y-69900000D03*
X124300000Y-69900000D03*
%TO.N,/NEXT*%
X138700000Y-69500000D03*
X116600000Y-78700000D03*
X139900000Y-69500000D03*
X120600000Y-82000000D03*
%TO.N,/SCL*%
X131200000Y-90600000D03*
X136100000Y-89600000D03*
X130900000Y-94900000D03*
X124100000Y-72000000D03*
X138700000Y-86900000D03*
%TO.N,/ENCODER_SWITCH*%
X142300000Y-88400000D03*
X142574194Y-86925806D03*
%TO.N,/BUSY*%
X136400000Y-81400000D03*
X135600000Y-82400000D03*
%TO.N,/ENCODER_B*%
X130800000Y-82800000D03*
X134300000Y-80500000D03*
%TO.N,Net-(D2-K)*%
X143900806Y-86150806D03*
X140700000Y-86800000D03*
X142228175Y-86204505D03*
X146500000Y-86250000D03*
%TO.N,Net-(D1-K)*%
X142000000Y-94899900D03*
X142000000Y-93700100D03*
%TO.N,Net-(U3-DAC_R)*%
X142250000Y-81000000D03*
X144250000Y-83000000D03*
X147500000Y-87400000D03*
X131400000Y-70100000D03*
%TO.N,Net-(U3-DAC_L)*%
X149800000Y-87400000D03*
X142525000Y-78725000D03*
X144000000Y-80250000D03*
X137900000Y-74100000D03*
%TO.N,/XIAO_VBAT*%
X130500000Y-98000000D03*
X122200000Y-96900000D03*
%TD*%
%TO.N,+3V3*%
D36*
X121800000Y-108000000D02*
X121770000Y-107990000D01*
X126600000Y-95400000D02*
X126600000Y-94300000D01*
X113400000Y-105400000D02*
X112400000Y-104400000D01*
X119230000Y-105450000D02*
X119200000Y-105400000D01*
X137500000Y-81800000D02*
X137500000Y-81750000D01*
X135400000Y-85500000D02*
X137400000Y-83500000D01*
X135400000Y-86400000D02*
X135400000Y-85500000D01*
X121000000Y-107200000D02*
X121800000Y-108000000D01*
X133100000Y-85700000D02*
X134200000Y-85700000D01*
X119200000Y-102800000D02*
X126600000Y-95400000D01*
X136100000Y-86500000D02*
X137100000Y-86500000D01*
X117500000Y-105400000D02*
X116100000Y-106800000D01*
X119200000Y-105400000D02*
X119900000Y-106100000D01*
X119200000Y-105400000D02*
X117500000Y-105400000D01*
X128600000Y-92300000D02*
X132800000Y-88100000D01*
X132800000Y-86000000D02*
X133100000Y-85700000D01*
X116100000Y-106800000D02*
X116000000Y-106800000D01*
X136000000Y-86400000D02*
X136100000Y-86500000D01*
X115900000Y-106900000D02*
X114700000Y-106900000D01*
X134200000Y-85700000D02*
X134900000Y-86400000D01*
X116000000Y-106800000D02*
X115900000Y-106900000D01*
X134900000Y-86400000D02*
X136000000Y-86400000D01*
X119200000Y-105400000D02*
X119200000Y-102800000D01*
X119900000Y-106100000D02*
X120200000Y-106100000D01*
X137900000Y-82200000D02*
X137500000Y-81800000D01*
X132800000Y-88100000D02*
X132800000Y-86000000D01*
%TO.N,/SDA*%
X135800000Y-62100000D02*
X135900000Y-62200000D01*
X131000000Y-100200000D02*
X130100000Y-99300000D01*
X138300000Y-64200000D02*
X139300000Y-65200000D01*
X136400000Y-62400000D02*
X137000000Y-63000000D01*
X135900000Y-62200000D02*
X136100000Y-62200000D01*
X139300000Y-81400000D02*
X139300000Y-81800000D01*
X136300000Y-62400000D02*
X136400000Y-62400000D01*
X139300000Y-65200000D02*
X139300000Y-73600000D01*
X139300000Y-73600000D02*
X135400000Y-77500000D01*
X131600000Y-62100000D02*
X135800000Y-62100000D01*
X139300000Y-81800000D02*
X139325000Y-81750000D01*
X128600000Y-99300000D02*
X128582500Y-99340000D01*
X140200000Y-82700000D02*
X140200000Y-84500000D01*
X136100000Y-62200000D02*
X136300000Y-62400000D01*
X111200000Y-41700000D02*
X131600000Y-62100000D01*
X139300000Y-81800000D02*
X140200000Y-82700000D01*
X130100000Y-99300000D02*
X128600000Y-99300000D01*
%TO.N,Net-(U2-PROG)*%
X131800000Y-97000000D02*
X134500000Y-99700000D01*
X131837500Y-97000000D02*
X131800000Y-97000000D01*
X134500000Y-99700000D02*
X138100000Y-99700000D01*
X138100000Y-99700000D02*
X138075000Y-99665000D01*
%TO.N,GND*%
X139800000Y-101500000D02*
X139200000Y-100900000D01*
X112400000Y-107000000D02*
X112417500Y-106960000D01*
X119200000Y-108000000D02*
X119230000Y-107990000D01*
X139850000Y-99100000D02*
X139800000Y-99100000D01*
X153200000Y-40000000D02*
X153250000Y-40000000D01*
X138100000Y-98400000D02*
X138075000Y-98395000D01*
X139200000Y-100900000D02*
X138100000Y-100900000D01*
X139200000Y-91800000D02*
X139200000Y-91750000D01*
X141200000Y-99100000D02*
X141900000Y-98400000D01*
X136700000Y-97000000D02*
X133700000Y-97000000D01*
X133700000Y-97000000D02*
X133662500Y-97000000D01*
X131800000Y-86800000D02*
X131837500Y-86750000D01*
X138100000Y-100900000D02*
X138075000Y-100935000D01*
X139800000Y-99100000D02*
X139100000Y-98400000D01*
X138100000Y-98400000D02*
X136700000Y-97000000D01*
X131800000Y-92000000D02*
X131837500Y-92000000D01*
X139100000Y-98400000D02*
X138100000Y-98400000D01*
X141900000Y-98400000D02*
X143000000Y-98400000D01*
X141250000Y-99100000D02*
X141200000Y-99100000D01*
X139850000Y-101500000D02*
X139800000Y-101500000D01*
X143000000Y-98400000D02*
X143025000Y-98395000D01*
%TO.N,/VBUS*%
X128000000Y-87400000D02*
X120300000Y-95100000D01*
X137600000Y-102200000D02*
X138100000Y-102200000D01*
X138100000Y-102200000D02*
X138075000Y-102205000D01*
X137600000Y-92200000D02*
X137000000Y-92800000D01*
X118000000Y-96700000D02*
X116700000Y-98000000D01*
X111200000Y-46800000D02*
X126500000Y-62100000D01*
X115100000Y-99400000D02*
X115000000Y-99500000D01*
X116700000Y-98000000D02*
X116700000Y-98500000D01*
X114100000Y-100300000D02*
X114100000Y-108100000D01*
X136700000Y-101300000D02*
X137600000Y-102200000D01*
X130900000Y-84700000D02*
X132400000Y-84700000D01*
X126500000Y-70500000D02*
X123100000Y-73900000D01*
X116700000Y-98500000D02*
X115800000Y-99400000D01*
X134800000Y-87400000D02*
X137300000Y-89900000D01*
X137300000Y-89900000D02*
X137300000Y-91800000D01*
X115000000Y-99500000D02*
X114900000Y-99500000D01*
X120300000Y-95100000D02*
X119600000Y-95100000D01*
X128200000Y-87400000D02*
X130900000Y-84700000D01*
X126500000Y-62100000D02*
X126500000Y-70500000D01*
X143600000Y-93600000D02*
X145800000Y-93600000D01*
X114900000Y-99500000D02*
X114100000Y-100300000D01*
X114100000Y-108100000D02*
X112700000Y-109500000D01*
X128000000Y-87400000D02*
X128200000Y-87400000D01*
X137300000Y-91800000D02*
X137600000Y-92100000D01*
X136700000Y-100400000D02*
X136700000Y-101300000D01*
X138500000Y-93100000D02*
X143100000Y-93100000D01*
X115800000Y-99400000D02*
X115100000Y-99400000D01*
X112700000Y-109500000D02*
X112400000Y-109500000D01*
X143100000Y-93100000D02*
X143600000Y-93600000D01*
X137300000Y-91800000D02*
X137300000Y-91750000D01*
X137600000Y-92100000D02*
X137600000Y-92200000D01*
X138300000Y-93300000D02*
X138500000Y-93100000D01*
%TO.N,/VBAT*%
X144700000Y-110900000D02*
X140100000Y-110900000D01*
X143000000Y-102200000D02*
X146800000Y-106000000D01*
X140100000Y-110900000D02*
X138000000Y-108800000D01*
X143025000Y-102205000D02*
X143000000Y-102200000D01*
X146800000Y-106000000D02*
X154200000Y-106000000D01*
X149600000Y-106000000D02*
X144700000Y-110900000D01*
%TO.N,/STDBY*%
X147400000Y-104800000D02*
X163500000Y-104800000D01*
X146400000Y-103800000D02*
X147400000Y-104800000D01*
X143000000Y-100900000D02*
X143500000Y-100900000D01*
X143500000Y-100900000D02*
X146400000Y-103800000D01*
X164500000Y-103800000D02*
X164800000Y-103800000D01*
X143025000Y-100935000D02*
X143000000Y-100900000D01*
X164800000Y-103800000D02*
X164750000Y-103790000D01*
X163500000Y-104800000D02*
X164500000Y-103800000D01*
%TO.N,/CHRG*%
X163400000Y-101800000D02*
X164400000Y-100800000D01*
X164400000Y-100800000D02*
X164800000Y-100800000D01*
X161300000Y-100800000D02*
X162200000Y-101700000D01*
X162200000Y-101700000D02*
X162300000Y-101700000D01*
X143500000Y-99700000D02*
X144600000Y-100800000D01*
X162400000Y-101800000D02*
X163400000Y-101800000D01*
X144600000Y-100800000D02*
X161300000Y-100800000D01*
X164800000Y-100800000D02*
X164750000Y-100750000D01*
X143000000Y-99700000D02*
X143500000Y-99700000D01*
X162300000Y-101700000D02*
X162400000Y-101800000D01*
X143025000Y-99665000D02*
X143000000Y-99700000D01*
%TO.N,/PLAY*%
X111100000Y-83400000D02*
X111000000Y-83500000D01*
X109400000Y-85600000D02*
X109400000Y-110500000D01*
X111100000Y-83300000D02*
X111100000Y-83400000D01*
X121200000Y-73200000D02*
X111100000Y-83300000D01*
X123000000Y-68600000D02*
X123000000Y-68000000D01*
X124500000Y-109500000D02*
X128600000Y-109500000D01*
X128200000Y-68800000D02*
X127100000Y-69900000D01*
X128700000Y-68800000D02*
X128200000Y-68800000D01*
X109400000Y-110500000D02*
X110600000Y-111700000D01*
X110600000Y-84300000D02*
X110600000Y-84400000D01*
X111000000Y-83900000D02*
X110600000Y-84300000D01*
X129500000Y-68000000D02*
X128700000Y-68800000D01*
X124300000Y-69900000D02*
X123000000Y-68600000D01*
X111000000Y-83500000D02*
X111000000Y-83900000D01*
X110600000Y-84400000D02*
X109400000Y-85600000D01*
X122300000Y-111700000D02*
X124500000Y-109500000D01*
X110600000Y-111700000D02*
X122300000Y-111700000D01*
%TO.N,/NEXT*%
X139900000Y-69500000D02*
X141400000Y-68000000D01*
X137200000Y-68000000D02*
X138700000Y-69500000D01*
X141400000Y-68000000D02*
X142000000Y-68000000D01*
X120600000Y-82000000D02*
X122800000Y-79800000D01*
X114000000Y-111300000D02*
X110800000Y-111300000D01*
X128600000Y-107000000D02*
X124500000Y-107000000D01*
X109800000Y-85800000D02*
X116600000Y-79000000D01*
X135000000Y-68000000D02*
X135500000Y-68000000D01*
X123200000Y-79800000D02*
X135000000Y-68000000D01*
X122800000Y-79800000D02*
X123200000Y-79800000D01*
X135500000Y-68000000D02*
X137200000Y-68000000D01*
X124500000Y-107000000D02*
X122200000Y-109300000D01*
X122200000Y-109300000D02*
X116000000Y-109300000D01*
X109800000Y-110300000D02*
X109800000Y-85800000D01*
X110800000Y-111300000D02*
X109800000Y-110300000D01*
X116000000Y-109300000D02*
X114000000Y-111300000D01*
X128582500Y-106960000D02*
X128600000Y-107000000D01*
X116600000Y-79000000D02*
X116600000Y-78700000D01*
%TO.N,/BACK*%
X111100000Y-110900000D02*
X113800000Y-110900000D01*
X122500000Y-106500000D02*
X124600000Y-104400000D01*
X120600000Y-106600000D02*
X122300000Y-106600000D01*
X113800000Y-110900000D02*
X118000000Y-106700000D01*
X118000000Y-106700000D02*
X120500000Y-106700000D01*
X117000000Y-68000000D02*
X110500000Y-68000000D01*
X122400000Y-106500000D02*
X122500000Y-106500000D01*
X120500000Y-106700000D02*
X120600000Y-106600000D01*
X122500000Y-73500000D02*
X122500000Y-73700000D01*
X122300000Y-106600000D02*
X122400000Y-106500000D01*
X110200000Y-86000000D02*
X110200000Y-110000000D01*
X124600000Y-104400000D02*
X128600000Y-104400000D01*
X117000000Y-68000000D02*
X122500000Y-73500000D01*
X122500000Y-73700000D02*
X110200000Y-86000000D01*
X110200000Y-110000000D02*
X111100000Y-110900000D01*
%TO.N,/SCL*%
X131200000Y-90600000D02*
X132200000Y-89600000D01*
X128600000Y-96800000D02*
X129700000Y-95700000D01*
X110200000Y-46100000D02*
X111200000Y-45100000D01*
X124100000Y-72000000D02*
X117000000Y-64900000D01*
X130100000Y-95700000D02*
X130900000Y-94900000D01*
X116400000Y-64800000D02*
X110100000Y-58500000D01*
X116600000Y-64800000D02*
X116400000Y-64800000D01*
X117000000Y-64900000D02*
X116700000Y-64900000D01*
X138700000Y-86900000D02*
X138900000Y-86700000D01*
X116700000Y-64900000D02*
X116600000Y-64800000D01*
X110100000Y-46300000D02*
X110200000Y-46200000D01*
X132200000Y-89600000D02*
X136100000Y-89600000D01*
X138900000Y-86700000D02*
X138900000Y-86500000D01*
X110100000Y-58500000D02*
X110100000Y-46300000D01*
X110200000Y-46200000D02*
X110200000Y-46100000D01*
X129700000Y-95700000D02*
X130100000Y-95700000D01*
%TO.N,/XIAO_RX*%
X149700000Y-94800000D02*
X145600000Y-94800000D01*
X144900000Y-94300000D02*
X128600000Y-94300000D01*
X145300000Y-94700000D02*
X144900000Y-94300000D01*
X150900000Y-93600000D02*
X149700000Y-94800000D01*
X145500000Y-94700000D02*
X145300000Y-94700000D01*
X145600000Y-94800000D02*
X145500000Y-94700000D01*
X128600000Y-94300000D02*
X128582500Y-94260000D01*
%TO.N,/XIAO_TX*%
X112417500Y-94260000D02*
X112400000Y-94300000D01*
X112400000Y-94300000D02*
X124900000Y-81800000D01*
X131800000Y-81800000D02*
X131837500Y-81750000D01*
X124900000Y-81800000D02*
X131800000Y-81800000D01*
%TO.N,/ENCODER_SWITCH*%
X130000000Y-92900000D02*
X127200000Y-92900000D01*
X136800000Y-93500000D02*
X134200000Y-90900000D01*
X137200000Y-93500000D02*
X136800000Y-93500000D01*
X133200000Y-90900000D02*
X132700000Y-91400000D01*
X127200000Y-92900000D02*
X127100000Y-93000000D01*
X132700000Y-92700000D02*
X131500000Y-93900000D01*
X138200000Y-91100000D02*
X138200000Y-92400000D01*
X115500000Y-105500000D02*
X115500000Y-105700000D01*
X140900000Y-88400000D02*
X138200000Y-91100000D01*
X122400000Y-98600000D02*
X115500000Y-105500000D01*
X127000000Y-93000000D02*
X122400000Y-97600000D01*
X134200000Y-90900000D02*
X133200000Y-90900000D01*
X132700000Y-91400000D02*
X132700000Y-92700000D01*
X142574194Y-86925806D02*
X142750000Y-87101612D01*
X138100000Y-92500000D02*
X138100000Y-92600000D01*
X154600000Y-75700000D02*
X155500000Y-74800000D01*
X143974194Y-86925806D02*
X154500000Y-76400000D01*
X155700000Y-74700000D02*
X157000000Y-74700000D01*
X142750000Y-87101612D02*
X142750000Y-87101614D01*
X155600000Y-74800000D02*
X155700000Y-74700000D01*
X142574194Y-86925806D02*
X143974194Y-86925806D01*
X131500000Y-93900000D02*
X131000000Y-93900000D01*
X155500000Y-74800000D02*
X155600000Y-74800000D01*
X127100000Y-93000000D02*
X127000000Y-93000000D01*
X131000000Y-93900000D02*
X130000000Y-92900000D01*
X154500000Y-76400000D02*
X154500000Y-76300000D01*
X138200000Y-92400000D02*
X138100000Y-92500000D01*
X142300000Y-88400000D02*
X140900000Y-88400000D01*
X157000000Y-74700000D02*
X165200000Y-66500000D01*
X154500000Y-76300000D02*
X154600000Y-76200000D01*
X138100000Y-92600000D02*
X137200000Y-93500000D01*
X154600000Y-76200000D02*
X154600000Y-75700000D01*
X122400000Y-97600000D02*
X122400000Y-98600000D01*
%TO.N,/BUSY*%
X120400000Y-95700000D02*
X120400000Y-98300000D01*
X115500000Y-103200000D02*
X115499006Y-103150000D01*
X136400000Y-81300000D02*
X137000000Y-80700000D01*
X139700000Y-80700000D02*
X144500000Y-75900000D01*
X137000000Y-80700000D02*
X139700000Y-80700000D01*
X121700000Y-95300000D02*
X120800000Y-95300000D01*
X136400000Y-81400000D02*
X136400000Y-81300000D01*
X120800000Y-95300000D02*
X120400000Y-95700000D01*
X131300000Y-85700000D02*
X121700000Y-95300000D01*
X135600000Y-82400000D02*
X132300000Y-85700000D01*
X132300000Y-85700000D02*
X131300000Y-85700000D01*
X145800000Y-75900000D02*
X144500000Y-75900000D01*
X120400000Y-98300000D02*
X115500000Y-103200000D01*
%TO.N,/ENCODER_A*%
X149500000Y-63300000D02*
X150800000Y-62000000D01*
X150800000Y-62000000D02*
X150800000Y-61500000D01*
X127400000Y-87100000D02*
X131700000Y-82800000D01*
X132800000Y-81000000D02*
X149400000Y-64400000D01*
X118600000Y-97500000D02*
X118600000Y-95200000D01*
X149400000Y-63500000D02*
X149500000Y-63400000D01*
X118600000Y-95200000D02*
X126600000Y-87200000D01*
X149500000Y-63400000D02*
X149500000Y-63300000D01*
X132400000Y-82800000D02*
X132800000Y-82400000D01*
X127300000Y-87100000D02*
X127400000Y-87100000D01*
X115500000Y-100600000D02*
X118600000Y-97500000D01*
X127200000Y-87200000D02*
X127300000Y-87100000D01*
X131700000Y-82800000D02*
X132400000Y-82800000D01*
X132800000Y-82400000D02*
X132800000Y-81000000D01*
X126600000Y-87200000D02*
X127200000Y-87200000D01*
X149400000Y-64400000D02*
X149400000Y-63500000D01*
%TO.N,/ENCODER_B*%
X125000000Y-86700000D02*
X115500000Y-96200000D01*
X115500000Y-98100000D02*
X115499006Y-98070000D01*
X125800000Y-84800000D02*
X125100000Y-85500000D01*
X150800000Y-66500000D02*
X148300000Y-66500000D01*
X128800000Y-84800000D02*
X125800000Y-84800000D01*
X125000000Y-86600000D02*
X125000000Y-86700000D01*
X130800000Y-82800000D02*
X128800000Y-84800000D01*
X125100000Y-86500000D02*
X125000000Y-86600000D01*
X115500000Y-96200000D02*
X115500000Y-98100000D01*
X125100000Y-85500000D02*
X125100000Y-86500000D01*
X148300000Y-66500000D02*
X134300000Y-80500000D01*
%TO.N,/LEFT*%
X156700000Y-49300000D02*
X157400000Y-49300000D01*
X134100000Y-68300000D02*
X134100000Y-67500000D01*
X115700000Y-86000000D02*
X122300000Y-79400000D01*
X123000000Y-79400000D02*
X134100000Y-68300000D01*
X150800000Y-50800000D02*
X151000000Y-50800000D01*
X154800000Y-51200000D02*
X156700000Y-49300000D01*
X160600000Y-46100000D02*
X160600000Y-42000000D01*
X157400000Y-49300000D02*
X160600000Y-46100000D01*
X160600000Y-42000000D02*
X160650000Y-42000000D01*
X151400000Y-51200000D02*
X154800000Y-51200000D01*
X134100000Y-67500000D02*
X150800000Y-50800000D01*
X151000000Y-50800000D02*
X151400000Y-51200000D01*
X122300000Y-79400000D02*
X123000000Y-79400000D01*
%TO.N,/RIGHT*%
X130100000Y-69300000D02*
X131700000Y-69300000D01*
X136400000Y-64600000D02*
X151600000Y-49400000D01*
X151600000Y-49400000D02*
X153200000Y-49400000D01*
X153200000Y-49400000D02*
X153250000Y-49400000D01*
X128600000Y-69300000D02*
X130100000Y-69300000D01*
X131700000Y-69300000D02*
X136400000Y-64600000D01*
X119700000Y-78200000D02*
X128600000Y-69300000D01*
%TO.N,Net-(D2-K)*%
X140700000Y-86800000D02*
X139900000Y-87600000D01*
X159700000Y-94100000D02*
X165600000Y-100000000D01*
X139900000Y-87600000D02*
X136600000Y-87600000D01*
X136600000Y-87600000D02*
X135800000Y-86800000D01*
X142281874Y-86150806D02*
X142228175Y-86204505D01*
X159700000Y-93400000D02*
X159700000Y-94100000D01*
X133700000Y-86800000D02*
X133662500Y-86750000D01*
X135800000Y-86800000D02*
X133700000Y-86800000D01*
X165600000Y-100000000D02*
X165600000Y-101500000D01*
X147050000Y-86800000D02*
X153300000Y-86800000D01*
X153300000Y-86800000D02*
X159600000Y-93100000D01*
X165300000Y-101800000D02*
X164900000Y-101800000D01*
X159600000Y-93300000D02*
X159700000Y-93400000D01*
X143900806Y-86150806D02*
X142281874Y-86150806D01*
X164900000Y-101800000D02*
X162900000Y-103800000D01*
X146500000Y-86250000D02*
X147050000Y-86800000D01*
X162900000Y-103800000D02*
X162875000Y-103790000D01*
X159600000Y-93100000D02*
X159600000Y-93300000D01*
X165600000Y-101500000D02*
X165300000Y-101800000D01*
%TO.N,Net-(U3-RX)*%
X137600000Y-82800000D02*
X137000000Y-82800000D01*
X148400000Y-93600000D02*
X137600000Y-82800000D01*
X137000000Y-82800000D02*
X136900000Y-82700000D01*
X136800000Y-82700000D02*
X135900000Y-81800000D01*
X135900000Y-81800000D02*
X133700000Y-81800000D01*
X133700000Y-81800000D02*
X133662500Y-81750000D01*
X136900000Y-82700000D02*
X136800000Y-82700000D01*
%TO.N,Net-(D1-K)*%
X161900000Y-100800000D02*
X162900000Y-100800000D01*
X141800100Y-93900000D02*
X135600000Y-93900000D01*
X143699900Y-94899900D02*
X149200000Y-100400000D01*
X135600000Y-93900000D02*
X133700000Y-92000000D01*
X149200000Y-100400000D02*
X161500000Y-100400000D01*
X133700000Y-92000000D02*
X133662500Y-92000000D01*
X162900000Y-100800000D02*
X162875000Y-100750000D01*
X142000000Y-93700100D02*
X141800100Y-93900000D01*
X161500000Y-100400000D02*
X161900000Y-100800000D01*
X142000000Y-94899900D02*
X143699900Y-94899900D01*
%TO.N,Net-(U3-DAC_R)*%
X147500000Y-87400000D02*
X153500000Y-93400000D01*
X144250000Y-83000000D02*
X142250000Y-81000000D01*
X130500000Y-70100000D02*
X131400000Y-70100000D01*
X122400000Y-78200000D02*
X130500000Y-70100000D01*
%TO.N,Net-(U3-DAC_L)*%
X118200000Y-86000000D02*
X130100000Y-74100000D01*
X142525000Y-78725000D02*
X144000000Y-80200000D01*
X144000000Y-80200000D02*
X144000000Y-80250000D01*
X130100000Y-74100000D02*
X137900000Y-74100000D01*
X149800000Y-87400000D02*
X156000000Y-93600000D01*
%TO.N,/XIAO_VBAT*%
X122200000Y-96900000D02*
X121500000Y-96900000D01*
X139100000Y-107900000D02*
X139100000Y-107400000D01*
X139100000Y-107400000D02*
X130500000Y-98800000D01*
X130500000Y-98800000D02*
X130500000Y-98000000D01*
X140000000Y-108800000D02*
X139100000Y-107900000D01*
X122200000Y-96900000D02*
X122050000Y-96900000D01*
%TD*%
M02*
