%TF.GenerationSoftware,KiCad,Pcbnew,10.0.4*%
%TF.CreationDate,2026-08-19T21:13:39-07:00*%
%TF.ProjectId,musicplayer-frfr,6d757369-6370-46c6-9179-65722d667266,rev?*%
%TF.SameCoordinates,Original*%
%TF.FileFunction,Soldermask,Top*%
%TF.FilePolarity,Negative*%
%FSLAX46Y46*%
G04 Gerber Fmt 4.6, Leading zero omitted, Abs format (unit mm)*
G04 Created by KiCad (PCBNEW 10.0.4) date 2026-08-19 21:13:39*
%MOMM*%
%LPD*%
G01*
G04 APERTURE LIST*
G04 Aperture macros list*
%AMRoundRect*
0 Rectangle with rounded corners*
0 $1 Rounding radius*
0 $2 $3 $4 $5 $6 $7 $8 $9 X,Y pos of 4 corners*
0 Add a 4 corners polygon primitive as box body*
4,1,4,$2,$3,$4,$5,$6,$7,$8,$9,$2,$3,0*
0 Add four circle primitives for the rounded corners*
1,1,$1+$1,$2,$3*
1,1,$1+$1,$4,$5*
1,1,$1+$1,$6,$7*
1,1,$1+$1,$8,$9*
0 Add four rect primitives between the rounded corners*
20,1,$1+$1,$2,$3,$4,$5,0*
20,1,$1+$1,$4,$5,$6,$7,0*
20,1,$1+$1,$6,$7,$8,$9,0*
20,1,$1+$1,$8,$9,$2,$3,0*%
G04 Aperture macros list end*
%ADD10RoundRect,0.250000X-0.450000X0.262500X-0.450000X-0.262500X0.450000X-0.262500X0.450000X0.262500X0*%
%ADD11RoundRect,0.243750X-0.243750X-0.456250X0.243750X-0.456250X0.243750X0.456250X-0.243750X0.456250X0*%
%ADD12R,2.410000X3.300000*%
%ADD13RoundRect,0.150000X-0.825000X-0.150000X0.825000X-0.150000X0.825000X0.150000X-0.825000X0.150000X0*%
%ADD14RoundRect,0.250000X-0.550000X-0.550000X0.550000X-0.550000X0.550000X0.550000X-0.550000X0.550000X0*%
%ADD15C,1.600000*%
%ADD16RoundRect,0.110000X-1.140000X-0.440000X1.140000X-0.440000X1.140000X0.440000X-1.140000X0.440000X0*%
%ADD17C,1.700000*%
%ADD18RoundRect,0.200000X0.800000X-1.175000X0.800000X1.175000X-0.800000X1.175000X-0.800000X-1.175000X0*%
%ADD19RoundRect,0.200000X-0.800000X1.175000X-0.800000X-1.175000X0.800000X-1.175000X0.800000X1.175000X0*%
%ADD20C,2.000000*%
%ADD21RoundRect,0.250000X-0.475000X0.250000X-0.475000X-0.250000X0.475000X-0.250000X0.475000X0.250000X0*%
%ADD22O,1.200000X1.750000*%
%ADD23RoundRect,0.250000X-0.350000X-0.625000X0.350000X-0.625000X0.350000X0.625000X-0.350000X0.625000X0*%
%ADD24R,2.800000X2.800000*%
%ADD25R,2.800000X2.200000*%
%ADD26C,1.524000*%
%ADD27R,1.700000X1.700000*%
%ADD28R,3.200000X2.000000*%
%ADD29R,2.000000X2.000000*%
G04 APERTURE END LIST*
D10*
%TO.C,R4*%
X118450000Y-96075000D03*
X118450000Y-94250000D03*
%TD*%
%TO.C,R3*%
X121400000Y-96075000D03*
X121400000Y-94250000D03*
%TD*%
%TO.C,R2*%
X124350000Y-96075000D03*
X124350000Y-94250000D03*
%TD*%
%TO.C,R5*%
X115500000Y-96075000D03*
X115500000Y-94250000D03*
%TD*%
%TO.C,R6*%
X112550000Y-96075000D03*
X112550000Y-94250000D03*
%TD*%
%TO.C,R1*%
X127300000Y-94250000D03*
X127300000Y-96075000D03*
%TD*%
D11*
%TO.C,D2*%
X122250000Y-103250000D03*
X120375000Y-103250000D03*
%TD*%
D12*
%TO.C,U2*%
X134550000Y-100750000D03*
D13*
X137025000Y-98845000D03*
X137025000Y-100115000D03*
X137025000Y-101385000D03*
X137025000Y-102655000D03*
X132075000Y-102655000D03*
X132075000Y-101385000D03*
X132075000Y-100115000D03*
X132075000Y-98845000D03*
%TD*%
D14*
%TO.C,C3*%
X157567621Y-93500000D03*
D15*
X160067621Y-93500000D03*
%TD*%
D16*
%TO.C,U1*%
X121874811Y-81750000D03*
X121874811Y-83750000D03*
D17*
X113330000Y-81480000D03*
X113330000Y-84020000D03*
X110790000Y-81480000D03*
X110790000Y-84020000D03*
X108250000Y-81480000D03*
X108250000Y-84020000D03*
X113090000Y-87909006D03*
X115630000Y-87909006D03*
X118170000Y-87909006D03*
X120710000Y-87909006D03*
X120710000Y-77749006D03*
X118170000Y-77749006D03*
X115630000Y-77749006D03*
X113090000Y-77749006D03*
D18*
X109280000Y-74667500D03*
X111820000Y-74667500D03*
X114360000Y-74667500D03*
X116900000Y-74667500D03*
X119440000Y-74667500D03*
X121980000Y-74667500D03*
X124520000Y-74667500D03*
D19*
X124520000Y-90832500D03*
X121980000Y-90832500D03*
X119440000Y-90832500D03*
X116900000Y-90832500D03*
X114360000Y-90832500D03*
X111820000Y-90832500D03*
X109280000Y-90832500D03*
%TD*%
D20*
%TO.C,SW1*%
X115400000Y-62250000D03*
X115400000Y-68750000D03*
X110900000Y-62250000D03*
X110900000Y-68750000D03*
%TD*%
D21*
%TO.C,C4*%
X115060000Y-100542500D03*
X115060000Y-98642500D03*
%TD*%
D20*
%TO.C,SW3*%
X132500000Y-62250000D03*
X132500000Y-68750000D03*
X128000000Y-62250000D03*
X128000000Y-68750000D03*
%TD*%
%TO.C,SW2*%
X123950000Y-62250000D03*
X123950000Y-68750000D03*
X119450000Y-62250000D03*
X119450000Y-68750000D03*
%TD*%
D22*
%TO.C,J1*%
X151500000Y-105500000D03*
D23*
X149500000Y-105500000D03*
%TD*%
D24*
%TO.C,J2*%
X155000000Y-49400000D03*
D25*
X155000000Y-40000000D03*
X162400000Y-42000000D03*
D17*
X158700000Y-48100000D03*
X158700000Y-41100000D03*
%TD*%
D26*
%TO.C,U3*%
X134000000Y-76210000D03*
X134000000Y-78750000D03*
X134000000Y-81290000D03*
X134000000Y-83830000D03*
X134000000Y-86370000D03*
X134000000Y-88910000D03*
X134000000Y-91450000D03*
X134000000Y-93990000D03*
X151780000Y-76210000D03*
X151780000Y-78750000D03*
X151780000Y-81290000D03*
X151780000Y-83830000D03*
X151780000Y-86370000D03*
X151780000Y-88910000D03*
X151780000Y-91450000D03*
X151780000Y-93990000D03*
%TD*%
D27*
%TO.C,J3*%
X111250000Y-41710000D03*
D17*
X111250000Y-44250000D03*
X111250000Y-46790000D03*
X111250000Y-49330000D03*
%TD*%
D14*
%TO.C,C2*%
X157567621Y-85650000D03*
D15*
X160067621Y-85650000D03*
%TD*%
D14*
%TO.C,C1*%
X157567621Y-77800000D03*
D15*
X160067621Y-77800000D03*
%TD*%
D11*
%TO.C,D1*%
X122250000Y-100210000D03*
X120375000Y-100210000D03*
%TD*%
D20*
%TO.C,SW4*%
X152750000Y-61750000D03*
X152750000Y-66750000D03*
D28*
X145750000Y-69850000D03*
X145750000Y-58650000D03*
D20*
X138250000Y-64250000D03*
X138250000Y-66750000D03*
D29*
X138250000Y-61750000D03*
%TD*%
M02*
