M48
; DRILL file KiCad 10.0.4 date 2026-08-19T21:14:18
; FORMAT={-:-/ absolute / metric / decimal}
; #@! TF.CreationDate,2026-08-19T21:14:18-07:00
; #@! TF.GenerationSoftware,Kicad,Pcbnew,10.0.4
; #@! TF.FileFunction,Plated,1,2,PTH
FMAT,2
METRIC
; #@! TA.AperFunction,Plated,PTH,ComponentDrill
T1C0.200
; #@! TA.AperFunction,Plated,PTH,ViaDrill
T2C0.300
; #@! TA.AperFunction,Plated,PTH,ComponentDrill
T3C0.750
; #@! TA.AperFunction,Plated,PTH,ComponentDrill
T4C0.762
; #@! TA.AperFunction,Plated,PTH,ComponentDrill
T5C0.800
; #@! TA.AperFunction,Plated,PTH,ComponentDrill
T6C1.000
; #@! TA.AperFunction,Plated,PTH,ComponentDrill
T7C1.100
; #@! TA.AperFunction,Plated,PTH,ComponentDrill
T8C1.500
%
G90
G05
T1
X133.85Y-99.55
X133.85Y-100.75
X133.85Y-101.95
X135.25Y-99.55
X135.25Y-100.75
X135.25Y-101.95
T2
X107.052Y-80.1
X107.052Y-92.8
X109.5Y-83.3
X110.2Y-77.5
X111.4Y-65.4
X112.3Y-66.3
X113.7Y-76.6
X114.4Y-89.2
X114.8Y-72.7
X115.1Y-100.5
X117.1Y-76.6
X118.1Y-80.3
X118.7Y-65.5
X118.7Y-83.2
X119.4Y-72.7
X119.4Y-78.6
X120.1Y-65.5
X120.1Y-80.9
X120.1Y-96.4
X120.3Y-95.1
X121.7Y-88.9
X122.1Y-92.2
X122.2Y-66.1
X122.2Y-67.4
X123.95Y-62.25
X124.1Y-72.7
X125.6Y-66.1
X125.6Y-67.4
X126.2Y-88.2
X126.6Y-74.0
X126.6Y-75.4
X128.8Y-76.1
X128.9Y-90.9
X129.7Y-75.2
X130.2Y-77.5
X130.75Y-76.25
X132.5Y-62.25
X132.5Y-102.3
X134.1Y-104.1
X135.5Y-85.0
X136.049Y-97.201
X136.4Y-77.0
X136.4Y-101.8
X137.7Y-102.8
X137.8Y-86.8
X139.0Y-102.2
X155.0Y-40.0
T3
X149.5Y-105.5
X151.5Y-105.5
T4
X134.0Y-76.21
X134.0Y-78.75
X134.0Y-81.29
X134.0Y-83.83
X134.0Y-86.37
X134.0Y-88.91
X134.0Y-91.45
X134.0Y-93.99
X151.78Y-76.21
X151.78Y-78.75
X151.78Y-81.29
X151.78Y-83.83
X151.78Y-86.37
X151.78Y-88.91
X151.78Y-91.45
X151.78Y-93.99
T5
X157.568Y-77.8
X157.568Y-85.65
X157.568Y-93.5
X160.068Y-77.8
X160.068Y-85.65
X160.068Y-93.5
T6
X111.25Y-41.71
X111.25Y-44.25
X111.25Y-46.79
X111.25Y-49.33
X138.25Y-61.75
X138.25Y-64.25
X138.25Y-66.75
X152.75Y-61.75
X152.75Y-66.75
T7
X110.9Y-62.25
X110.9Y-68.75
X115.4Y-62.25
X115.4Y-68.75
X119.45Y-62.25
X119.45Y-68.75
X123.95Y-62.25
X123.95Y-68.75
X128.0Y-62.25
X128.0Y-68.75
X132.5Y-62.25
X132.5Y-68.75
T8
G00X145.1Y-58.65
M15
G01X146.4Y-58.65
M16
G05
G00X145.1Y-69.85
M15
G01X146.4Y-69.85
M16
G05
M30
